<svg xmlns="http://www.w3.org/2000/svg" fill="none" overflow="visible" preserveAspectRatio="none" style="display:block" viewBox="0 0 85.514 85.68"><g filter="url(#a)"><path fill="url(#b)" d="m42.76 0 2.5 2.18L48.02.33l2.21 2.48 2.97-1.5 1.89 2.74 3.13-1.1 1.53 2.95 3.24-.7 1.15 3.11 3.3-.29.75 3.24 3.32.12.33 3.3 3.28.55-.08 3.32 3.18.94-.5 3.29 3.04 1.34-.9 3.2 2.84 1.7-1.3 3.06 2.61 2.05L82.34 37l2.33 2.36L82.66 42l2.01 2.64L82.34 47l1.67 2.87-2.6 2.05 1.3 3.06-2.85 1.7.9 3.2-3.04 1.34.5 3.28-3.18.95.08 3.32-3.28.54-.33 3.3-3.32.13-.75 3.24-3.3-.3-1.15 3.12-3.24-.7-1.53 2.95-3.13-1.1-1.89 2.73-2.97-1.49-2.2 2.48-2.77-1.85-2.5 2.18-2.5-2.18-2.77 1.85-2.2-2.48-2.98 1.49-1.88-2.73-3.13 1.1-1.53-2.95-3.25.7-1.14-3.11-3.31.29-.75-3.24-3.31-.12-.34-3.3-3.27-.55.08-3.32-3.19-.95.5-3.28-3.04-1.34.9-3.2-2.84-1.7 1.3-3.06-2.61-2.05L3.17 47 .84 44.64 2.86 42 .84 39.36 3.17 37 1.5 34.13l2.61-2.05-1.3-3.06 2.85-1.7-.9-3.2 3.03-1.34-.5-3.28 3.19-.95-.08-3.32 3.27-.54.34-3.3 3.31-.13.75-3.24 3.3.3 1.15-3.12 3.25.7 1.53-2.95 3.13 1.1 1.88-2.73 2.97 1.49L37.5.33l2.76 1.85z"/></g><defs><linearGradient id="b" x1="42.757" x2="42.757" y1="0" y2="84" gradientUnits="userSpaceOnUse"><stop stop-color="#ca966f"/><stop offset="1" stop-color="#a46d51"/></linearGradient><filter id="a" width="85.514" height="86.1" x="0" y="-.42" color-interpolation-filters="sRGB" filterUnits="userSpaceOnUse"><feFlood flood-opacity="0" result="BackgroundImageFix"/><feColorMatrix in="SourceAlpha" result="hardAlpha" values="0 0 0 0 0 0 0 0 0 0 0 0 0 0 0 0 0 0 127 0"/><feOffset dy=".84"/><feGaussianBlur stdDeviation=".42"/><feComposite in2="hardAlpha" operator="out"/><feColorMatrix values="0 0 0 0 0 0 0 0 0 0 0 0 0 0 0 0 0 0 0.25 0"/><feBlend in2="BackgroundImageFix" result="effect1_dropShadow_10_203"/><feBlend in="SourceGraphic" in2="BackgroundImageFix" result="shape"/><feColorMatrix in="SourceAlpha" result="hardAlpha" values="0 0 0 0 0 0 0 0 0 0 0 0 0 0 0 0 0 0 127 0"/><feOffset dx=".21" dy="-.42"/><feGaussianBlur stdDeviation=".21"/><feComposite in2="hardAlpha" k2="-1" k3="1" operator="arithmetic"/><feColorMatrix values="0 0 0 0 0 0 0 0 0 0 0 0 0 0 0 0 0 0 0.5 0"/><feBlend in2="shape" result="effect2_innerShadow_10_203"/><feColorMatrix in="SourceAlpha" result="hardAlpha" values="0 0 0 0 0 0 0 0 0 0 0 0 0 0 0 0 0 0 127 0"/><feOffset dx=".21" dy=".42"/><feGaussianBlur stdDeviation=".21"/><feComposite in2="hardAlpha" k2="-1" k3="1" operator="arithmetic"/><feColorMatrix values="0 0 0 0 1 0 0 0 0 1 0 0 0 0 1 0 0 0 1 0"/><feBlend in2="effect2_innerShadow_10_203" result="effect3_innerShadow_10_203"/><feTurbulence baseFrequency="2.3809523582458496 2.3809523582458496" numOctaves="3" result="noise" seed="1528" stitchTiles="stitch" type="fractalNoise"/><feComponentTransfer in="noise" result="coloredNoise1"><feFuncR intercept="-.5" slope="2" type="linear"/><feFuncG intercept="-.5" slope="2" type="linear"/><feFuncB intercept="-.5" slope="2" type="linear"/><feFuncA tableValues="0 0 0 0 0 0 0 1 1 1 1 1 1 1 1 1 1 1 1 1 1 1 1 1 1 1 1 1 1 1 1 1 1 1 1 1 1 1 1 1 1 1 1 0 0 0 0 0 0 0 0 0 0 0 0 0 0 0 0 0 0 0 0 0 0 0 0 0 0 0 0 0 0 0 0 0 0 0 0 0 0 0 0 0 0 0 0 0 0 0 0 0 0 0 0 0 0 0 0 0" type="discrete"/></feComponentTransfer><feComposite in="coloredNoise1" in2="effect3_innerShadow_10_203" operator="in" result="noise1Clipped"/><feComponentTransfer in="noise1Clipped" result="color1"><feFuncA tableValues="0 0.15" type="table"/></feComponentTransfer><feMerge result="effect4_noise_10_203"><feMergeNode in="effect3_innerShadow_10_203"/><feMergeNode in="color1"/></feMerge><feBlend in="effect4_noise_10_203" in2="effect1_dropShadow_10_203" result="effect4_noise_10_203"/></filter></defs></svg>