<svg xmlns="http://www.w3.org/2000/svg" fill="none" overflow="visible" preserveAspectRatio="none" style="display:block" viewBox="0 0 24.151 29.792"><g filter="url(#a)"><path fill="url(#b)" d="M11.93 28.81q-3.27 0-5.8-1.12t-3.97-3.12T.7 20.02h7.56q.01.8.48 1.43.49.62 1.33.98.83.35 1.91.35 1.04 0 1.84-.37.8-.38 1.24-1.04t.43-1.5a2.2 2.2 0 0 0-.51-1.5q-.52-.64-1.45-1-.93-.37-2.14-.37H8.58v-5.18h2.8q1.13 0 1.98-.37.86-.36 1.33-1 .49-.66.48-1.5 0-.8-.4-1.42a3 3 0 0 0-1.13-.97q-.71-.35-1.66-.35-1.02 0-1.83.36-.8.36-1.26 1.01a2.6 2.6 0 0 0-.47 1.49H1.24q.01-2.54 1.39-4.48 1.39-1.95 3.8-3.05T11.98.42q3.06 0 5.41 1.04t3.69 2.86q1.33 1.8 1.32 4.14.03 2.32-1.6 3.8-1.6 1.5-4.07 1.76v.22q3.35.36 5.04 2.05 1.68 1.67 1.66 4.2 0 2.44-1.46 4.31-1.46 1.88-4.06 2.95-2.6 1.06-5.98 1.06"/></g><defs><linearGradient id="b" x1="10.673" x2="6.877" y1="7.726" y2="55.417" gradientUnits="userSpaceOnUse"><stop stop-color="#bfa46a"/><stop offset="1" stop-color="#594c31"/></linearGradient><filter id="a" width="24.151" height="29.792" x="0" y="0" color-interpolation-filters="sRGB" filterUnits="userSpaceOnUse"><feFlood flood-opacity="0" result="BackgroundImageFix"/><feColorMatrix in="SourceAlpha" result="hardAlpha" values="0 0 0 0 0 0 0 0 0 0 0 0 0 0 0 0 0 0 127 0"/><feOffset dy=".28"/><feGaussianBlur stdDeviation=".35"/><feComposite in2="hardAlpha" operator="out"/><feColorMatrix values="0 0 0 0 0 0 0 0 0 0 0 0 0 0 0 0 0 0 0.5 0"/><feBlend in2="BackgroundImageFix" result="effect1_dropShadow_10_215"/><feBlend in="SourceGraphic" in2="BackgroundImageFix" result="shape"/><feColorMatrix in="SourceAlpha" result="hardAlpha" values="0 0 0 0 0 0 0 0 0 0 0 0 0 0 0 0 0 0 127 0"/><feOffset dy="-.14"/><feGaussianBlur stdDeviation=".07"/><feComposite in2="hardAlpha" k2="-1" k3="1" operator="arithmetic"/><feColorMatrix values="0 0 0 0 0 0 0 0 0 0 0 0 0 0 0 0 0 0 0.6 0"/><feBlend in2="shape" result="effect2_innerShadow_10_215"/><feColorMatrix in="SourceAlpha" result="hardAlpha" values="0 0 0 0 0 0 0 0 0 0 0 0 0 0 0 0 0 0 127 0"/><feOffset dy=".14"/><feGaussianBlur stdDeviation=".07"/><feComposite in2="hardAlpha" k2="-1" k3="1" operator="arithmetic"/><feColorMatrix values="0 0 0 0 0.899374 0 0 0 0 0.830286 0 0 0 0 0.678293 0 0 0 0.6 0"/><feBlend in2="effect2_innerShadow_10_215" result="effect3_innerShadow_10_215"/><feTurbulence baseFrequency="2.3809523582458496 2.3809523582458496" numOctaves="3" result="noise" seed="1528" stitchTiles="stitch" type="fractalNoise"/><feComponentTransfer in="noise" result="coloredNoise1"><feFuncR intercept="-.5" slope="2" type="linear"/><feFuncG intercept="-.5" slope="2" type="linear"/><feFuncB intercept="-.5" slope="2" type="linear"/><feFuncA tableValues="0 0 0 0 0 0 0 1 1 1 1 1 1 1 1 1 1 1 1 1 1 1 1 1 1 1 1 1 1 1 1 1 1 1 1 1 1 1 1 1 1 1 1 0 0 0 0 0 0 0 0 0 0 0 0 0 0 0 0 0 0 0 0 0 0 0 0 0 0 0 0 0 0 0 0 0 0 0 0 0 0 0 0 0 0 0 0 0 0 0 0 0 0 0 0 0 0 0 0 0" type="discrete"/></feComponentTransfer><feComposite in="coloredNoise1" in2="effect3_innerShadow_10_215" operator="in" result="noise1Clipped"/><feComponentTransfer in="noise1Clipped" result="color1"><feFuncA tableValues="0 0.15" type="table"/></feComponentTransfer><feMerge result="effect4_noise_10_215"><feMergeNode in="effect3_innerShadow_10_215"/><feMergeNode in="color1"/></feMerge><feBlend in="effect4_noise_10_215" in2="effect1_dropShadow_10_215" result="effect4_noise_10_215"/></filter></defs></svg>