<svg xmlns="http://www.w3.org/2000/svg" fill="none" overflow="visible" preserveAspectRatio="none" style="display:block" viewBox="0 0 23.153 29.414"><g filter="url(#a)"><path fill="url(#b)" d="M1.24 28.43v-5.4l10.31-8.52a23 23 0 0 0 1.75-1.6q.75-.75 1.14-1.55.4-.8.4-1.76 0-1.07-.46-1.83a3 3 0 0 0-1.24-1.16q-.8-.41-1.83-.41-1.04 0-1.84.41a3 3 0 0 0-1.21 1.23q-.43.81-.43 1.97H.7Q.7 6.9 2 4.8q1.32-2.1 3.7-3.24Q8.1.42 11.3.42q3.33 0 5.76 1.07 2.44 1.05 3.76 2.97 1.33 1.91 1.34 4.49 0 1.6-.67 3.17-.66 1.57-2.37 3.47-1.72 1.9-4.87 4.53l-2.6 2.16v.16h10.8v6z"/></g><defs><linearGradient id="b" x1="10.299" x2="6.352" y1="7.726" y2="55.392" gradientUnits="userSpaceOnUse"><stop stop-color="#bfa46a"/><stop offset="1" stop-color="#594c31"/></linearGradient><filter id="a" width="23.153" height="29.414" x="0" y="0" color-interpolation-filters="sRGB" filterUnits="userSpaceOnUse"><feFlood flood-opacity="0" result="BackgroundImageFix"/><feColorMatrix in="SourceAlpha" result="hardAlpha" values="0 0 0 0 0 0 0 0 0 0 0 0 0 0 0 0 0 0 127 0"/><feOffset dy=".28"/><feGaussianBlur stdDeviation=".35"/><feComposite in2="hardAlpha" operator="out"/><feColorMatrix values="0 0 0 0 0 0 0 0 0 0 0 0 0 0 0 0 0 0 0.5 0"/><feBlend in2="BackgroundImageFix" result="effect1_dropShadow_10_205"/><feBlend in="SourceGraphic" in2="BackgroundImageFix" result="shape"/><feColorMatrix in="SourceAlpha" result="hardAlpha" values="0 0 0 0 0 0 0 0 0 0 0 0 0 0 0 0 0 0 127 0"/><feOffset dy="-.14"/><feGaussianBlur stdDeviation=".07"/><feComposite in2="hardAlpha" k2="-1" k3="1" operator="arithmetic"/><feColorMatrix values="0 0 0 0 0 0 0 0 0 0 0 0 0 0 0 0 0 0 0.6 0"/><feBlend in2="shape" result="effect2_innerShadow_10_205"/><feColorMatrix in="SourceAlpha" result="hardAlpha" values="0 0 0 0 0 0 0 0 0 0 0 0 0 0 0 0 0 0 127 0"/><feOffset dy=".14"/><feGaussianBlur stdDeviation=".07"/><feComposite in2="hardAlpha" k2="-1" k3="1" operator="arithmetic"/><feColorMatrix values="0 0 0 0 0.899374 0 0 0 0 0.830286 0 0 0 0 0.678293 0 0 0 0.6 0"/><feBlend in2="effect2_innerShadow_10_205" result="effect3_innerShadow_10_205"/><feTurbulence baseFrequency="2.3809523582458496 2.3809523582458496" numOctaves="3" result="noise" seed="1528" stitchTiles="stitch" type="fractalNoise"/><feComponentTransfer in="noise" result="coloredNoise1"><feFuncR intercept="-.5" slope="2" type="linear"/><feFuncG intercept="-.5" slope="2" type="linear"/><feFuncB intercept="-.5" slope="2" type="linear"/><feFuncA tableValues="0 0 0 0 0 0 0 1 1 1 1 1 1 1 1 1 1 1 1 1 1 1 1 1 1 1 1 1 1 1 1 1 1 1 1 1 1 1 1 1 1 1 1 0 0 0 0 0 0 0 0 0 0 0 0 0 0 0 0 0 0 0 0 0 0 0 0 0 0 0 0 0 0 0 0 0 0 0 0 0 0 0 0 0 0 0 0 0 0 0 0 0 0 0 0 0 0 0 0 0" type="discrete"/></feComponentTransfer><feComposite in="coloredNoise1" in2="effect3_innerShadow_10_205" operator="in" result="noise1Clipped"/><feComponentTransfer in="noise1Clipped" result="color1"><feFuncA tableValues="0 0.15" type="table"/></feComponentTransfer><feMerge result="effect4_noise_10_205"><feMergeNode in="effect3_innerShadow_10_205"/><feMergeNode in="color1"/></feMerge><feBlend in="effect4_noise_10_205" in2="effect1_dropShadow_10_205" result="effect4_noise_10_205"/></filter></defs></svg>