<svg width="20" height="20" viewBox="0 0 20 20" fill="none" xmlns="http://www.w3.org/2000/svg">
<path d="M9.92773 18.5049C9.99152 18.5508 10.0349 18.5465 10.0947 18.5078C10.2615 18.4001 10.4312 18.2966 10.6182 18.1797C10.564 18.3975 10.5208 18.5982 10.4619 18.7939C10.4399 18.8675 10.4449 18.9089 10.5098 18.9492C10.6216 19.0183 10.7019 19.1276 10.8174 19.1943C10.8693 19.2245 10.9088 19.276 10.958 19.3213C10.857 19.366 10.7654 19.3733 10.6719 19.3701C10.6027 19.3678 10.533 19.3669 10.4639 19.3701C10.2615 19.3792 10.2468 19.3855 10.1875 19.5732C10.1627 19.6518 10.1286 19.7256 10.0957 19.7998C10.0659 19.8669 10.032 19.9322 9.99902 20C9.89774 19.8604 9.8543 19.6948 9.80469 19.5352C9.76646 19.4123 9.69898 19.3598 9.57617 19.3691C9.40499 19.3823 9.23942 19.3269 9.07031 19.3301C9.04409 19.2685 9.09827 19.2483 9.12695 19.2227C9.20154 19.1561 9.27396 19.0802 9.36133 19.0361C9.54158 18.945 9.55937 18.8203 9.50488 18.6406C9.46047 18.4939 9.46469 18.3337 9.4082 18.1611C9.59812 18.2857 9.76749 18.3893 9.92773 18.5049Z" fill="white"/>
<path d="M7.30566 17.7217C7.46392 17.9043 7.59971 18.049 7.71973 18.2051C7.7688 18.2687 7.80659 18.2769 7.87402 18.249C8.02455 18.1866 8.17833 18.1319 8.33789 18.0957C8.36827 18.0888 8.39865 18.0784 8.44238 18.1094C8.34846 18.2742 8.26101 18.4463 8.1543 18.6055C8.10478 18.6794 8.11569 18.7198 8.16309 18.7812C8.28064 18.933 8.39136 19.0903 8.51562 19.2598C8.30404 19.2259 8.11233 19.2008 7.92383 19.1621C7.8367 19.1443 7.78266 19.1627 7.73145 19.2334C7.62551 19.3795 7.51263 19.5213 7.38086 19.6934C7.36498 19.5203 7.33848 19.3762 7.3418 19.2334C7.34567 19.0658 7.28151 18.9765 7.12109 18.9209C6.9698 18.8685 6.80987 18.8294 6.66113 18.7334C6.72403 18.6569 6.8159 18.6569 6.88867 18.6221C7.0074 18.565 7.1711 18.5442 7.23828 18.4521C7.30447 18.3608 7.27764 18.2006 7.28809 18.0703C7.29596 17.9711 7.29818 17.8716 7.30566 17.7217Z" fill="white"/>
<path d="M12.6943 17.751C12.7087 17.8925 12.6999 18.0139 12.7031 18.1338C12.7059 18.2399 12.6759 18.3651 12.7227 18.4463C12.7637 18.5174 12.8938 18.5347 12.9805 18.583C13.0954 18.6471 13.2307 18.666 13.3496 18.7578C13.1426 18.8426 12.9394 18.8869 12.751 18.9727C12.6931 18.999 12.6628 19.0247 12.6631 19.0938C12.6642 19.2815 12.6168 19.4639 12.5869 19.6885C12.4782 19.5432 12.3826 19.4259 12.2988 19.3008C12.1869 19.1337 12.1783 19.1278 11.9775 19.1602C11.8178 19.1859 11.6568 19.2038 11.4707 19.2285C11.5822 19.0693 11.6743 18.919 11.7861 18.7852C11.8519 18.7066 11.8358 18.6522 11.8027 18.5703C11.7331 18.3979 11.6119 18.2492 11.5674 18.0469C11.7472 18.0966 11.9198 18.1411 12.082 18.2148C12.1831 18.2608 12.2325 18.2484 12.3145 18.1562C12.4293 18.027 12.5327 17.8827 12.6943 17.751Z" fill="white"/>
<path d="M5.41406 16.8291C5.50834 16.8998 5.54334 16.9995 5.58203 17.0908C5.72052 17.4181 5.71803 17.4199 6.05664 17.4199H6.41699C6.36563 17.5357 6.26898 17.5976 6.20312 17.6826C6.13052 17.7763 5.99615 17.8274 5.9707 17.9463C5.94518 18.0669 6.04947 18.1651 6.08496 18.2773C6.11452 18.371 6.14711 18.4636 6.1875 18.584C5.99897 18.4924 5.82658 18.4334 5.67188 18.3369C5.57927 18.2792 5.50343 18.3031 5.4209 18.376C5.30073 18.4819 5.16527 18.5706 5.01758 18.6807C5.00491 18.4742 5.06939 18.2982 5.07617 18.1162C5.07953 18.0243 5.06265 17.985 4.99121 17.9375C4.8563 17.8477 4.73009 17.7444 4.60059 17.6465C4.5815 17.6322 4.55579 17.6212 4.56543 17.5801C4.7317 17.5523 4.90168 17.5147 5.07324 17.499C5.17387 17.4897 5.22249 17.4432 5.23828 17.3564C5.27081 17.1762 5.35837 17.0154 5.41406 16.8291Z" fill="white"/>
<path d="M14.624 16.7803C14.6841 16.9883 14.7656 17.1695 14.7891 17.3682C14.798 17.4436 14.832 17.489 14.9209 17.498C15.0575 17.5118 15.1923 17.5443 15.3281 17.5664C15.3779 17.5742 15.4301 17.5708 15.4746 17.6172C15.3443 17.7421 15.1859 17.8318 15.0371 17.9297C14.9596 17.9807 14.943 18.0231 14.9453 18.1074C14.9505 18.2923 14.9897 18.4736 15.0078 18.6787C14.8541 18.5897 14.7364 18.4863 14.625 18.3818C14.52 18.2833 14.4258 18.2785 14.3057 18.3379C14.1555 18.412 14.0005 18.4771 13.8174 18.5596C13.8873 18.3756 13.9336 18.2174 14.0049 18.0674C14.073 17.9243 14.0666 17.9171 13.9648 17.8066C13.8404 17.6715 13.7197 17.5326 13.585 17.3818C13.7898 17.3694 13.967 17.4071 14.1455 17.4199C14.2493 17.4273 14.32 17.4067 14.3662 17.2979C14.4388 17.1268 14.5312 16.9642 14.624 16.7803Z" fill="white"/>
<path d="M3.82129 15.3574C3.86121 15.5471 3.90672 15.7053 3.9248 15.8662C3.94147 16.0152 4.00829 16.0799 4.15527 16.1016C4.31572 16.1251 4.47257 16.1749 4.64258 16.2158C4.48411 16.3613 4.28809 16.4342 4.11426 16.5391C4.04402 16.5814 4.02685 16.615 4.03418 16.6797C4.05601 16.8709 4.08015 17.0622 4.10547 17.2695C3.97679 17.2109 3.87899 17.1236 3.80664 17.0332C3.63356 16.8174 3.44949 16.8314 3.23535 16.9482C3.1475 16.9961 3.05131 17.0292 2.95312 17.0713C2.92674 16.9939 2.96529 16.9352 2.99512 16.876C3.05132 16.7643 3.10604 16.6523 3.15332 16.5361C3.18071 16.4686 3.17662 16.4201 3.13086 16.3662C3.03397 16.2524 2.94046 16.1352 2.84473 16.0205C2.81223 15.9817 2.77718 15.9455 2.77441 15.874C2.95945 15.8973 3.13341 15.9146 3.30566 15.9424C3.39493 15.9568 3.44008 15.9262 3.48633 15.8506C3.58386 15.6911 3.6956 15.5401 3.82129 15.3574Z" fill="white"/>
<path d="M16.1963 15.3857C16.2843 15.4154 16.3034 15.4964 16.3398 15.5527C16.4039 15.6516 16.4742 15.7521 16.5176 15.8584C16.5681 15.9819 16.6365 15.9947 16.748 15.9775C16.9141 15.9517 17.0819 15.9371 17.249 15.918C17.2528 15.9521 17.2527 15.9885 17.2275 16.0068C17.149 16.0636 17.1013 16.1462 17.041 16.2178C16.8232 16.4766 16.8246 16.4769 16.9541 16.7812C16.9931 16.8728 17.0463 16.9591 17.0664 17.0615C17.0088 17.0951 16.9618 17.0728 16.9102 17.0459C16.7941 16.9855 16.6752 16.9303 16.5537 16.8799C16.4723 16.8462 16.4252 16.8637 16.3691 16.9102C16.2534 17.006 16.1365 17.1005 16.0215 17.1973C15.988 17.2253 15.9593 17.2605 15.8916 17.2529C15.9126 17.0984 15.9297 16.9457 15.9561 16.7949C15.9772 16.6742 15.9635 16.5913 15.8379 16.5205C15.6876 16.4358 15.5341 16.3461 15.3984 16.2188C15.5756 16.1465 15.756 16.13 15.9307 16.0938C16.0325 16.0726 16.0772 16.034 16.0947 15.9287C16.1244 15.7509 16.1891 15.5793 16.1963 15.3857Z" fill="white"/>
<path d="M17.8066 13.9932C17.9096 14.0973 17.9116 14.1049 18.0479 14.0381C18.1998 13.9637 18.3614 13.9159 18.5352 13.8428C18.4999 13.9992 18.4228 14.1246 18.3643 14.2568C18.3466 14.2967 18.3265 14.3361 18.3066 14.375C18.2615 14.4635 18.2794 14.5388 18.3428 14.6143C18.4505 14.7424 18.5521 14.8768 18.666 15.0215C18.537 15.0507 18.4307 15.0034 18.3252 14.9873C17.9771 14.9344 17.9723 14.9298 17.7871 15.2227C17.7273 15.3173 17.6532 15.3968 17.5693 15.5166C17.5348 15.3137 17.4983 15.1515 17.4824 14.9873C17.4716 14.8746 17.4262 14.8202 17.3164 14.7959C17.1886 14.7676 17.0631 14.7264 16.9395 14.6826C16.8956 14.6671 16.8376 14.6637 16.8154 14.6084C16.9685 14.4851 17.1618 14.4393 17.3291 14.3438C17.3802 14.3146 17.4179 14.2919 17.4141 14.2178C17.4036 14.0129 17.4052 13.807 17.374 13.5654C17.5336 13.7233 17.6717 13.8566 17.8066 13.9932Z" fill="white"/>
<path d="M2.60254 13.5977C2.60254 13.7966 2.61 13.9939 2.59863 14.1895C2.59384 14.273 2.61581 14.3168 2.6875 14.3506C2.81167 14.4089 2.93402 14.4718 3.05664 14.5332C3.10043 14.5552 3.15187 14.5704 3.16699 14.6465C2.9813 14.6866 2.81402 14.7628 2.63184 14.7832C2.53378 14.7941 2.50328 14.8657 2.49023 14.9531C2.46401 15.129 2.43351 15.3042 2.39941 15.5127C2.28134 15.3399 2.17471 15.1951 2.08105 15.043C2.0291 14.9587 1.98325 14.9212 1.87207 14.9424C1.70417 14.9744 1.5301 14.9744 1.33887 14.9893C1.42046 14.8326 1.53185 14.7241 1.63086 14.6074C1.74518 14.4728 1.75715 14.4491 1.66895 14.293C1.58588 14.1458 1.5467 13.9821 1.4502 13.8008C1.64144 13.879 1.80856 13.9206 1.95996 14.0039C2.04174 14.049 2.10932 14.0349 2.17676 13.9736C2.31932 13.8443 2.46515 13.7185 2.60254 13.5977Z" fill="white"/>
<path d="M0.788086 11.5C0.929946 11.5741 1.0463 11.6664 1.15918 11.7627C1.25496 11.8445 1.33874 11.8836 1.47266 11.8096C1.62872 11.7232 1.78611 11.6302 1.98145 11.5703C1.90173 11.7698 1.86406 11.97 1.77246 12.1514C1.73766 12.2203 1.75086 12.2642 1.80762 12.3115C1.95942 12.4383 2.11024 12.5676 2.26953 12.7402C2.06037 12.7402 1.88023 12.7463 1.70117 12.7383C1.59407 12.7336 1.53622 12.766 1.48535 12.8662C1.40344 13.0274 1.34962 13.2011 1.25195 13.3809C1.19332 13.22 1.14125 13.0777 1.08984 12.9355C1.07284 12.8887 1.05449 12.8421 1.04199 12.7939C1.0221 12.7177 0.984215 12.6912 0.897461 12.6855C0.714271 12.6736 0.532834 12.6358 0.314453 12.6035C0.479092 12.4861 0.612035 12.3864 0.75 12.2939C0.841451 12.2327 0.881756 12.1656 0.858398 12.0479C0.823419 11.8717 0.811558 11.691 0.788086 11.5Z" fill="white"/>
<path d="M19.2471 11.4551C19.2166 11.6572 19.1988 11.8386 19.1592 12.0146C19.1349 12.1232 19.16 12.1907 19.248 12.2529C19.3851 12.35 19.5167 12.4549 19.6631 12.5664C19.4929 12.635 19.3191 12.6262 19.1533 12.6494C19.0417 12.6651 18.9726 12.6993 18.9375 12.8135C18.8918 12.9621 18.8278 13.1056 18.7715 13.251C18.7631 13.2729 18.7607 13.3007 18.7129 13.3047C18.6404 13.1396 18.5703 12.9678 18.4902 12.8018C18.4554 12.7294 18.4311 12.697 18.3467 12.7002C18.1582 12.7078 17.9682 12.7021 17.7832 12.7021C17.7531 12.6274 17.7966 12.5963 17.833 12.5654C17.9381 12.4761 18.0461 12.39 18.1514 12.3008C18.2805 12.1913 18.2772 12.1905 18.2227 12.0342C18.1637 11.865 18.1092 11.6942 18.0439 11.498C18.2034 11.5907 18.3381 11.666 18.4697 11.7461C18.673 11.8698 18.6947 11.8688 18.8779 11.7266C18.9914 11.6386 19.1096 11.5559 19.2471 11.4551Z" fill="white"/>
<path d="M19.3145 9.05664C19.3905 9.24396 19.3597 9.42598 19.3701 9.60352C19.3762 9.70558 19.3951 9.77829 19.5107 9.81055C19.6305 9.84363 19.7461 9.89657 19.8594 9.94922C19.9082 9.97187 19.971 9.97891 20 10.0361C19.8246 10.0998 19.6626 10.1981 19.4795 10.2402C19.3933 10.2601 19.3763 10.3151 19.374 10.3916C19.3682 10.5837 19.3579 10.7755 19.3213 10.9854C19.1876 10.885 19.1086 10.7553 19.0254 10.6377C18.9363 10.5121 18.8469 10.4715 18.6982 10.5127C18.5371 10.5575 18.3697 10.5809 18.1914 10.6162C18.2776 10.4241 18.4012 10.272 18.5068 10.1113C18.5604 10.0299 18.5483 9.98312 18.5029 9.91504C18.3994 9.75964 18.3013 9.60086 18.2002 9.44238C18.2324 9.39783 18.2648 9.42939 18.2969 9.4375C18.4488 9.4757 18.6008 9.51348 18.7529 9.55078C18.9001 9.58694 18.9106 9.57854 19.001 9.45605C19.0998 9.32215 19.2067 9.19351 19.3145 9.05664Z" fill="white"/>
<path d="M0.708984 9.00391C0.76079 8.98202 0.773347 9.02526 0.794922 9.05371C0.882067 9.16846 0.97659 9.27887 1.05469 9.39941C1.11342 9.48984 1.18448 9.50569 1.2793 9.48242C1.42547 9.44665 1.57206 9.41275 1.71875 9.37891C1.75543 9.3707 1.79252 9.36227 1.8457 9.38184C1.72649 9.55934 1.62046 9.72723 1.50293 9.88672C1.46172 9.94273 1.45747 9.97552 1.49609 10.0332C1.59666 10.1835 1.68851 10.3397 1.78418 10.4932C1.79734 10.5143 1.81259 10.5336 1.7959 10.5732C1.63158 10.5247 1.46496 10.4761 1.29883 10.4268C1.13207 10.3772 1.11769 10.385 1.0166 10.5166C0.91467 10.6493 0.805326 10.7764 0.696289 10.9092C0.640995 10.864 0.667091 10.8101 0.663086 10.7646C0.652395 10.6406 0.648569 10.514 0.648438 10.3916C0.648179 10.2292 0.561037 10.1803 0.441406 10.127C0.299387 10.0637 0.144193 10.0273 0 9.9209C0.180594 9.86039 0.34246 9.78728 0.507812 9.72754C0.624308 9.68529 0.665004 9.61454 0.661133 9.50586C0.655004 9.33585 0.686396 9.17019 0.708984 9.00391Z" fill="white"/>
<path d="M18.9883 7.23242C19.0179 7.31238 19.0523 7.33489 19.1289 7.3457C19.3128 7.37182 19.496 7.40295 19.7178 7.41699C19.5498 7.54351 19.4125 7.65848 19.2637 7.75488C19.1867 7.80489 19.1749 7.85513 19.1797 7.93945C19.1909 8.13821 19.2362 8.33206 19.2656 8.55566C19.0992 8.43309 18.9518 8.33017 18.8125 8.21777C18.7488 8.16643 18.7027 8.16163 18.6289 8.2002C18.4571 8.29007 18.2779 8.36698 18.0928 8.48145C18.1013 8.33106 18.1482 8.21401 18.1885 8.09375C18.2231 7.9904 18.3347 7.87803 18.2715 7.78613C18.2191 7.70987 18.1306 7.63542 18.042 7.5752C17.9471 7.51075 17.8706 7.4188 17.7588 7.31348C17.9651 7.30781 18.1378 7.29551 18.3096 7.30078C18.4476 7.30496 18.533 7.26013 18.5723 7.12207C18.5977 7.03267 18.6452 6.94979 18.6787 6.8623C18.7029 6.79909 18.7224 6.73423 18.791 6.68066C18.854 6.87448 18.9218 7.05339 18.9883 7.23242Z" fill="white"/>
<path d="M1.2998 6.61133C1.38447 6.79622 1.47526 6.95427 1.52832 7.12402C1.55982 7.22477 1.60795 7.23701 1.68848 7.23047C1.87746 7.21528 2.06298 7.25679 2.25195 7.25977C2.27042 7.33713 2.2057 7.35996 2.16797 7.39355C2.05635 7.49269 1.94191 7.58971 1.82422 7.68164C1.7594 7.73241 1.74523 7.78535 1.77734 7.85938C1.8537 8.03621 1.89306 8.22424 1.95703 8.44141C1.79082 8.34199 1.65137 8.25636 1.50977 8.1748C1.28459 8.04502 1.31368 8.08097 1.16602 8.18848C1.04059 8.27974 0.912228 8.36805 0.765625 8.47168C0.795339 8.28074 0.811901 8.10742 0.851562 7.94043C0.881485 7.81425 0.853061 7.73039 0.749023 7.65625C0.618318 7.56332 0.494213 7.46005 0.352539 7.34961C0.55024 7.29311 0.736866 7.29247 0.918945 7.27344C1.01282 7.26354 1.04653 7.22284 1.07812 7.14844C1.15108 6.97639 1.19786 6.79329 1.2998 6.61133Z" fill="white"/>
<path d="M17.5811 4.55371C17.6654 4.58022 17.6911 4.64864 17.7295 4.69824C17.8023 4.79206 17.8769 4.88731 17.9307 4.99219C17.9753 5.07924 18.0361 5.08933 18.1152 5.07715C18.2453 5.05707 18.3751 5.03496 18.5049 5.0127C18.5533 5.00447 18.6013 4.99501 18.6699 5.01465C18.5857 5.12301 18.5199 5.23867 18.4258 5.32324C18.2582 5.47387 18.2736 5.63088 18.373 5.80078C18.4402 5.91517 18.4798 6.04035 18.5273 6.16504C18.4586 6.18899 18.4031 6.15733 18.3467 6.13184C18.261 6.09314 18.1752 6.05375 18.0889 6.0166C17.9667 5.96417 17.8678 5.98739 17.7725 6.08789C17.658 6.20874 17.5267 6.31407 17.4023 6.42578C17.3954 6.21451 17.3979 6.02009 17.417 5.82812C17.4255 5.74086 17.4037 5.7061 17.333 5.67383C17.1846 5.60598 17.0385 5.53323 16.8916 5.46191C16.8588 5.44599 16.8179 5.43981 16.8066 5.39062C16.9762 5.31148 17.1642 5.2945 17.3408 5.23828C17.4375 5.20753 17.4845 5.16649 17.4951 5.06055C17.5118 4.89497 17.5501 4.73149 17.5811 4.55371Z" fill="white"/>
<path d="M2.48926 4.99512C2.50219 5.11842 2.55317 5.18886 2.68066 5.2334C2.84971 5.29225 3.03311 5.31905 3.20215 5.42773C3.03186 5.50494 2.87652 5.57867 2.71875 5.64648C2.57057 5.71022 2.57028 5.70808 2.56641 5.86426C2.56205 6.04347 2.6175 6.22107 2.58105 6.42188C2.43409 6.33928 2.36089 6.20922 2.25098 6.11816C2.22218 6.09436 2.20112 6.06085 2.17285 6.03613C2.10224 5.97438 2.03817 5.92548 1.92773 5.97949C1.77311 6.05532 1.60528 6.10513 1.41113 6.17773C1.50906 5.98023 1.57101 5.79961 1.67578 5.63867C1.72125 5.56875 1.7233 5.5147 1.66113 5.44141C1.54068 5.29923 1.43873 5.14145 1.3125 4.96777C1.51143 4.97964 1.67907 5.01284 1.8418 5.05566C1.95557 5.08565 2.01441 5.0553 2.07227 4.96191C2.14085 4.85121 2.2226 4.74785 2.30371 4.64551C2.33247 4.60913 2.35852 4.56099 2.42969 4.55762C2.44996 4.70348 2.47403 4.84887 2.48926 4.99512Z" fill="white"/>
<path d="M15.874 2.72656C16.0589 2.8427 16.193 2.98439 16.3408 3.10645C16.4105 3.16393 16.4543 3.17522 16.5342 3.1377C16.7012 3.05908 16.8745 2.99287 17.0732 2.91016C16.9905 3.10348 16.92 3.26663 16.8516 3.43066C16.8225 3.50017 16.8064 3.56197 16.8711 3.63379C16.9945 3.77064 17.1033 3.92077 17.2432 4.09766C17.0689 4.08826 16.9274 4.09181 16.79 4.07031C16.6581 4.04974 16.554 4.03845 16.4844 4.18945C16.4279 4.31177 16.3364 4.41854 16.2607 4.53223C16.2402 4.56305 16.2187 4.59235 16.1729 4.61133C16.1323 4.4309 16.0827 4.25914 16.0576 4.08398C16.0397 3.95862 15.9725 3.91477 15.8623 3.90723C15.6929 3.89564 15.5316 3.84301 15.3662 3.8125C15.3552 3.74866 15.4058 3.74359 15.4414 3.72266C15.5918 3.63356 15.7411 3.54112 15.8916 3.45215C15.9473 3.41907 15.9565 3.38427 15.9443 3.31543C15.9113 3.12822 15.8977 2.93695 15.874 2.72656Z" fill="white"/>
<path d="M4.13672 2.69727C4.11248 2.89222 4.09921 3.07572 4.06348 3.25488C4.04837 3.33054 4.06432 3.36403 4.11914 3.40918C4.27908 3.54089 4.46352 3.63657 4.64258 3.77344C4.45455 3.84239 4.26611 3.87119 4.08105 3.89062C3.9673 3.90265 3.93741 3.94609 3.91406 4.04492C3.87663 4.20288 3.84648 4.36211 3.81641 4.52148C3.81227 4.54311 3.81535 4.57319 3.76367 4.58594C3.67067 4.42632 3.56374 4.26644 3.4834 4.09473C3.43453 3.99034 3.37713 3.97854 3.27734 3.99414C3.10787 4.02077 2.93576 4.03289 2.74219 4.05371C2.80912 3.89746 2.91565 3.80178 3.0127 3.71484C3.17082 3.57322 3.18687 3.43256 3.09863 3.25488C3.04113 3.13903 2.99621 3.017 2.94629 2.90039C2.99525 2.86669 3.02801 2.88658 3.06152 2.90234C3.20344 2.96901 3.34815 3.03089 3.48633 3.10449C3.54963 3.13823 3.59073 3.12047 3.63672 3.08301C3.78188 2.96485 3.9273 2.84688 4.07324 2.72949C4.08687 2.7185 4.10497 2.71319 4.13672 2.69727Z" fill="white"/>
<path d="M5.01367 1.31152C5.19673 1.42019 5.32897 1.54806 5.46875 1.66406C5.53149 1.71614 5.57732 1.72459 5.65234 1.68945C5.82699 1.60758 6.00766 1.53827 6.20117 1.45703C6.15712 1.63317 6.09611 1.7939 6.01562 1.94531C5.96474 2.04119 5.96752 2.10556 6.05078 2.18848C6.18611 2.32297 6.302 2.47723 6.45215 2.6543C6.24282 2.63435 6.07192 2.62234 5.90234 2.60059C5.73755 2.57949 5.73265 2.57306 5.65039 2.71875C5.56318 2.87348 5.48652 3.03422 5.38574 3.23047C5.33449 3.01768 5.25915 2.85631 5.24023 2.67578C5.2246 2.52578 5.20991 2.52972 5.0625 2.49805C4.88717 2.46052 4.7054 2.44923 4.51562 2.37988C4.66972 2.2778 4.80713 2.18252 4.94922 2.09473C5.0473 2.03415 5.09853 1.97674 5.0752 1.84082C5.0469 1.67692 5.06315 1.50414 5.01367 1.31152Z" fill="white"/>
<path d="M14.9824 1.33008C14.9649 1.52393 14.9663 1.69608 14.9287 1.85938C14.9016 1.9768 14.9392 2.03314 15.0254 2.09082C15.175 2.19107 15.3209 2.29688 15.4941 2.41797C15.3135 2.46288 15.1605 2.49578 15.001 2.50195C14.8231 2.50891 14.8289 2.51409 14.7744 2.67773C14.7173 2.8492 14.6698 3.02516 14.5859 3.19727C14.5158 3.11875 14.4706 3.03251 14.4365 2.93945C14.4238 2.90465 14.4138 2.86781 14.3955 2.83594C14.249 2.58281 14.3214 2.55442 13.9697 2.61133C13.9515 2.6142 13.9327 2.61414 13.9141 2.61426C13.8014 2.61451 13.6885 2.61426 13.5684 2.61426C13.5821 2.52503 13.6754 2.50428 13.7236 2.44531C13.8063 2.34428 13.892 2.24346 13.9893 2.15723C14.0506 2.10269 14.0537 2.05597 14.0195 1.99512C13.933 1.84162 13.8986 1.6675 13.8232 1.50977C13.8154 1.49406 13.8055 1.47413 13.8379 1.45508C14.0106 1.53391 14.193 1.61052 14.3682 1.70117C14.4302 1.73333 14.4625 1.72659 14.5127 1.68652C14.6581 1.57029 14.8094 1.46085 14.9824 1.33008Z" fill="white"/>
<path d="M12.5791 0.314453C12.6248 0.532503 12.6515 0.719711 12.6631 0.908203C12.6672 0.975026 12.6869 1.01045 12.751 1.03027C12.936 1.08767 13.1172 1.15595 13.3047 1.24512C13.193 1.33983 13.0633 1.39288 12.9346 1.44141C12.8874 1.45918 12.8453 1.48616 12.7988 1.50195C12.7265 1.52658 12.7192 1.57733 12.7129 1.64551C12.6949 1.83671 12.7303 2.03343 12.6641 2.22656C12.5237 2.10736 12.4075 1.97064 12.2979 1.83008C12.2405 1.75671 12.1936 1.73336 12.0938 1.76562C11.9165 1.82304 11.7422 1.89103 11.5195 1.96582C11.5863 1.83401 11.6341 1.73816 11.6836 1.64355C11.695 1.62176 11.7145 1.60413 11.7275 1.58301C11.8871 1.32138 11.8816 1.3065 11.6846 1.05762C11.6081 0.960965 11.5262 0.86503 11.4668 0.733398C11.6396 0.766194 11.7978 0.796458 11.9561 0.826172C12.1828 0.868783 12.1352 0.88998 12.293 0.691406C12.3847 0.575928 12.4717 0.456496 12.5791 0.314453Z" fill="white"/>
<path d="M7.72656 0.664062C7.83024 0.821494 7.82714 0.819659 8.01172 0.789062C8.17747 0.761638 8.34362 0.727102 8.53418 0.740234C8.4249 0.887638 8.32582 1.03017 8.2168 1.16406C8.16008 1.23359 8.15954 1.29143 8.19727 1.36816C8.24943 1.47434 8.2945 1.58403 8.35352 1.6875C8.38954 1.75052 8.43627 1.81374 8.42285 1.91406C8.2391 1.84779 8.05887 1.7859 7.88184 1.7168C7.81026 1.68886 7.77095 1.68152 7.71191 1.75684C7.59362 1.90789 7.45104 2.04009 7.29688 2.20312C7.28178 2.06374 7.29102 1.94236 7.28809 1.82227C7.28525 1.70978 7.31409 1.58287 7.27148 1.48828C7.23148 1.40006 7.08839 1.39881 7 1.34082C6.89755 1.27335 6.76441 1.26271 6.66016 1.17773C6.84679 1.08253 7.04124 1.05584 7.21973 0.981445C7.3277 0.93627 7.36411 0.873775 7.3623 0.774414C7.35948 0.611476 7.40523 0.456464 7.4209 0.296875C7.43345 0.292536 7.44644 0.288265 7.45898 0.28418C7.54834 0.410538 7.64148 0.534871 7.72656 0.664062Z" fill="white"/>
<path d="M10.0049 0C10.0612 0.163286 10.155 0.306229 10.1904 0.473633C10.2106 0.568598 10.2697 0.619339 10.375 0.624023C10.5312 0.630847 10.6868 0.651058 10.8428 0.664062C10.8762 0.666888 10.9025 0.679063 10.9326 0.707031C10.8104 0.848129 10.6451 0.940254 10.5098 1.06641C10.4565 1.1161 10.454 1.14876 10.4697 1.20605C10.5239 1.40424 10.5547 1.60693 10.5879 1.83496C10.4215 1.72276 10.2726 1.62236 10.124 1.52148C9.98889 1.42968 9.99015 1.43195 9.86328 1.52246C9.72125 1.62347 9.57543 1.71943 9.39648 1.8418C9.44231 1.6407 9.46664 1.47326 9.52148 1.31641C9.57379 1.16672 9.53722 1.07585 9.40918 0.992188C9.28467 0.910833 9.17267 0.810512 9.05371 0.716797C9.09297 0.667767 9.14039 0.667663 9.18945 0.664062C9.33288 0.653384 9.47571 0.634945 9.61914 0.626953C9.70816 0.622067 9.75472 0.576206 9.78418 0.499023C9.83521 0.364864 9.89115 0.232074 9.94141 0.0976562C9.95523 0.0607041 9.97775 0.0324458 10.0049 0Z" fill="white"/>
<path fill-rule="evenodd" clip-rule="evenodd" d="M10.9724 3.60769C11.2423 3.61941 11.511 3.64638 11.7781 3.68679C12.0332 3.72554 12.2807 3.78465 12.5193 3.88991C12.68 3.96082 12.8109 4.06054 12.9246 4.18776C12.9748 4.24416 13.0113 4.30983 13.0173 4.38991C13.0402 4.69024 13.0149 4.97686 12.8132 5.2239C12.6895 5.37543 12.543 5.50167 12.3826 5.60866C12.2935 5.66802 12.2872 5.723 12.323 5.81081C12.4738 6.18163 12.6226 6.55317 12.7683 6.92604C12.9163 7.30489 13.0577 7.68685 13.2058 8.06569C13.3538 8.44413 13.5081 8.82045 13.657 9.19851C13.7946 9.54756 13.9343 9.89663 14.0622 10.2493C14.1328 10.4436 14.2175 10.6319 14.2898 10.8255C14.4911 11.3642 14.7107 11.8963 14.9206 12.4319C15.0848 12.8509 15.2445 13.2715 15.408 13.6907C15.4958 13.916 15.4217 14.0942 15.2136 14.2132C15.1066 14.2744 14.9849 14.3155 14.865 14.3479C14.6799 14.3981 14.4895 14.2855 14.4158 14.0989C14.1945 13.5406 13.9714 12.983 13.7517 12.4241C13.6412 12.1455 13.5372 11.8642 13.4226 11.5618C13.0323 11.8106 12.6291 11.9835 12.2117 12.1214C11.8242 12.2493 11.4271 12.3439 11.03 12.4378C11.0056 12.4436 10.9815 12.4547 10.9568 12.4573C10.8763 12.4657 10.8512 12.5089 10.863 12.5862C10.9263 13.0002 11.0003 13.4134 11.0476 13.8294C11.0999 14.2894 11.2099 14.7403 11.2439 15.2034C11.2617 15.4455 11.3198 15.6848 11.3621 15.9251C11.4048 16.1686 11.2848 16.364 11.0476 16.4202C10.9563 16.4418 10.8618 16.4542 10.7683 16.4641C10.5428 16.488 10.366 16.3782 10.323 16.1604C10.2623 15.8542 10.2096 15.5459 10.1755 15.2346C10.1443 14.949 10.0793 14.6669 10.0486 14.3811C9.99444 13.8772 9.8685 13.3829 9.83568 12.8762C9.83361 12.8452 9.82947 12.8141 9.82397 12.7835C9.80874 12.6993 9.78009 12.6726 9.67455 12.6809C9.14151 12.723 8.60576 12.7762 8.07104 12.7239C7.79768 12.6973 7.51765 12.6987 7.25463 12.5979C7.22623 12.5872 7.19273 12.5886 7.14525 12.5823C7.1295 12.8157 7.1124 13.0448 7.09936 13.2737C7.07017 13.7864 7.02071 14.2982 7.01733 14.8128C7.01629 14.9799 6.99776 15.1502 6.9851 15.3186C6.96973 15.5242 6.82525 15.6897 6.62377 15.7112C6.49342 15.725 6.35869 15.7219 6.22924 15.6946C5.99883 15.6459 5.90349 15.4975 5.91576 15.2708C5.93952 14.833 5.95721 14.3951 5.97826 13.9573C5.99932 13.52 6.04639 13.0837 6.07494 12.6467C6.09779 12.2968 6.11694 11.9464 6.12572 11.596C6.13541 11.2075 6.17699 10.8206 6.19701 10.4329C6.21961 9.99554 6.25301 9.5587 6.27807 9.12136C6.30571 8.63982 6.32738 8.15745 6.35619 7.67604C6.37518 7.3578 6.40313 7.03993 6.4265 6.72194C6.4371 6.5771 6.43414 6.58136 6.29565 6.53347C6.0503 6.44863 5.81269 6.33949 5.6394 6.14284C5.4281 5.90287 5.39011 5.67479 5.52807 5.35964C5.63675 5.11189 5.83062 4.93602 6.03979 4.77272C6.45266 4.45023 6.93565 4.26733 7.42358 4.10769C7.97198 3.92808 8.53838 3.79887 9.11108 3.7278C9.72769 3.65134 10.3478 3.58065 10.9724 3.60769ZM9.39721 10.9632C8.84164 11.0907 8.27945 11.1959 7.76147 11.4495C7.67035 11.4943 7.58398 11.5429 7.5144 11.6184C7.40691 11.7351 7.41942 11.8282 7.56127 11.9016C7.65678 11.951 7.76276 11.9776 7.86986 11.9798C8.3985 11.9903 8.92793 12.005 9.45385 11.9309C9.66195 11.9016 9.66212 11.8981 9.64818 11.6878C9.63153 11.4381 9.58026 11.1941 9.53002 10.9339C9.47111 10.9469 9.43377 10.9548 9.39721 10.9632ZM11.8367 10.6546C11.4722 10.6618 11.1126 10.7339 10.7478 10.7425C10.5997 10.7458 10.5972 10.7577 10.6247 10.9505C10.6382 11.1565 10.7103 11.3738 10.7107 11.6018C10.7109 11.7012 10.7419 11.716 10.8445 11.6966C10.9982 11.6675 11.1531 11.6423 11.3054 11.6067C11.4888 11.5637 11.6684 11.5047 11.8523 11.4641C12.1672 11.3946 12.4609 11.2766 12.739 11.1145C12.8451 11.0526 12.925 10.9663 12.9148 10.8508C12.9027 10.7165 12.7651 10.719 12.6648 10.6966C12.3917 10.6353 12.1132 10.649 11.8367 10.6546ZM8.90893 6.68386C8.46777 6.70961 8.04691 6.73689 7.62475 6.72878C7.4942 6.72621 7.48665 6.7369 7.47826 6.86354C7.46625 7.04457 7.45715 7.22633 7.44604 7.40749C7.42279 7.78838 7.39762 8.16905 7.3767 8.55007C7.35784 8.89404 7.36021 9.23897 7.3269 9.58229C7.31966 9.6571 7.32204 9.73282 7.31713 9.80788C7.29556 10.1371 7.27313 10.4666 7.24975 10.8128C7.51564 10.7019 7.75941 10.5925 8.00854 10.4973C8.43109 10.3359 8.86521 10.2095 9.31127 10.1311C9.39247 10.1169 9.42042 10.0896 9.40502 10.01C9.35451 9.75227 9.33281 9.48888 9.28979 9.23073C9.19617 8.6696 9.1247 8.10547 9.03393 7.54421C8.98807 7.26138 8.95104 6.9766 8.90893 6.68386ZM11.1941 6.14772C10.8861 6.2309 10.5896 6.35582 10.2712 6.40358C10.1792 6.41746 10.0666 6.42933 10.0066 6.48659C9.92921 6.56062 10.006 6.67493 10.0144 6.77175C10.059 7.28277 10.1698 7.78453 10.2322 8.29323C10.2672 8.57819 10.3347 8.85945 10.363 9.14479C10.3865 9.38209 10.4407 9.61366 10.4714 9.8489C10.4805 9.91783 10.513 9.9403 10.5876 9.92702C10.8353 9.88288 11.0862 9.87705 11.3376 9.86843C11.6907 9.8562 12.0438 9.87867 12.3962 9.8694C12.5159 9.86638 12.6315 9.91266 12.7742 9.88796C12.7031 9.70172 12.6435 9.53107 12.573 9.36452C12.4853 9.15734 12.405 8.94669 12.323 8.73757C12.1496 8.29589 11.9754 7.85402 11.8074 7.41042C11.7367 7.22399 11.6529 7.04231 11.5925 6.85085C11.5231 6.63096 11.4223 6.42086 11.3386 6.20534C11.3089 6.1291 11.2714 6.1269 11.1941 6.14772ZM12.1218 4.71706C11.8373 4.87577 11.5602 5.0441 11.2693 5.18776C10.8967 5.37181 10.5102 5.52532 10.1101 5.62819C9.74139 5.72296 9.3695 5.81159 8.98412 5.84597C8.48795 5.89011 7.99496 5.91812 7.50072 5.85573C7.38218 5.84069 7.26149 5.84831 7.14525 5.82155C6.79747 5.74121 6.4458 5.66856 6.0935 5.47878C6.15654 5.67963 6.30407 5.75209 6.4392 5.81569C6.85312 6.01023 7.30057 6.086 7.7517 6.12038C8.20322 6.15476 8.65662 6.15055 9.10815 6.08913C9.54998 6.02902 9.98533 5.94237 10.406 5.79519C10.8759 5.63077 11.317 5.40519 11.7136 5.10378C11.8617 4.9913 12.0171 4.87922 12.1218 4.71706Z" fill="#DBAE00"/>
</svg>
