<svg xmlns="http://www.w3.org/2000/svg" fill="none" viewBox="0 0 36 36"><path fill="#141e30" d="m17.97 0 .46 1.16 1.3.13-.95.77.28 1.31-1.09-.73-1.09.73.33-1.3-1-.78 1.29-.12zm4.65.6.15 1.25 1.22.46-1.12.5-.07 1.34-.86-1-1.24.43.65-1.17-.77-1.02 1.28.23zm4.34 1.81-.19 1.24 1.07.76-1.22.2-.4 1.26-.58-1.18-1.31.09.93-.96-.48-1.19 1.18.55zm3.72 2.87-.5 1.14.83 1.02-1.22-.13-.73 1.12-.25-1.3-1.29-.25 1.15-.69-.15-1.26 1 .84zm2.9 3.74-.78.98.54 1.2-1.15-.45-.99.9.1-1.32-1.18-.59 1.29-.36.18-1.26.74 1.07zm1.83 4.35-1 .74.21 1.3-.99-.73-1.19.6.43-1.24-.98-.87 1.34-.01.5-1.17.44 1.22zm.59 4.67-1.16.46-.14 1.3-.77-.96-1.3.28.74-1.1-.72-1.1 1.3.34.78-1 .1 1.3zm-.64 4.6-1.23.13-.47 1.23-.5-1.13-1.32-.08.99-.86-.42-1.25 1.17.66 1.02-.76-.23 1.28zm-1.8 4.4-1.23-.19-.77 1.07-.18-1.22-1.27-.42 1.18-.58-.07-1.31.95.94 1.18-.47-.55 1.18zm-2.85 3.72-1.14-.5-1.02.82.14-1.23-1.1-.73 1.28-.25.27-1.29.67 1.16 1.27-.14-.84 1zM27 33.6l-.98-.78-1.2.53.46-1.15-.88-1 1.3.1.6-1.17.35 1.29 1.26.19-1.07.74zm-4.37 1.77-.74-1.01-1.3.2.74-.99-.6-1.2 1.24.44.88-.98v1.34l1.17.52-1.22.43zm-4.65.63-.45-1.17-1.3-.14.97-.76-.27-1.32 1.08.75 1.1-.72-.34 1.3.99.8-1.3.1zm-4.7-.63-.12-1.24-1.22-.48 1.13-.48.08-1.34.85 1 1.25-.4-.66 1.16.75 1.02-1.28-.23zM9 33.6l.2-1.23-1.06-.78 1.22-.18.42-1.26.57 1.19 1.3-.07-.94.95.46 1.18-1.17-.56zm-3.74-2.9.51-1.15-.82-1.03 1.23.15.74-1.1.23 1.29 1.28.28-1.15.67.13 1.26-.99-.85zm-2.88-3.73.79-.97-.53-1.2 1.14.46 1-.88-.1 1.31 1.16.6-1.29.35-.2 1.26-.73-1.08zM.6 22.66l1-.73-.18-1.3.98.75 1.2-.6-.45 1.24.97.89H2.8l-.51 1.16-.43-1.23zM0 17.87l1.17-.44.15-1.3.75.97 1.31-.26-.75 1.08.7 1.11-1.28-.35-.8 1-.1-1.31zm.64-4.65 1.24-.13.48-1.22.48 1.14 1.33.1-1 .84.4 1.26-1.16-.68-1.03.75.25-1.28zm1.73-4.26 1.23.2.79-1.05.16 1.23 1.26.43-1.19.56.06 1.32-.94-.96-1.19.46.57-1.18zM5.3 5.17l1.14.52 1.03-.81L7.3 6.1l1.1.76-1.29.22-.28 1.29-.66-1.17-1.27.13.86-.98zm3.75-2.79.96.8 1.2-.52-.46 1.14.87 1.01-1.31-.12-.6 1.17-.34-1.3-1.26-.2 1.08-.73zM13.38.51l.72 1.02 1.3-.18-.75.97.58 1.21L14 3.08l-.9.97.02-1.34-1.16-.53 1.23-.42z"/><path fill="#c62232" d="m27.69 24.62-5.62-14.37c.98-.61 1.51-1.38 1.3-2.34-.32-1.45-4.25-1.7-7.97-.99s-5.84 2.14-5.56 3.6c.11.6.75 1.06 1.72 1.34l-.93 15.63a.7.7 0 0 0 .69.74l.49.02a.7.7 0 0 0 .75-.67l.3-4.98c1.1.35 2.82.42 4.75.17l.92 6.2a.7.7 0 0 0 .8.62l.5-.07a.7.7 0 0 0 .6-.53v-.28l-.92-6.3c1.94-.4 3.61-.93 4.6-1.63l1.8 4.57a.7.7 0 0 0 .92.39l.45-.19a.7.7 0 0 0 .41-.93M13.4 21.2c-.09-.47 1.33-1.05 3.76-1.51l.26 1.71c-2.23.3-3.95.23-4.03-.2m-.34-1.7.43-7.34q1.3.05 2.56-.13l.92 6.17q-2.05.35-3.91 1.29m-2.1-9.6c1.7.97 6.76 1.5 11.13-1.58-3.52 3.9-10.81 2.94-11.12 1.58m6.96 1.8a22 22 0 0 0 2.4-.65l2.66 6.8a17 17 0 0 0-4.14.05zm1.4 9.4-.26-1.71c2.18-.28 4.07-.3 4.16.1.14.64-1.6 1.16-3.9 1.6"/></svg>