<?xml version="1.0" encoding="UTF-8"?>
<svg id="Layer_1" xmlns="http://www.w3.org/2000/svg" version="1.1" viewBox="0 0 1080 1920">
  <!-- Generator: Adobe Illustrator 30.1.0, SVG Export Plug-In . SVG Version: 2.1.1 Build 136)  -->
  <defs>
    <style>
      .st0 {
        fill: #939393;
      }

      .st1 {
        fill: #dbdbdb;
      }
    </style>
  </defs>
  <g id="Layer_26">
    <g>
      <rect class="st0" x="-420" y="420" width="1920" height="1080" transform="translate(-420 1500) rotate(-90)"/>
      <path class="st1" d="M788.19,1445.93c12.45-5.19,26.53-3.4,38.98.83,32.18,11.53,56.94,37.16,77.3,63.76,32,42.56,53.73,91.73,71.95,141.48,26.71,72.85,45.04,148.77,55.17,225.68,1.6,14.08,3.05,28.19,4.32,42.32h-56.8c.21-29.22-1.76-58.44-4.57-87.51-5.1-46.14-10.59-92.91-25.66-137.02-4.39-10.87-11.38-28.44-21.81-34.11-3.73-1.78-7.04-1.35-9.62,2.01-4.76,5.74-4.41,13.66-4.29,20.7,1.27,20.16,5.5,40.01,8.58,59.95,3.15,19.07,5.83,38.22,7.55,57.48,3.24,39.52,1.3,79.43-5.34,118.51h-64.67c12.55-35.23,21.16-71.98,23.09-109.39,1.54-29.66-.39-59.47-4.89-88.81-3.82-23.11-8.8-46.18-16.86-68.22-9.4-24.93-21.5-49.08-38.09-70.04-11.41-14.5-24.84-27.24-36.91-41.17-13.57-15.42-25.16-37.21-23.62-58.21,1.09-16.14,10.8-32.19,26.18-38.24Z"/>
      <path class="st1" d="M753.02,1614.39c7.89-13.47,22.97-23.46,36.54-10.49,18.33,18.3,19.53,61.24,20.11,86.22-.21,49-4.96,98.21-17,145.78-5.36,20.57-12.13,40.75-19.95,60.52-3.19,7.87-6.39,15.73-9.61,23.59h-135.36c28.63-29.92,52-64.72,72.58-104.32,14.38-27.94,22.63-58.31,28.33-89.06,4.23-22.61,6.34-45.55,9.78-68.29,2.53-15.26,6.42-30.64,14.58-43.94Z"/>
      <path class="st1" d="M755.07,1251.29c109.64-6.15,222.51,70.88,281.64,159.39,17,25.98,31.11,53.81,43.29,82.35v303.87c-5.52-27.54-11.41-55-17.5-82.42-9.05-39.82-19.29-79.42-32.58-118.05-18.25-53.47-41.85-105.61-75.73-151.09-29.87-40.5-64.77-74.35-112.38-92.77-45.29-17.77-93.52-18.14-127.91,20.49-28.65,31.55-39.79,74.13-42.54,115.77-2.98,44.57,3.4,88.98,5.41,133.44,1.11,22.5.34,45.06-1.92,67.46-2.97,26-7.93,52-17.18,76.54-6.94,18.07-16.62,34.95-27.37,50.99-18.25,26.43-40.6,51.18-71.65,62.13-27.38,10.59-57.07,9.3-85.01,1.52-12.27-3.05-24.4-7.56-36.98-9.05-7.72-.8-15.56.56-22.68,3.61-17.46,7.98-29.14,25.15-34.79,43.06-.15.49-.3.98-.44,1.48h-63.31c3.38-13.47,5.96-27.14,8.49-40.79,3.08-17.63,6.08-36.24,17.29-50.8,13.07-18.98,31.98-22.65,53.39-17.8,13.84,2.91,27.42,7.34,40.98,11.16,15.66,4.32,31.7,7.75,47.97,8.29,30.19.76,61.7-6.27,85.97-24.94,25.62-20.2,38.87-52.09,45.63-83.2,7.18-32.62,7.92-66.41,4.18-99.54-2.2-20.06-4.98-39.7-9.52-59.31-5.81-25.57-14.18-50.46-20.41-75.91-5.24-21.13-5.27-43.08-2.36-64.56,2.51-17.78,6.22-35.5,12.61-52.32,26.2-67.53,81.63-114.7,155.38-118.99Z"/>
      <path class="st1" d="M815.04,1001.97c60.03-5.27,120.56-3.8,180.34,3.64,28.43,3.4,56.76,8.18,84.63,14.77v87.94c-22.62-8.73-45.64-16.38-69.02-22.75-47.99-12.8-97.29-21.02-146.89-23.95-72.4-3.55-161.86-2.21-224.34,38.36-11.08,7.86-22,17.34-26.76,30.44-2.5,7.04-3.34,15.51,1.05,21.94,9.97,14.98,31.33,10.28,46.11,6.67,32.45-9.71,64.69-20.46,98.14-26.26,30.36-5.43,61.31-7.34,92.13-7.18,56.91.4,114.72,10.76,165.32,37.68,23.16,12.39,44.45,27.82,64.27,45.02v150.61c-3.42-5.55-6.96-11.03-10.62-16.43-14.18-21.25-29.83-41.55-47.88-59.67-14.01-14.29-29.53-27-45.87-38.52-12.02-8.47-24.25-16.71-37.17-23.75-14.27-7.82-29.07-14.36-44.59-19.19-15.29-4.63-31.07-7.44-46.88-9.58-45.43-5.84-91.84.63-134.91,15.78-34.67,12.4-66.48,31.41-100.44,45.52-13.55,6.05-27.97,10.71-42.93,11-24.95,1.09-48.45-11.54-62.03-32.39-7.87-12.43-9.8-27.75-8.64-42.18,2.32-25.57,15.05-49.12,30.62-69.09,41.59-51.98,112.07-85.05,175.61-101,36.27-9.26,73.48-14.38,110.75-17.43Z"/>
      <path class="st1" d="M54.45,380.26c64.39-9.12,130.26-10.37,194.33,1.73,47.69,8.87,94.2,23.52,138.89,42.29,36.23,15.21,71.75,32.49,104.52,54.27,37.09,24.51,69.84,55.47,96.32,91.19,19.16,25.46,35.68,53.08,46.74,83.04,9.95,24.32,17.21,49.84,28.39,73.63,15.77,33,42.26,59.55,76.61,72.83,25.69,10.31,53.03,15.91,80.39,19.62,25.67,3.51,51.54,5.25,77.41,6.25,60.63,1.57,121.29,1.73,181.95,1.58v97.19c-4.3-1.79-8.62-3.53-12.96-5.21-25.21-9.54-51.32-16.58-77.74-21.88-134.6-24.5-311.41-8.29-424.84,73.27-28.25,20.05-54.26,43.27-77.66,68.79-21.5,23.04-40.52,48.48-54.89,76.59-21.75,44.52-32.77,99.2-22.3,148.16,6.55,28.86,19.69,55.66,33.48,81.66,28.09,52.75,65.15,101.02,85.64,157.57,17.15,48.24,27.57,100.77,17.3,151.66-4.75,20.59-12.79,40.95-27.21,56.73-20.04,23.43-46.95,35.59-77.67,36.54-31.27,1.04-62.18-8.71-88.86-24.7-22.01-12.77-41.18-29.93-61.62-44.83-12.8-9.11-28.53-18.61-44.85-15.22-7.06,1.84-14.19,4.77-17.23,11.62-8.23,19.81,6.29,43.91,12.93,62.58,8.81,22.14,17.47,44.46,22.8,67.73,9.32,38.56,7.8,75.87-12.01,111.05-.73,1.34-1.49,2.67-2.26,3.99H0v-75.77c6.02,1.98,12.07,3.84,18.15,5.59,38.18,10.52,79.06,18.59,118.49,10.93,21.32-4.13,43.03-14.38,54.26-33.67,11.66-20.02,9.09-43.95-.04-64.28-7.34-17.02-17.26-32.69-27.66-47.92-24.39-36.32-54.08-69.29-73.96-108.47-7.13-14.27-12.5-29.77-12.9-45.84-.66-18.63,5.19-40.02,23.74-47.98,22.29-10.68,48.06-2.31,67.59,10.49,25.38,17.55,45.63,41.23,68.5,61.75,47.48,43.95,114.26,88.49,181.07,63.99,43.76-17.69,69.85-61.89,66.24-108.67-2.49-34.25-19.61-65.28-39.15-92.75-28.34-40.25-61.91-76.54-90.34-116.74-34.82-50.13-66.77-106.38-69.45-168.75-3.27-76.96,41.58-122.12,105.91-155.58,47.76-24.27,98.66-43.59,141.69-76.12,30.82-23.08,57.44-53.17,69.96-90,22.25-65.18.04-133.95-41.39-186.35-26.05-33.82-59.37-61.58-96.76-81.93-34.64-19.36-71.94-33.86-110.27-44.07-40.72-11.09-82.46-18.41-124.47-22.37-40.79-3.64-81.79-3.77-122.7-2.71-22.36.7-44.71,1.93-66.96,3.69-13.19,1.14-26.38,2.35-39.56,3.61v-119.61c18-4.16,36.21-7.48,54.45-10.2Z"/>
      <path class="st1" d="M22.11,602.04c77.15-13.61,156.39-15.11,233.99-4.37,52.24,7.03,103.67,22.43,149.81,48.15,31.72,17.29,60.69,42.06,76.17,75.3,9.78,21.34,14.99,45.16,13.09,68.66-6.51,76.7-77.9,117.67-137.78,152.62-31.86,18.75-63.75,37.75-92.52,61.08-9.27,7.6-18.39,15.88-26.69,24.48-9.71,10.64-18.08,22.42-24.96,35.08-49.21,93.19,5.42,192.62,60.51,269.55,25.12,34.95,52.8,68.05,76.59,103.96,12.34,18.82,24.16,38.25,32.07,59.38,6.14,17.29,11.16,39.7-1.93,54.97-13.33,14.07-35.38,10.8-51.83,4.64-22.45-8.84-42.48-22.71-63.29-34.75-43.49-25.52-87.47-53.2-137.39-63.83-36.95-7.36-75.52.14-93.22,36.75-20.5,40.91-1.64,87.18,15.66,125.76,14.63,32.44,31.98,63.59,46.22,96.21,7.68,18.84,14.78,38.52,15.66,59.03.74,21.77-10.25,38.59-33.57,39.4-15.74,1.01-30.86-4.46-45.74-8.84-11.16-3.29-22.16-7.07-32.97-11.36v-53.99c5.05,2.66,10.29,4.92,15.85,6.39,5.57,1.32,11.44,1.8,16.92.25,7.47-2.34,13.76-8.32,15.49-16.04,4.25-21.14-4.96-41.98-15.09-60.07-9.76-17.51-21.05-34.05-33.16-49.98v-247.23c38.45,3.27,78.54,13.09,108.06,22.96,22.42,7.69,44.35,16.86,65.73,27.09,11.5,5.56,22.84,11.43,34.18,17.3,15.94,7.99,43.18,23.1,60.74,17.33,18.11-7.64-3.75-44.55-10.43-55.52-12.13-19.26-27.27-36.44-43.68-52.16-29.37-28.25-63.42-51.55-90.49-82.16-31.07-36.45-45.79-77.96-36.05-125.64,9.12-45.37,31.46-87.36,60.7-122.95,18.49-22.1,40.07-41.41,62.95-58.86,45.27-35.24,97.25-61.94,138.34-102.43,12.73-12.74,22.75-27.84,31.34-43.6,10.82-18.45,13.66-38.89,7.64-59.49-5.88-21.88-21.1-38.11-39.91-50-9.94-6.96-20.6-12.8-31.71-17.67-9.34-4.18-18.67-8.46-28.46-11.5-15.34-4.86-31.12-7.19-46.99-9.32-26.98-3.17-54.24-3.73-81.33-1.84-55.07,4-108.86,17.54-160.64,36.48v-95.16c7.35-1.45,14.73-2.81,22.11-4.09Z"/>
      <path class="st1" d="M118.64,758.48c28.98-8.29,59.77-10.07,87.91,2.22,9.67,4.03,18.65,9.77,26.94,16.11,20.8,15.5,27.67,38.7,20,63.3-6.55,23.28-23.5,41.15-39.59,58.4-25.26,27.86-54.05,52.09-81.32,77.89-13.91,13.25-27.11,27.38-37.95,43.3-18.12,26.57-32.92,55.49-42.82,86.12-20.06,61.71-15.69,120.05,24.33,172.73,7.32,9.88,15.32,19.23,22.58,29.15,5.96,8.58,14.75,19.36,12.16,30.39-3.86,11.4-18.57,12.14-28.69,10.59-20.98-3.64-39.86-14.33-59.36-22.4-7.57-3.33-15.19-6.58-22.85-9.71v-295.79c14.15-21.84,30.59-42.21,48.87-60.74,22.33-22.98,47.65-42.74,71.22-64.39,12.08-11.49,25.93-23.46,30.65-39.99,1.67-6.46-.14-13.96-5.71-17.98-11.71-7.62-31.67-1.3-43.41,3.88-26.68,12.35-49.39,31.56-71.21,50.96-10.42,9.7-20.54,19.7-30.41,29.93v-112.39c9.71-5.18,19.48-10.25,29.31-15.2,28.87-14.14,58.21-27.97,89.33-36.38Z"/>
      <path class="st1" d="M313.86,0h4.54c0,.05,0,.11.02.16.31,2.75.62,5.5.94,8.25.25,2.18.61,4.36.92,6.53.27,1.85.5,3.71.8,5.55.52,3.08,1.04,6.16,1.56,9.24.7,4.18,1.56,8.33,2.36,12.48.62,2.86,1.24,5.72,1.86,8.58.46,2.09.95,4.17,1.45,6.25.58,2.41,1.12,4.82,1.74,7.22.86,3.3,1.73,6.59,2.59,9.89.7,2.66,1.49,5.29,2.23,7.93.61,2.15,1.25,4.29,1.9,6.43.7,2.28,1.36,4.58,2.11,6.84.98,2.98,1.97,5.95,2.95,8.93,1.36,3.78,2.66,7.58,4.13,11.32,1.06,2.68,2.12,5.36,3.18,8.04.72,1.83,1.54,3.63,2.32,5.44.78,1.81,1.52,3.64,2.34,5.43,1.21,2.62,2.43,5.24,3.64,7.86,1.69,3.64,3.51,7.22,5.28,10.82,1.71,3.3,3.38,6.64,5.17,9.91,1.26,2.3,2.52,4.59,3.78,6.89.71,1.29,1.46,2.57,2.21,3.84,1.05,1.8,2.11,3.61,3.16,5.41,1.12,1.93,2.35,3.79,3.53,5.69,2.07,3.33,4.26,6.59,6.43,9.86,1.68,2.39,3.37,4.79,5.05,7.19.57.82,1.2,1.61,1.79,2.41,1.14,1.52,2.27,3.04,3.41,4.56.59.79,1.22,1.54,1.83,2.3,1.15,1.44,2.3,2.88,3.46,4.33.79.99,1.67,1.93,2.5,2.89.97,1.12,1.94,2.24,2.91,3.36,1.56,1.64,3.12,3.29,4.68,4.95,1.2,1.27,2.46,2.48,3.7,3.7,1.22,1.2,2.44,2.41,3.7,3.57,1.54,1.41,3.07,2.82,4.61,4.23,1.47,1.27,2.95,2.54,4.41,3.8,1.1.94,2.23,1.84,3.36,2.75,1.21.97,2.39,1.97,3.64,2.9,1.6,1.19,3.2,2.39,4.77,3.57,1.72,1.16,3.45,2.32,5.17,3.48.19.11.38.23.57.34.73.43,1.46.86,2.19,1.28.91.54,1.83,1.07,2.74,1.61,1.83.9,3.66,1.8,5.49,2.7.21.08.41.16.62.25.78.32,1.57.63,2.35.95.96.39,1.91.77,2.88,1.16,1.96.64,3.93,1.28,5.89,1.93.22.05.43.11.65.16.83.21,1.66.42,2.48.63,1.01.26,2.03.52,3.04.77,2.08.4,4.15.8,6.23,1.2,1.07.21,2.16.32,3.23.48,1.08.16,2.16.32,3.23.48,1.07.16,2.15.25,3.23.37,1.07.12,2.15.25,3.23.37,1.09.12,2.2.18,3.29.26,1.06.09,2.12.17,3.18.26,2.34.12,4.68.26,7.02.38,2.68.13,5.38.23,8.05.41,2.75.19,5.5.38,8.24.57,1.31.09,2.61.27,3.91.4,1.64.17,3.29.34,4.93.51,1.23.12,2.46.38,3.68.56,1.72.26,3.44.52,5.16.79.62.09,1.23.23,1.85.36,2.11.46,4.21.91,6.32,1.36.89.19,1.81.34,2.69.59,1.38.39,2.75.78,4.12,1.17,2.45.7,4.94,1.32,7.34,2.17,3.14,1.11,6.28,2.22,9.41,3.34.61.21,1.18.47,1.77.72,1.93.82,3.86,1.64,5.8,2.46,1.18.5,2.35,1,3.53,1.5.72.3,1.42.7,2.12,1.05,2.91,1.45,5.81,2.9,8.72,4.36.77.39,1.51.85,2.26,1.29,1.68.97,3.36,1.94,5.04,2.91,1.16.67,2.31,1.34,3.47,2,.88.5,1.7,1.11,2.54,1.66,2.61,1.71,5.22,3.42,7.83,5.12.5.33.98.7,1.47,1.06,1.68,1.24,3.37,2.47,5.05,3.71,1.67,1.23,3.36,2.42,4.96,3.74,2.78,2.29,5.56,4.58,8.34,6.87.4.33.77.67,1.15,1.02,1.24,1.14,2.48,2.28,3.73,3.42,1.34,1.23,2.68,2.46,4.02,3.7.58.53,1.14,1.05,1.7,1.61,2.48,2.51,4.97,5.02,7.46,7.54,1.75,1.77,3.39,3.63,5.05,5.47,1.24,1.36,2.47,2.72,3.71,4.08.42.46.85.91,1.25,1.39,2.27,2.7,4.53,5.4,6.79,8.1,1.31,1.56,2.57,3.16,3.82,4.77,1.19,1.53,2.38,3.06,3.57,4.59.63.82,1.3,1.62,1.91,2.45,1.86,2.57,3.73,5.13,5.59,7.69.58.8,1.17,1.6,1.75,2.41.75,1.03,1.44,2.11,2.15,3.16,1.62,2.38,3.24,4.75,4.86,7.13.49.72.95,1.46,1.41,2.2,1.22,1.91,2.45,3.82,3.67,5.73,1.14,1.79,2.26,3.58,3.36,5.4,1.01,1.68,2.03,3.36,3.04,5.04.56.93,1.15,1.86,1.69,2.8,1.61,2.83,3.22,5.66,4.84,8.5,1.21,2.13,2.38,4.28,3.54,6.44,1.18,2.19,2.4,4.36,3.55,6.57,1.64,3.15,3.27,6.31,4.91,9.46.93,1.8,1.82,3.63,2.72,5.45,1.16,2.33,2.34,4.66,3.46,7.01,1.46,3.07,2.93,6.14,4.39,9.21,1.24,2.6,2.4,5.24,3.6,7.86,4.62,10.1,8.95,20.34,13.2,30.61,4.25,10.27,8.4,20.58,12.56,30.88,2.21,5.46,4.44,10.93,6.68,16.38,1.16,2.83,2.41,5.62,3.62,8.43.53,1.23,1.12,2.43,1.68,3.65.67,1.45,1.34,2.9,2,4.35.99,1.94,1.97,3.88,2.95,5.81.32.62.61,1.27.96,1.88.6,1.06,1.2,2.11,1.81,3.17.98,1.71,1.91,3.45,2.99,5.1,1.28,1.96,2.56,3.93,3.84,5.9,1,1.34,2,2.67,3,4,.49.66.98,1.31,1.47,1.96.87,1.16,1.83,2.26,2.78,3.36,1.27,1.41,2.55,2.79,3.88,4.14,1.32,1.35,2.73,2.61,3.93,3.66.92.8,1.86,1.57,2.82,2.31,1.35,1.07,2.77,2.05,4.2,3.02,1.96,1.26,3.95,2.42,6.01,3.5,2.02.98,4.05,1.86,5.87,2.57,1.09.39,2.19.75,3.3,1.09,1.59.5,3.21.86,4.84,1.21,1.1.22,2.21.42,3.32.59,1.7.28,3.41.43,5.11.57,1.62.1,3.23.16,4.86.19,1.68.03,3.37-.05,5.05-.12,2.1-.15,4.18-.33,6.26-.65,1.7-.26,3.39-.52,5.09-.78,2.13-.49,4.25-.99,6.38-1.48.23-.07.45-.14.68-.21.86-.27,1.71-.53,2.57-.8,1.04-.32,2.08-.64,3.11-.97,2.11-.82,4.23-1.65,6.34-2.48.19-.09.38-.18.57-.27.75-.35,1.5-.7,2.24-1.05,1.2-.56,2.39-1.12,3.59-1.69,1.73-.95,3.47-1.88,5.2-2.82,1.54-.84,3.03-1.76,4.53-2.67,1.48-.89,2.96-1.77,4.39-2.72,1.84-1.23,3.69-2.45,5.53-3.67,2.24-1.59,4.49-3.19,6.73-4.79.82-.58,1.61-1.2,2.41-1.8,1.52-1.13,3.03-2.27,4.55-3.4,2.26-1.69,4.46-3.46,6.7-5.19,2.29-1.78,4.54-3.61,6.8-5.41,8.26-6.58,16.39-13.33,24.69-19.86,4.75-3.75,9.52-7.48,14.32-11.17,1.75-1.35,3.52-2.69,5.29-4.01,2.23-1.67,4.45-3.38,6.72-5.01,2.72-1.95,5.45-3.91,8.17-5.86,2.12-1.53,4.31-2.97,6.47-4.45,1.69-1.15,3.37-2.33,5.09-3.44,3.05-1.97,6.11-3.94,9.17-5.9,2-1.29,4.07-2.48,6.11-3.71,2.05-1.24,4.09-2.51,6.18-3.69,3-1.7,6.01-3.39,9.02-5.09,2.26-1.28,4.59-2.42,6.89-3.62,1.94-1.01,3.86-2.09,5.84-3.02,3.22-1.52,6.45-3.05,9.67-4.57,1.75-.83,3.53-1.58,5.31-2.34,2.94-1.24,5.88-2.49,8.82-3.73.89-.38,1.82-.68,2.73-1.02,1.41-.53,2.82-1.05,4.24-1.59v108.9c-11.26,6.2-22.29,12.83-33.07,19.84-39.32,25.08-75.34,54.84-113.61,81.42-10.87,7.61-22.07,14.74-33.58,21.32-9.25,5.43-18.91,10.21-29.12,13.55-26.59,9.01-56.34,4.55-80.87-8.37-18.93-10.38-36.08-24.38-49.86-41-15.09-18.93-24.72-41.31-33.78-63.57-20.27-50.32-45.77-98.7-78.91-141.78-15.03-19.54-31.11-38.41-49.28-55.12-14.86-13.7-31.23-25.7-48.32-36.45-35.04-21.63-72.61-38.8-107.82-60.15-38.48-23.03-74.65-50.7-103.84-84.94-32.3-36.87-54.73-82.29-63.94-130.45-4.71-24.9-6.48-50.22-7.57-75.5-.46-10.74-.82-21.48-1.07-32.23h68.49Z"/>
      <path class="st1" d="M1080,673.68v86c-.6.09-1.2.18-1.8.27-19.68,2.95-39.35,6.09-59.08,8.75-12.3,1.55-25.66,3.05-36.95-3.22-16.72-8.19-14.16-22.76-3.94-35.45,7.61-9.47,17.77-16.52,28.05-22.82,13.36-8.05,27.6-14.49,41.89-20.69,10.52-4.51,21.13-8.8,31.83-12.85Z"/>
      <path class="st1" d="M1080,333.95v97.68c-13.1,6.11-25.94,12.77-38.64,19.66-17.32,9.41-34.48,19.07-51.94,28.23-11.59,6.17-23.51,11.9-36.28,15.16-10.42,2.55-21.3,5.05-32.06,3.45-11.05-1.49-21.7-8.97-23.28-20.6-6.09-40.91,61.47-89.68,93.61-106.97,28.21-15.29,58-27.19,88.6-36.62Z"/>
      <path class="st1" d="M732.71,0h7.42c-11.76,8.89-23.39,18.43-31.76,30.69-25.66,39.23-4.18,83.83,17.97,119.11,13.86,21.88,28.96,42.67,44.27,63.51,16.18,21.23,32.23,46.57,57.98,56.87,21.27,7.9,42.07-5.86,59.16-17.25,23.5-16.03,46.62-32.84,72-45.85,26.33-13.74,54.41-24.21,83.4-30.66,12.2-2.73,24.49-4.65,36.85-6.02v57.31c-2.44.98-4.87,1.99-7.29,3.03-25.03,11.01-49.27,24.04-71.36,40.16-18.73,13.52-35.51,29.5-51.45,46.16-11.54,12-22.55,24.5-33.07,37.4-13.04,15.38-24,32.72-39.09,46.23-19.84,17.08-44.4,19.03-64.32.8-10.76-9.99-17.73-23.18-25.04-35.73-25.53-47.79-47.78-80.55-94.22-110.64-19.45-12.38-40.04-22.82-59.75-34.75-20.46-11.85-40.71-24.88-56.08-43.12-29.59-34.25-32.39-78.96-8.79-117.38,13.68-23.32,34.11-41.6,54.91-58.45.59-.47,1.18-.94,1.77-1.41h106.47Z"/>
      <path class="st1" d="M1017.86,0h12.4c-5.72,2.19-11.42,4.44-17.11,6.76-17.49,6.95-34.56,14.7-51.32,23.04-19.06,9.52-38.14,19.52-55.64,31.67-7.26,5.29-18.57,13.2-20.3,22.39-.03,11.43,15.45,12.25,23.89,11.95,10.55-.71,20.86-3.23,31.02-6.05,20.91-5.86,40.91-13.06,61.29-20.28,25.98-9.36,51.91-18.88,77.89-28.21v62.21c-26.82,5.42-53.25,13.08-78.59,23.4-14.7,6.03-28.91,13.12-42.97,20.5-15.22,7.88-30.64,15.91-47.36,20.09-23.09,5.67-47.89,5.82-70.41-2.29-13.09-4.53-25.82-11.18-34.91-21.88-12.88-14.54-18.73-35.09-15.07-54.2,5-26.34,24.14-47.23,44.22-63.76,11.64-9.21,23.85-17.59,36.46-25.34h146.48Z"/>
      <path class="st1" d="M533.51,0h5.38c-17.18,25.71-34.14,53.01-36.58,84.46-1.49,14.27-.25,28.93,2.85,42.88,1.38,6.1,2.89,12.16,4.57,18.18,1.35,6.6,5.75,16.35-.94,21.19-4.86,3.39-11.22,3.31-16.89,2.71-12.7-1.71-23.8-9.18-33.33-17.36-8.94-7.81-16.38-17.17-23.5-26.62-11.13-14.74-21.16-30.36-29.58-46.81-12.94-25.11-22.75-51.61-30.9-78.63h158.93Z"/>
      <path class="st1" d="M136.92,0h4.55c-.98,9.59-1.53,19.24-1.58,28.91-.94,26.64,1.01,53.55,8.79,79.16,7.96,26.23,19.81,51.07,32.45,75.32,12.79,25.89,34.05,57.43,30.18,87.2-3.97,23.22-30.3,26.94-49.88,25.35-16-.75-31.83-3.46-47.72-5.37-27.49-3.28-55.25-5.49-82.9-3.15-10.34.89-20.61,2.32-30.79,4.18v-75.53c7.22,1.39,14.51,2.42,21.88,2.95,14.38,1.04,29.13-2.1,41.99-8.46,10.21-5.01,18.25-13.25,23.51-23.22,17.89-37.8-10.79-92.25-24.71-128.5C54.63,39.43,47.12,19.8,40.11,0h96.81Z"/>
    </g>
  </g>
</svg>