<?xml version="1.0" encoding="UTF-8"?>
<svg id="Layer_1" xmlns="http://www.w3.org/2000/svg" version="1.1" viewBox="0 0 3392 3392">
  <!-- Generator: Adobe Illustrator 30.1.0, SVG Export Plug-In . SVG Version: 2.1.1 Build 136)  -->
  <defs>
    <style>
      .st0 {
        fill: #8f8f8f;
      }

      .st1 {
        fill: #adadad;
      }

      .st2 {
        fill: #9d9d9d;
      }

      .st3 {
        fill: #7d7d7d;
      }

      .st4 {
        fill: #cacaca;
      }

      .st5 {
        fill: #565656;
      }

      .st6 {
        fill: #b8b8b8;
      }

      .st7 {
        fill: #4a4a4a;
      }

      .st8 {
        fill: #5a5a5a;
      }

      .st9 {
        fill: #838383;
      }

      .st10 {
        fill: #a4a4a4;
      }

      .st11 {
        fill: #999;
      }
    </style>
  </defs>
  <path class="st4" d="M2343.76,3392c8.95-11.43,17.75-22.86,33.32-24.74,11.98-1.42,25.02,2.12,34.58,9.54,5.21,4.04,8.44,9.51,11.52,15.2h-79.42Z"/>
  <path class="st11" d="M2775.03,3392c11.46-12.69,22.79-27.1,41.19-28.39,10.1-.7,18.49,1.82,26.01,8.88,5.88,5.53,9.32,12.19,12.42,19.51h-79.62Z"/>
  <path class="st8" d="M1954.95,3392c2.62-10.93,5.35-19.61,15.15-26.14,7.06-4.7,16.63-6.92,24.99-5.03,8.45,1.92,16.71,9.31,20.86,16.76,1.89,3.41,2.53,7.32,3.29,11.1l.68,3.31h-64.97Z"/>
  <path class="st8" d="M1955.89,0h62.83c-.03,11.72.78,22.29-8.31,31.18-6.44,6.3-15.69,8.94-24.57,8.56-9.18-.39-17.81-4.22-24.02-11.04-7.72-8.49-6.43-18.14-5.94-28.71Z"/>
  <path class="st4" d="M1573.11,3392c.35-14.04,1.93-23.09,12.98-33.09,11.06-10.04,25.83-12.95,40.3-11.66,7.94.7,14.77,5.27,19.45,11.59,6.82,9.24,11.54,22.66,16.42,33.16h-89.15Z"/>
  <path class="st8" d="M2140.34,1929.85c4.87-.58,10.41-1.02,15.27-.31,8.99,1.31,19.03,8.98,23.59,16.7,4.43,7.5,4.53,17.47,1.7,25.53-3.5,9.94-12.75,16.97-22.09,20.94l-2.82.36c-4.08.55-7.99,1.12-12.07.2-8.76-1.98-16.68-6.59-21.62-14.21-5.36-8.28-6.28-17.75-3.47-27.16,3.36-11.28,11.85-16.77,21.5-22.04Z"/>
  <path class="st4" d="M260.45,695.84c6.78-.35,15.75.04,21.94,3.16,7.7,3.87,14.46,11.24,16.68,19.69,2.28,8.69,1.04,18.36-3.36,26.11-5.11,9.02-13.26,12.53-22.78,15.4-5.96.12-11.14-.12-16.81-2.16-9.26-3.34-15.27-9.61-19.31-18.51-3.42-7.52-2.99-17.31.18-24.84,4.62-11,12.89-14.81,23.46-18.83Z"/>
  <path class="st9" d="M1465.87,1053.64c7.39-.44,14.6-.72,21.62,2.08,7.04,2.8,14.18,9.92,17.02,16.91,3.23,7.93,4.36,19.82.81,27.74-4.44,9.9-13.82,14.34-23.49,17.63-5.3.73-12.79,1.21-17.93-.48-7.8-2.57-15.27-8.56-18.96-15.99-4.29-8.62-4.6-19.15-1.12-28.11,4.14-10.66,12.08-15.38,22.05-19.78Z"/>
  <path class="st9" d="M1349.88,2406.77c7.03-.27,13.95-1.08,20.67,1.39,7.16,2.64,14.15,8.97,17.16,16.06,3.69,8.7,5.29,19.77,1.23,28.65-4.67,10.21-11.99,14.6-22.21,18.34-6.05.38-13.64.8-19.41-1.09-8.36-2.73-16.11-10.09-19.52-18.14-3.72-8.79-3.99-18.56-.1-27.33,4.33-9.74,12.86-14.16,22.18-17.88Z"/>
  <path class="st8" d="M187.41,3092.47c6.22-.83,12.65-1.24,18.79.43,8.37,2.27,16.07,10.41,19.8,17.97,4.15,8.39,4.1,17.37.86,26.07-3.97,10.65-11.7,16.05-21.61,20.76-5.58.59-10.95.44-16.45-.84-9.09-2.13-17.52-8.03-22-16.33-4.42-8.19-5.55-17.09-2.5-25.94,3.76-10.93,13.3-17.18,23.1-22.11Z"/>
  <path class="st8" d="M906.24,2325.43c6.12-.27,11.27-.6,17.12,1.43,9.29,3.24,16.93,10.3,20.71,19.41,3.12,7.54,2.69,19.53-.95,26.76-5.27,10.46-13.88,15.29-24.75,18.51-5.4.2-10.49.14-15.7-1.52-9.19-2.92-15.89-8.68-19.91-17.45-3.87-8.42-3.32-17.22.04-25.67,4.58-11.51,12.61-16.8,23.45-21.47Z"/>
  <path class="st10" d="M253.9,394.28c7.03-.27,14.62.17,21.14,3.06,7.52,3.33,13.98,10.71,16.8,18.38,2.9,7.88,2.38,17.85-1.17,25.45-4.96,10.59-12.62,15.89-23.32,19.92-6.04-.13-12.39-.17-18.09-2.44-7.63-3.04-15.54-9.92-18.83-17.53-4.08-9.43-4.07-19.03.29-28.4,4.6-9.89,13.32-14.95,23.18-18.43Z"/>
  <path class="st10" d="M284.16,2686.81c5.44.5,11.39.99,16.45,3.19,8.49,3.67,15.44,11.64,18.22,20.44,2.52,7.99,2.6,18.77-1.66,26.21-5.86,10.24-13.46,14.53-24.48,17.75-7.39.07-14.31-.94-20.85-4.63-8.13-4.58-14.67-12.91-16.82-22.06-2.02-8.6.2-18.88,5.11-26.15,5.99-8.84,13.96-12.41,24.03-14.76Z"/>
  <path class="st3" d="M2265.06,1260.65c5.26-.17,11.63.47,16.56,2.39,7.92,3.1,14.09,11.47,17.27,19.09,3.33,7.96,3.48,18.35-.32,26.18-5.24,10.78-12.77,15.22-23.84,18.79-7.22-.17-13.37-.44-20.12-3.29-8.76-3.69-15.83-12.01-18.83-20.95-2.72-8.09-1.44-17.21,2.68-24.64,5.89-10.61,15.42-14.85,26.61-17.57Z"/>
  <path class="st7" d="M3282.74,3032.79c6.74-.35,13.59-1.14,20.06,1.26,8.92,3.31,16.32,10,20.07,18.81,3.35,7.92,3.64,17.83.27,25.77-4.21,9.84-13.07,14.19-22.29,18.2-6.92.4-15.37,1.51-22.02-.8-8.24-2.87-13.92-8.24-17.64-16.06-3.9-8.2-4.81-18.12-1.43-26.67,4.25-10.78,12.91-15.92,22.99-20.51Z"/>
  <path class="st10" d="M2512.8,3263.03c6.89-.42,13.88-.64,20.43,1.94,9.02,3.55,15.26,12.22,18.22,21.13,2.63,7.93,1.95,19.31-2.1,26.59-5.52,9.9-13.25,13.68-23.83,16.53-6.29,0-12.13-.27-18.08-2.55-8.58-3.28-16.21-10.9-19.76-19.35-2.86-6.83-2.81-16.2.16-22.98,4.76-10.87,14.48-16.96,24.96-21.31Z"/>
  <path class="st6" d="M750.72,1050.37c6.87-.47,13.74-.96,20.26,1.7,7.74,3.16,14.19,10.56,17.28,18.2,3.78,9.34,4.46,20.18.14,29.48-4.7,10.11-13.03,13.76-22.95,17.56-4.91.11-10.4-.11-15.18-1.32-9.45-2.39-17.69-9.48-22.08-18.07-4.2-8.2-4.76-17.06-1.49-25.67,4.44-11.69,13.21-16.96,24.02-21.88Z"/>
  <path class="st10" d="M1920.17,887.93c6.39.06,12.97-.03,18.97,2.46,8.53,3.55,15.24,11.58,18.51,20.12,3.13,8.19,1.95,17.45-1.56,25.27-4.5,10.03-12.46,15.15-22.45,18.91-6.38.44-13.66.87-19.71-1.5-9.28-3.63-15.65-10.68-19.19-19.89-2.89-7.5-3.09-18.1.45-25.37,5.58-11.45,13.47-15.75,24.98-20Z"/>
  <path class="st10" d="M2630.31,1926.45c5.85-.78,12.22-1.28,18.04,0,8.75,1.94,16.24,9.07,20.53,16.64,4.6,8.12,5.7,18.09,2.9,27.01-3.75,11.92-11.65,16.69-22.1,22.1-6.12.34-13.82,1.31-19.77-.47-8.67-2.6-15.79-9.16-19.86-17.12-4.08-7.98-4.28-17.6-1.5-26.04,3.8-11.53,11.28-16.84,21.76-22.13Z"/>
  <path class="st10" d="M3006.39,2844.02c5.4-.21,11.87-.89,17.14.45,8.23,2.09,16.41,10.66,20.09,18.01,4.55,9.08,5.36,20.26,1.48,29.69-4.18,10.16-12.6,15.22-22.34,19.18-5.23.34-10.13.34-15.29-.75-8.92-1.89-16.63-7.42-21.28-15.3-4.87-8.26-6.38-18.51-3.49-27.7,3.97-12.63,12.36-17.99,23.69-23.57Z"/>
  <path class="st6" d="M717.31,3022.8c6.6-.29,14.38-1.2,20.67,1.07,8.01,2.88,14.59,9.02,17.99,16.83,3.61,8.3,3.9,18.42.32,26.77-4.91,11.46-12.32,17.33-23.65,21.65-6.04.28-13.02.31-18.76-1.64-8.01-2.73-14.9-9.3-18.52-16.89-4.35-9.12-5.2-18.67-1.36-28.05,4.36-10.64,13.39-15.42,23.31-19.74Z"/>
  <path class="st10" d="M102.08,2042.45c5.87.55,12.51,1.02,17.99,3.31,7.62,3.18,14.7,10.59,17.57,18.35,3.47,9.38,3.61,18.38-.97,27.42-5.26,10.37-13.52,14.32-24.01,17.97-6.97.06-14.99-.17-21.33-3.29-8.58-4.23-14.9-12.61-17.41-21.75-2.43-8.85-1.44-18.5,3.37-26.35,6.13-10,13.88-13.08,24.79-15.65Z"/>
  <path class="st4" d="M550.46,2469.54c5.86-.23,11.71.31,17.28,2.28,8.38,2.96,15.75,10.72,19.12,18.86,3.51,8.5,4.01,18.76-.14,27.14-5.45,10.98-14.85,16.3-26.16,19.58-4.88.16-9.28-.26-14.03-1.52-8.58-2.27-15.89-8.88-19.99-16.64-5.29-10-6.01-17.27-2.05-27.77,4.66-12.37,14.66-17.26,25.98-21.93Z"/>
  <path class="st4" d="M2718.14,1578.61c5.91-.34,11.43-.17,17.16,1.47,8.94,2.55,16.26,8.93,20.39,17.24,4.1,8.28,5.33,18.54,2.08,27.33-4.17,11.28-13.15,16.75-23.51,21.65l-1.85.03c-4.89.16-9.95.62-14.74-.65-8.55-2.27-16.55-8.64-20.71-16.44-4.6-8.6-5.63-19.75-2.05-28.92,4.61-11.82,12.23-16.66,23.24-21.71Z"/>
  <path class="st10" d="M789.06,2130.45c5.68.59,11.86,1.03,16.91,3.95,7.68,4.44,14.96,13.28,16.83,22.04,1.95,9.19.03,19.57-5.31,27.33-6.52,9.47-15.7,13.41-26.54,15.8-4-.53-8.32-.95-12.08-2.48-9.29-3.81-17.74-12.92-20.91-22.43-2.86-8.6-1.59-19.91,3.26-27.62,6.82-10.83,15.97-14.38,27.84-16.59Z"/>
  <path class="st10" d="M1072.49,1434.43c5.61.31,11.95.58,17.12,2.94,8.04,3.66,15.61,11.85,18.19,20.31,2.97,9.74,2.5,20.8-2.87,29.64-5.78,9.53-13.81,13.6-24.24,16.45-4.83-.4-10.08-.64-14.66-2.34-10.18-3.78-17.5-12.18-21.25-22.21-3.2-8.56-1.61-18.59,2.62-26.5,5.56-10.4,14.23-14.88,25.08-18.28Z"/>
  <path class="st6" d="M2786.28,651.18c5.06-.39,10.19-.67,15.17.55,9.91,2.43,17.87,10.4,22.57,19.16,3.73,6.93,5.04,17.93,2.2,25.44-4.69,12.41-14.22,17.47-25.7,22.12-5.67.44-11.11.71-16.65-.86-8.53-2.43-15.99-8.9-20.05-16.7-4.31-8.27-5.06-18.51-1.71-27.54,4.43-11.92,13.32-17.01,24.15-22.16Z"/>
  <path class="st6" d="M2170.11,1121.51c5.52-.35,11.27-.91,16.68.51,8.76,2.29,17.05,8.33,21.43,16.31,4.6,8.38,4.97,19.15,1.79,28.11-3.9,10.98-13.36,17.03-23.31,21.8-5.48,1.15-11.48,1.61-17.01.5-8.27-1.67-15.92-8.54-19.97-15.68-5.2-9.17-6.01-18.58-2.79-28.59,3.8-11.84,12.73-17.66,23.19-22.96Z"/>
  <path class="st10" d="M510.31,81.37l1.86.02c5.91-.02,12.08-.46,17.76,1.47,8.35,2.85,14.86,9.78,18.6,17.63,4.12,8.67,4.29,20.19.64,29.05-4.35,10.57-12.7,15.08-22.64,19.23-6.97.46-13.64.45-20.28-2.02-8.34-3.1-14.57-8.84-18.05-17.09-3.87-9.13-4.07-19.98-.17-29.13,4.43-10.41,12.14-15.15,22.27-19.17Z"/>
  <path class="st9" d="M2518.85,179.28c5.55.42,11.25.64,16.42,2.89,7.42,3.24,14.73,10.4,17.54,18.08,3.3,9.01,3.38,19.16-.68,27.91-5.01,10.79-13.69,15.3-24.41,19.01l-10.22-.4c-8.28-.85-17.76-5.55-22.67-12.42-5.29-7.4-7.92-18.11-6.18-27.07l.41-1.92c.79-3.88,1.54-7.31,3.75-10.68,6.41-9.82,15.15-12.88,26.05-15.42Z"/>
  <path class="st10" d="M1494.12,2704.89c5.07-.16,10.7-.6,15.67.56,8.9,2.08,16.37,7.88,20.98,15.65,4.88,8.22,6.56,19.56,3.56,28.8-3.8,11.73-12.99,16.66-23.37,21.7-7.55.89-14.21,1.26-21.5-1.31-8.55-3.01-15.26-10.25-18.66-18.54-3.52-8.61-2.49-20.32,1.18-28.81,4.19-9.7,12.94-14.29,22.14-18.05Z"/>
  <path class="st6" d="M568.06,724.02c5.53.03,12.13,1.74,17.09,4.19,7.34,3.63,13.76,11.71,15.9,19.58,2.57,9.42,2.5,20.96-2.59,29.57-6.18,10.46-16.16,13.59-27.36,16.15-5.68-.67-12.56-2.06-17.6-4.82-7.36-4.04-13.25-11.21-15.6-19.27-2.96-10.15-2.83-20.62,3.02-29.77,6.43-10.06,16.16-13.05,27.14-15.63Z"/>
  <path class="st10" d="M424.76,3203.56c5.72.5,11.22.86,16.63,2.89,8.21,3.08,15.72,10.63,19.01,18.72,3.25,7.99,3.97,18.97.07,26.88-5.5,11.16-13.01,15.43-24.43,19.26-8.95.17-15.71.09-23.86-4.2-7.95-4.18-13.4-11.58-15.88-20.1-2.4-8.24-1.11-19.07,3.27-26.43,5.99-10.07,14.12-14.35,25.19-17.02Z"/>
  <path class="st10" d="M2338.95,2519.33c7.01-.35,13.79-.69,20.38,2.15,8.08,3.49,15.11,11.08,18.09,19.35,3.41,9.47,2.9,20.95-1.9,29.88-5,9.32-12.91,13.08-22.54,16.31-7.07.27-13.67.08-20.45-2.2-7.16-2.41-13.64-8.66-16.75-15.49-3.86-8.46-4.77-18.83-1.3-27.56,4.85-12.18,12.94-17.4,24.48-22.44Z"/>
  <path class="st10" d="M3009.79,2547.86c7.28.67,14.44,1.58,20.93,5.21,7.55,4.22,13.82,11.53,16.14,19.94,2.43,8.78,1.07,18.64-3.82,26.32-6.13,9.63-15.35,13.46-26.05,15.88-7.84-.09-15.84-1.62-22.68-5.59-7.78-4.52-12.63-11.74-14.65-20.43-1.91-8.24-.24-18.37,4.31-25.47,6.18-9.64,15.07-13.45,25.82-15.86Z"/>
  <path class="st10" d="M2010.79,2534.37c7.52-.42,16.11.18,22.95,3.56,7.52,3.72,14.9,12.29,17.46,20.26,2.52,7.84,2.58,19.01-1.58,26.32-5.72,10.05-13.69,14.3-24.43,17.48-4.55.09-9.83.58-14.26-.51-9.2-2.27-17.41-8.56-21.9-16.91-4.61-8.58-5.51-18.48-2.32-27.72,4.08-11.81,13.43-17.38,24.08-22.48Z"/>
  <path class="st4" d="M1675.09,3080.76c5.16-.16,11.07-.64,16.08.73,9.36,2.55,18.31,10.72,22.15,19.53,3.94,9.03,2.91,19.6-.94,28.46-4.34,9.98-13.46,14.92-23.01,18.79-5.92.18-12.28-.2-17.96-1.98-9.15-2.87-16.49-8.41-20.42-17.3-4.04-9.13-4.05-21.29.25-30.38,4.9-10.35,13.53-14.37,23.84-17.84Z"/>
  <path class="st4" d="M2635.72,427.4c7.44-.28,14.48-.21,21.41,2.87,8.44,3.75,14.29,10.84,17.52,19.41,2.93,7.76,3.53,17.17-.06,24.84-5.27,11.27-12.38,15.47-23.66,19.55-7.24.35-15.1.46-21.9-2.33-8.94-3.67-15.66-10.68-19.03-19.75-2.7-7.28-2.47-18.25.96-25.22,5.34-10.89,13.79-15.46,24.75-19.37Z"/>
  <path class="st10" d="M1210.93,761.96c6.17-.22,13.23-.97,19.08,1.29,8.46,3.26,16.64,10.58,19.95,19.12,3.45,8.89,3.94,18.37.1,27.23-4.82,11.13-13.23,16.35-24.06,20.9-11.44.23-20.66-.61-29.45-8.73-5.8-5.36-13.69-18.09-12.81-26.24l.65-2.54,2.81-9.57c4.66-11.26,12.95-16.75,23.72-21.45Z"/>
  <path class="st9" d="M3028.92,1520.69c6.24-.36,13.45.32,19.23,2.87,8.49,3.74,15.47,10.68,18.56,19.51,3.09,8.83,2.99,19.01-1.61,27.31-5.92,10.69-13.55,14.97-25.06,17.98-7.47.13-15.28-1.2-21.83-4.93-7.84-4.46-15.03-12.41-17.1-21.33-2.17-9.35-2.01-18.43,3.36-26.76,5.88-9.12,14.34-12.15,24.44-14.65Z"/>
  <path class="st6" d="M1364.94,3304.42c6.81-.63,13.95-1.31,20.44,1.35,9.28,3.8,17.11,12.96,20.47,22.26,3.12,8.65,1.78,19.64-2.3,27.79-4.28,8.55-12.01,13.08-20.64,16.3-5.78.6-12.49.93-18.16-.27-9.69-2.05-17.15-9.77-21.79-18.09-4.01-7.22-4.59-17.03-2.14-24.84,3.96-12.62,12.99-18.76,24.11-24.51Z"/>
  <path class="st10" d="M2643.85,2343.67c6.93-.28,13-.5,19.44,2.42,9.69,4.4,16.88,13,20.24,23.01,2.76,8.22,1.67,18.87-2.58,26.47-5.49,9.79-15.08,13.24-25.34,15.73-6.08.24-12.19-.55-18.03-2.26-7.98-2.34-15.08-9.56-18.54-16.93-4.12-8.76-4.93-17.43-1.08-26.47,5.18-12.19,14.21-17.3,25.9-21.97Z"/>
  <path class="st8" d="M2839,992.25l1.86-.03c5.25-.19,11.19-.89,16.31.5,9.66,2.63,17.95,10.84,22.08,19.72,3.66,7.88,4.06,19.59.82,27.69-4.13,10.29-13.3,14.7-22.83,18.82-7.5.88-14.17,1.25-21.45-1.2-8.63-2.9-15.53-8.84-19.29-17.2-3.93-8.73-3.63-20.09-.09-28.9,4.26-10.57,12.55-15.34,22.57-19.4Z"/>
  <path class="st10" d="M2045.98,3050.96c6.22.03,12.17.11,18.06,2.37,8.6,3.3,16.09,11.14,19.48,19.64,3.77,9.42,4.02,19.72-.57,28.88-5.3,10.57-14.27,15.06-25.05,18.51-5.89.24-11.67-.01-17.26-2.11-9.33-3.5-17.13-11.5-20.85-20.71-3.39-8.38-2.33-17.64,1.45-25.71,5.4-11.53,13.25-16.45,24.73-20.87Z"/>
  <path class="st10" d="M844.08,199.17l1.34.12c4.93.36,10.38.42,15.07,2.13,9.34,3.42,16.34,11.11,19.98,20.22,3.47,8.68,2.85,19.31-1.39,27.61-5.13,10.05-13.74,14.51-24.02,17.88-6.95-.12-14.52,0-20.95-2.9-9.02-4.08-16.82-12.62-19.72-22.14-2.55-8.41-.97-19.04,3.64-26.49,6.55-10.59,14.6-13.87,26.06-16.44Z"/>
  <path class="st6" d="M2116.29,715.68c5.23-.16,11.67.37,16.6,2.13,9.08,3.25,16.97,12.33,20.31,21.18,2.99,7.91,2.6,18.57-1.3,26.11-6.11,11.81-14.01,16.24-26.36,19.83-7.62.31-15.5-1.03-22.1-4.98-7.44-4.45-14.17-14.69-16.03-23.07-2.12-9.53-.73-18.25,4.52-26.47,5.76-9.01,14.44-12.21,24.36-14.73Z"/>
  <path class="st10" d="M123.54,907.93c5.19-.26,10.56.1,15.58,1.49,8.22,2.27,16.36,10.1,19.82,17.78,3.91,8.68,3.89,18.17.33,26.95-5.01,12.37-15.2,17.94-26.93,22.63-6.87.46-14.05-.13-20.29-3.23-8.97-4.46-15.44-12.3-18.4-21.81-2.76-8.86-1.44-17.7,3.14-25.66,6.23-10.82,15.17-14.97,26.75-18.16Z"/>
  <path class="st4" d="M1329.38,149.38c5.27.4,10.83.63,15.69,2.89,8.84,4.11,16.6,12.6,19.73,21.84,2.74,8.08,2.05,17.83-1.7,25.46-5.7,11.59-15.43,16.13-26.99,20.04-6.95-.28-13.21-.68-19.55-3.83-8.94-4.44-14.69-11.26-17.52-20.79-2.92-9.83-1.51-19.12,3.65-28.02,6.22-10.73,15.11-14.94,26.69-17.6Z"/>
  <path class="st6" d="M2054.25,2279.39c6.02.44,12.94.62,18.54,3.09,10.57,4.66,16.76,13.99,20.02,24.75,2.42,8.01.04,16.02-3.92,23.18-5.81,10.52-14.99,15.08-26.2,18.04-6.82-.04-13.37-.48-19.71-3.26-8.34-3.65-15.08-11.45-18.02-20.04-2.78-8.13-1.22-18.52,2.75-26.04,5.96-11.33,14.74-16.13,26.54-19.73Z"/>
  <path class="st6" d="M2958.95,324.73h1.44c5.53-.12,11.77-.75,17,1.35,9.02,3.63,16.29,12.1,19.75,21.02,3.6,9.27,2.77,19.21-1.61,28.11-4.87,9.9-12.49,14.88-22.5,18.68-6.01.18-13.02.88-18.75-1.19-9.54-3.45-16.54-10.99-20.28-20.32-3.65-9.12-4.2-20.1.11-29.12,5.12-10.73,14.13-14.95,24.85-18.53Z"/>
  <path class="st4" d="M296.94,1636.51c7.74-.37,14.51-.63,21.59,2.96,9.09,4.6,15.62,14.59,18.29,24.21,2.33,8.39,1.64,17.98-2.66,25.61-5.3,9.4-13.61,13.49-23.53,16.58-6.41.29-12.87,0-18.99-2.14-9.1-3.18-15.2-9.66-19.05-18.39-3.73-8.43-3.78-19.09-.3-27.62,5.01-12.26,12.92-16.62,24.65-21.21Z"/>
  <path class="st2" d="M1162.96,2582.48c6.09-.82,12.59-1.59,18.6.14,9.77,2.81,17.52,11.01,21.89,19.95,4.31,8.82,4.39,16.83,1.06,25.91-4.02,10.97-12.59,16.63-22.85,21.24-6.98,1.47-12.8,2.04-19.81.28-7.64-1.91-14.82-7.55-18.78-14.32-4.93-8.43-7.14-19.46-4.38-29,3.65-12.67,13.29-18.57,24.26-24.19Z"/>
  <path class="st4" d="M2366.72,2166.79c6.65-1.14,13.28-1.71,19.94-.19,8.57,1.96,16.38,8.44,20.94,15.85,4.86,7.91,5.93,17.48,3.51,26.37-3.49,12.82-11.39,18.53-22.42,24.65-6.39,1.32-12.95,1.96-19.42.71-8.17-1.57-16.31-7.66-20.65-14.67-4.57-7.37-7.32-19.18-4.68-27.69,3.94-12.7,11.46-19,22.78-25.04Z"/>
  <path class="st10" d="M1290.93,1686.52c5.04.31,10.52.51,15.3,2.28,9.17,3.38,17.7,11.19,21.38,20.29,3.32,8.22,3.31,16.45-.59,24.47-5.79,11.92-13.94,17.94-26.12,22.47-7.74.14-15.22.08-22.27-3.58-8.3-4.32-15.13-12.59-17.63-21.66-2.49-9.03-.68-21.29,4.84-28.98,6.84-9.52,14.13-12.73,25.09-15.27Z"/>
  <path class="st4" d="M1761.75,1524.04c5.58-.15,12.04.63,17.21,2.77,9.56,3.95,16.38,11.5,20.31,20.96,3.02,7.27,2.71,15.07-.45,22.27-5.32,12.13-14.66,17.77-26.59,22.19-8.64-.02-16.7-.22-24.53-4.32-8.07-4.22-15.06-12.5-17.29-21.37-2.17-8.64-1.55-16.48,3.17-24.2,6.75-11.05,16.06-15.3,28.18-18.3Z"/>
  <path class="st9" d="M518.96,2126.78c6.62.06,13.76-.64,20.11,1.58,9.33,3.26,17.13,10.78,20.83,19.98,3.55,8.82,3.73,19.25-.42,27.92-4.83,10.1-12.58,14.58-22.72,18.34-5.99.69-12.89.78-18.84-.28-7.21-1.28-14.53-6.99-18.56-12.97-5.34-7.93-8.08-16.55-6.39-26.06l.43-2.16c.5-2.59.98-5.05,2.14-7.45,5.05-10.5,12.86-15.06,23.42-18.89Z"/>
  <path class="st10" d="M3268.21,641.19c5.77-.12,11.91-1.12,17.61.03,9.29,1.87,17.57,7.51,22.43,15.68,5.15,8.65,6.17,21.22,3.07,30.75-3.69,11.39-13.28,17.12-23.45,21.92-5.47.58-11.12,1.34-16.58.33-9.25-1.72-17.98-7.69-22.81-15.77-4.71-7.88-6.38-17.83-3.83-26.72,3.87-13.5,11.82-19.86,23.57-26.22Z"/>
  <path class="st4" d="M1553.88,291.78c5.92-.35,13.03-1.12,18.84.32,8.71,2.16,16.39,8.14,21.04,15.71,4.98,8.09,6.68,20.24,4.11,29.39-3.41,12.15-14.28,18.49-24.73,23.81-5.38.3-10.59.56-15.85-.83-10.81-2.86-19.19-9.51-24.44-19.43-4.37-8.26-4.83-17.1-1.97-25.93,3.81-11.78,12.55-17.71,22.99-23.04Z"/>
  <path class="st10" d="M1319.35,2997.98c7.38.02,14.58-.02,21.38,3.23,8.35,3.99,15.38,11.8,18.18,20.67,2.52,7.97,2.49,18.7-1.64,26.11-5.92,10.61-14.62,16-25.94,19.41-7.77.38-14.86-.18-22.07-3.45-7.44-3.37-15.44-12.11-18.07-19.87-2.9-8.53-1.39-20,2.93-27.88,5.6-10.22,14.43-15.02,25.22-18.22Z"/>
  <path class="st4" d="M2093.01,352.99c4.98.47,9.83,1.23,14.56,2.95,8.95,3.26,16.21,10.17,20.13,18.82,4.71,10.42,4.53,18.2-.05,28.78-5.13,11.87-13.93,16.98-25.58,21.23l-2.15-.14c-6.44-.28-13.01.06-18.86-3.06-9.34-4.99-16.89-13.62-19.69-23.9-2.4-8.79-.58-18.64,3.9-26.48,6.48-11.35,15.59-15.31,27.74-18.22Z"/>
  <path class="st10" d="M3301.19,1323.5c7.39-.29,13.69-.55,20.65,2.15,8.88,3.45,16.23,10.89,19.91,19.68,3.28,7.75,3.98,18.88.66,26.67-5,11.83-13.91,17.15-25.47,21.42-5.47-.09-12.92.53-18.13-1.15-9.95-3.21-19.1-10.91-23.19-20.61-3.57-8.48-3.87-16.74-.39-25.29,4.78-11.79,14.8-18.13,25.97-22.87Z"/>
  <path class="st6" d="M2489.58,2931.86c6.32-.38,13.79-1.25,19.99.22,8.21,1.95,15.92,9.32,19.87,16.57,4.79,8.81,6.74,20.34,3.26,29.93-4.26,11.75-12.5,17.3-23.37,22.32-6.54.73-14.25,1.36-20.66-.26-7.94-2.01-15.91-7.69-20.03-14.78-5.04-8.67-6.16-21.46-2.95-30.86,4.33-12.7,12.31-17.74,23.89-23.14Z"/>
  <path class="st6" d="M3260.95,2479.53l.66.14c5.9.82,11.3,1.22,16.62,4.21,9.09,5.1,16.66,15.12,18.82,25.34,2.03,9.59.19,19.37-5.37,27.43-6.94,10.07-16.47,13.11-27.86,15.55-6.31-.87-13.2-1.71-18.94-4.63-6.57-3.34-13.77-10.23-16.03-17.44-2.98-9.56-2.74-20.85,2.16-29.76,6.91-12.58,16.54-17.32,29.93-20.84Z"/>
  <path class="st7" d="M1016.36,1765.91c5.01.58,10.7.97,15.41,2.83,9.3,3.67,17.87,12.98,21.75,22.04,2.98,6.96,2.71,18.21-.53,25.02-5.98,12.6-15.15,17.8-27.86,21.83-8.55-.2-16.68-.58-24.39-4.7-7.91-4.23-14.3-12.28-16.52-21-2.38-9.34-1-20.2,4.11-28.42,6.79-10.92,16.04-14.96,28.03-17.6Z"/>
  <path class="st0" d="M0,1058.28c12.28,6.99,23.72,14.99,35.25,23.11,12.93,9.12,27.42,16.23,31.62,32.74,1.99,7.8-.24,18.74-4.29,25.6-4.52,7.65-12.65,14.11-21.35,16.24-12.56,3.07-23.22-2.66-33.19-9.39l-8.03-5.8v-82.5Z"/>
  <path class="st4" d="M3392,2837.06l-68.54-63.09c-6.82-7.33-12.25-15.77-11.66-26.15.69-12.17,5.99-23.05,15.5-30.74,7.45-6.03,19.41-10.02,29.05-8.77,16.36,2.12,26.14,15.22,35.64,27.33v101.43Z"/>
  <path class="st0" d="M1059.53,0h101.15c10.22,11.32,26.7,25.3,26.38,41.6-.24,12.64-3.86,21.43-13.3,29.89-9.8,8.77-21.15,12.68-34.26,11.47-5.49-.51-10.31-2.08-14.71-5.45-9.31-7.13-16.11-18.05-23.48-27.06L1059.53,0Z"/>
  <path class="st6" d="M0,337.33l35.94-17.35c13.97-6.98,32.67-20.28,48.96-14.38,9.6,3.48,16.62,11.41,20.18,20.83,2.91,7.7,3.94,18.44-.13,25.96-7.32,13.54-30.33,20.82-43.72,27.53L0,410.09v-72.76Z"/>
  <path class="st10" d="M3086.76,3392c-12.19-11.96-37.71-32.56-37.73-50.28-.01-11.06,5.33-21.73,13.29-29.27,7.72-7.33,17.09-11,27.7-10.66,13.65.45,21.7,10.31,30.13,19.83l60.29,70.39h-93.68Z"/>
  <path class="st6" d="M3392,417.5l-37.96,19.1c-16.4,8.35-39.12,22.78-58.1,17.38-8.17-2.32-15.31-8.07-19.31-15.57-4.1-7.69-5.59-18.36-3.01-26.78l.57-1.72.58-1.83c2.2-6.29,7.05-11.57,12.51-15.29,11.83-8.05,27.24-13.14,40.19-19.34l64.53-31.65v75.69Z"/>
  <path class="st4" d="M3392,1810.77c-19.41-19.15-36.34-40.11-54.36-60.48-9.97-11.27-43.58-41.76-43.34-56.78.15-9.49,6.81-19.99,13.32-26.5,7.5-7.5,19.52-14.55,30.48-13.78,20.74,1.45,41.27,33.69,53.89,48.93v108.6Z"/>
  <path class="st4" d="M646.23,3392l-18.04-44.45c-5.6-14.24-15.42-31.4-9.24-46.74,4.09-10.14,12.77-16.73,22.69-20.66,9.74-3.86,22.41-5.77,32.25-1.28,19.15,8.74,29.01,47.54,36.72,65.9,6.57,15.67,14.17,31.27,19.9,47.24h-84.28Z"/>
  <path class="st4" d="M647.95,0h80.14l6.72,13.71,16.33,37.02c6.11,14.56,16.18,33.14,10.09,49.04-3.75,9.8-13.16,18.31-22.84,22.13-9.05,3.57-21.27,4.71-30.34.58-5.59-2.54-10.25-6.76-13.6-11.88-8.31-12.71-13.54-29.32-19.35-43.33-9.23-22.27-19.29-44.5-27.16-67.27Z"/>
  <path class="st10" d="M3089.77,0h92.04l17.29,16.85c10.81,11.16,20.81,23.32,30.75,35.26,4.81,5.78,11.68,12.98,14.08,20.16,1.17,3.48,1.16,7.48,1,11.11-.44,9.73-4.65,18.68-12.07,25.1-9.26,8.01-20.88,10.51-32.87,8.85-7.04-.97-12.38-5.5-17.45-10.15-13.05-11.96-24.37-27.17-35.94-40.59L3089.77,0Z"/>
  <path class="st4" d="M0,1681c25.73,16.7,48.92,37.34,72.71,56.65,12.11,9.83,26.81,19.66,37.16,31.1,4.73,5.23,8.73,12.08,10.44,18.95,2.67,10.71.06,21.49-6.07,30.44-5.79,8.43-13.37,13.29-23.47,14.82-13.18,2-21.23-2.71-31.3-10.53-19.65-15.28-38.28-32.07-59.48-45.21v-96.22Z"/>
  <path class="st1" d="M21.42,1748.17l4.25-.84,3.77,4.16c-1.4,5.38-2.49,5.09-7.08,7.86-4.18-.65-4.93-1.46-8.28-4.15,1.52-4.89,2.96-4.67,7.34-7.02Z"/>
  <path class="st0" d="M1063.51,3392l-33.83-39.88c-10.94-13.42-26.19-28.42-25.47-47.07.43-11.27,6.17-21.48,14.75-28.55,9.55-7.87,22.73-10.25,34.78-8.83,6,.7,12.33,4.43,16.77,8.39,13.09,11.67,24.17,28.92,35.23,42.68l59.92,73.27h-102.15Z"/>
  <path class="st4" d="M0,2731.88l83.75,77.37c13.99,12.88,31.83,25.35,43.32,40.33,3.42,4.46,5.68,10.01,6.21,15.62.98,10.44-2.7,21.06-9.85,28.67-7.86,8.36-19.38,15.13-31.15,14.69-19.03-.71-38.41-20.89-51.86-32.91l-40.42-37.32v-106.44Z"/>
  <path class="st11" d="M3392,1149.1l-107.79-72.05c-15.55-10.22-35-19.78-48.74-32.11-5.22-4.68-10.29-11.85-12.53-18.53-3.6-10.73-4.06-21.18,1.3-31.32,4.01-7.59,12-13.58,20.36-15.61,10.19-2.47,21.51-.05,30.83,4.16,14.79,6.68,28.19,18.54,41.78,27.51l74.8,47.34v90.62Z"/>
  <path class="st0" d="M3276.34,1021.08l3.69-.22c3.88,2.52,8.11,4.55,10.11,8.91l-3.89,2.9-7.71,4.09-2.96-2.43c-1.25-5.5-1.48-8.01.76-13.25Z"/>
  <path class="st1" d="M1575.11,0h86.82l64.9,127.15,1.13,2.86,1.02,2.5c3.58,9.19,3.02,19.77-1.19,28.68-4.53,9.6-11.27,14.73-21.27,18.2-11.53,3.99-25.31,4.14-36.2-1.93-5.73-3.19-10.15-8.35-13.61-13.83-12.73-20.13-22.38-43.92-33.27-65.17l-28.28-54.59c-7.63-14.36-15.92-28.05-20.05-43.88Z"/>
  <path class="st10" d="M2771.84,2186.35c7.69-.14,14.06.97,21.11,4.16,15.93,7.21,30.56,19.18,45.75,28.03l71.87,41.88c10.85,6.23,22.45,11.17,32.59,18.6,5.71,4.19,10.61,9.67,12.8,16.54,2.78,8.7,2.89,21.62-1.82,29.74-6.07,10.44-14.57,14.09-25.71,17.16-5.85-.94-11.59-1.96-17.05-4.32-12.47-5.38-24.29-13.49-36.05-20.3l-65.75-37.92-34.92-19.75c-6.98-3.86-15.1-7.2-21.26-12.3-4.68-3.87-7.98-9.24-9.95-14.93-3.07-8.87-3.11-18.11,1.31-26.58,5.87-11.25,15.43-16.46,27.1-20.02Z"/>
  <path class="st10" d="M3067.44,1755.77c5.29-.27,10.14-.33,15.33.86,10.85,2.5,19.59,7.98,25.18,17.89,3.64,6.45,5.69,15.94,3.31,23.18-4.15,12.67-114.39,129.62-127.97,142.65-4.39,4.21-9.23,7.39-14.51,10.38-6.58,1.69-13.63,2.64-20.26.73-8.01-2.31-15.64-7.59-19.57-15.09-4.75-9.08-6.24-20.74-2.48-30.43,5.23-13.49,18.59-23.99,28.26-34.46l56.23-60.33c14.35-15.41,27.71-32.35,43.12-46.7,4-3.72,8.42-6.4,13.36-8.69Z"/>
  <path class="st8" d="M173.72,16.79c5.78.05,12.49.64,17.64,3.45,5.28,2.88,9.92,7.41,13.71,12.06,16.32,20,30.4,43.11,45.27,64.27,12.23,17.39,45.61,56.65,49.26,76.51,1.48,8.08.69,16.02-3.92,22.89-7.9,11.76-20.45,16.2-33.57,19.13-7.05.42-12.74-.06-18.89-3.86-10.69-6.61-17.75-20.55-24.66-30.71l-28.3-40.81-33.74-47.39c-6.92-9.65-17.09-21.49-19.43-33.26-1.71-8.59,2.32-17.27,6.98-24.27,7.41-11.14,17.12-15.26,29.66-18.01Z"/>
  <path class="st8" d="M499.22,1782.4c6.85-.41,13.86.56,19.83,4.1,9.54,5.66,17.61,15.1,20.24,26.03,2.01,8.38,1.23,16.71-3.05,24.17-7.11,12.42-23.32,23.42-34.33,32.76l-57.09,48.84c-13.75,11.8-26.87,25.78-41.63,36.21-4.6,3.25-9.37,5-14.75,6.47-5.35-.65-10.71-1.38-15.76-3.35-11.2-4.35-19.57-14.27-23.72-25.33-2.76-7.34-1.77-16.29,1.83-23.18,7.01-13.42,20.85-23.78,32.12-33.6l58.69-49.7c13.7-11.77,26.88-25.83,41.64-36.15,4.87-3.41,10.43-5.35,16-7.26Z"/>
  <path class="st3" d="M1772.08,1153.01c7.92.34,14.54,1.33,21.61,5.12,12.68,6.8,23.61,23.63,33.27,34.36l49.92,54.2c8.59,9.42,18.73,18.28,26.57,28.26,3.27,4.15,6.14,9.4,7.42,14.56,2.25,9.1.77,20.6-4.26,28.6-6.96,11.06-17.36,15.92-29.63,18.55-7.87.12-15.63-.15-22.75-3.93-11.01-5.83-19.76-17.9-27.93-27.07l-37.93-42.43c-14.73-15.98-31.33-31.29-44.95-48.15-3.36-4.16-6.06-8.5-7.37-13.72-2.2-8.79-.33-19.38,4.32-27.08,7.7-12.75,17.72-17.91,31.72-21.27Z"/>
  <path class="st7" d="M2647.95,2549.18c5.58-.39,11.35-.24,16.45,2.36,7.06,3.61,11.62,10.18,15.57,16.82,6.5,10.95,11.18,23.55,16.22,35.26l26.67,63.23c7.1,16.7,16.41,32.74,22.25,49.93,3.37,9.9,3.79,14.91-1.52,24.52-7.35,13.3-20.4,18.38-34.28,21.76l-12.93-.62c-9.26-1.64-17.89-9.77-22.9-17.34-6.78-10.25-11.25-22.51-16.02-33.79l-25.01-60.36c-7.5-17.79-16.99-35.23-23.05-53.54-1.68-5.07-2.79-9.79-1.6-15.11l.48-1.87c.83-3.46,1.69-6.37,3.6-9.42,8.25-13.15,21.78-18.3,36.08-21.83Z"/>
  <path class="st7" d="M1685.57,783.8c7.81-1.12,16.91-2.37,24.2,1.49,9.68,5.12,15.21,13.37,17.79,23.79,2.88,11.63.76,23.12-6.27,32.95-2.92,4.07-11.42,8.13-16.08,9.68-16.95,5.64-37.95,6.7-55.68,9.79l-124.95,22.99c-8.16,1.56-14.98,1.79-22.45-2.39-10.01-5.59-17.68-13.66-20.43-25-2.28-9.35,0-19.72,5.43-27.59,4.6-6.66,10.48-10.32,18.07-12.9,23.71-8.06,51.56-10.11,76.31-14.08l104.06-18.73Z"/>
  <path class="st10" d="M1877.49,341.62c5.78.67,11.35,1.38,16.66,3.91,9.53,4.53,18.02,14.16,21.04,24.35,2.69,9.11,1.82,20.64-3.23,28.72-7.56,12.09-23.87,20.33-35.65,28.09l-59.38,39.05c-18.14,12.05-36.25,26.15-55.1,36.91-4.82,2.75-9.92,4.16-15.28,5.42-6.11-.69-12.99-1.36-18.57-4.1-10.49-5.17-17.98-15.64-20.89-26.79-2.6-9.96-1.37-19.35,4.16-28.02,2.14-3.35,4.57-6.44,7.68-8.96,14.44-11.7,32.72-20.76,48.29-31.1l56.43-37.44c11.52-7.82,22.92-16.52,35.01-23.38,6-3.4,12.15-5.19,18.83-6.66Z"/>
  <path class="st3" d="M197.23,1367.01l112.49,4.34c20.1.81,47.28-1.81,66.25,5.05,8.85,3.2,16.16,10.77,19.8,19.37,4.03,9.51,4.19,21.95-.18,31.38-5.49,11.86-15.34,18.15-27.17,22.55-31.49.67-63.44-2.35-94.94-3.69-24.93-1.06-51.37-.22-76.01-3.78-4.77-.69-9.56-2.75-13.68-5.18-8.64-5.1-17.03-15.09-19.19-25.09-2.24-10.38-.02-21.28,6.3-29.81,6.8-9.18,15.32-13.37,26.33-15.13Z"/>
  <path class="st2" d="M722.84,1298.73c5.89.23,12.62.59,18.16,2.73,9.07,3.5,17.54,12.37,21.37,21.19,3.52,8.11,3.59,18.81-.3,26.84-5.3,10.96-17.8,21.08-26.44,29.72l-63.73,61.95c-14.13,13.51-28.62,29.91-44.2,41.55-5.19,3.88-10.56,6.07-16.67,8.07-6.62.11-12.77-.33-18.98-2.87-9.17-3.74-17.25-10.42-20.9-19.87-3.73-9.68-4.08-18.92.67-28.27,7.07-13.92,22.9-26.4,34.13-37.17l61.22-58.46c12.41-11.93,24.4-26.62,37.96-36.99,5.49-4.19,11.14-6.42,17.69-8.43Z"/>
  <path class="st4" d="M2397.22,879.54c19.98-1.3,48.38,14.55,67.28,21.4l102.7,37.52c11.74,4.75,21.32,9.22,26.12,21.76,3.91,10.22,2.79,23.33-1.84,33.12-5.42,11.46-13.61,16.63-25.16,20.86-21.81-.21-43.66-12.75-64.04-20.09l-105.69-38.4c-11.87-4.44-22.9-9.96-27.93-22.44-3.78-9.38-2.21-21.72,1.81-30.8,5.72-12.91,14.35-17.94,26.75-22.93Z"/>
  <path class="st2" d="M1595.44,1838.58l.69.02c7.47-.26,13.58-.88,20.63,2.31,10.29,4.65,16.75,13.41,20.15,23.98,3.18,9.89,1.99,20.66-3.12,29.6-3.86,6.75-8.92,11.47-15.73,15.18-14.39,7.85-32.1,11.65-47.61,17.09l-117.18,39.98c-7.98.81-16.34-.31-23.55-3.93-9.08-4.55-16.46-13.72-19.29-23.49-2.83-9.78-.66-20.26,4.19-28.96,3.86-6.92,9.56-11.57,16.52-15.2,9.51-4.96,20.59-7.67,30.74-11.06l47.81-15.94c28.64-9.61,56.63-21.61,85.76-29.6Z"/>
  <path class="st4" d="M2344.46,0h77.76l1.74,6.4c2.71,11.92.9,21.99-5.9,32.09-12.42,18.45-32.96,34.59-48.6,50.84l-50.79,53.13c-9.44,9.89-18.78,20.93-29.17,29.76-4.14,3.52-7.68,5.48-13.13,6.3-9.72,1.45-22.05-2.85-29.46-9.12-8.95-7.56-15.82-19.61-16.27-31.45-.26-6.65.13-12.33,3.47-18.17,8.59-15.05,25.45-29.35,37.42-42.09L2344.46,0Z"/>
  <path class="st11" d="M855.2,669.39c6.75-.38,12.46-.11,18.82,2.42,8.59,3.42,16.8,9.32,24.63,14.22l42.84,27.02,52.73,33.61c10.42,6.58,21.75,12.81,31.48,20.37,4.8,3.73,8.74,8.11,10.89,13.88,3.63,9.74,1.47,20.79-2.77,29.95-5.4,11.67-14.99,18.1-26.77,22.17-6.04.77-13.98,1.6-19.62-1-11.05-5.09-21.84-13.08-32.29-19.49l-81.01-51.51c-11.49-7.32-25.88-13.48-36.27-22.03-4.76-3.92-8.81-10.35-11.03-16.04-4.78-12.2-4.25-20.31,1.49-32.07,5.93-12.15,14.75-16.99,26.89-21.49Z"/>
  <path class="st10" d="M986.88,2880.53c8.07,0,15.19.42,22.32,4.6,5.98,3.5,10.48,9.47,13.72,15.49,10.53,19.61,17.33,42.86,26.14,63.44l28.08,63.69c6.25,13.82,14.05,28.07,17.4,42.94,1.97,8.75,1.1,18.1-3.88,25.66-7.35,11.16-16.99,15.69-29.61,18.39-6.37-.23-14.18.01-19.86-3.19-6.09-3.44-11.52-10.12-15.11-16.03-15.45-25.42-25.41-56.6-37.06-83.96-12.12-28.49-27.76-57.7-36.09-87.42-2.32-8.28-1.89-17.45,2.73-24.89,7.18-11.54,18.66-15.72,31.22-18.74Z"/>
  <path class="st3" d="M328.53,1017.35c29.33-2.3,64.75,8.53,93.81,13.38l56.52,9.54c10.88,1.85,22.4,3.15,32.91,6.59,10.95,3.57,19.38,11.33,24.07,21.85,3.82,8.58,4.65,20.91.86,29.6-5.16,11.87-16.57,18.98-28.27,23.15-12.93,2.29-27.76-1.35-40.55-3.48l-77.07-14.41c-21.42-3.91-50.47-5.03-69.9-14.45-9.74-4.72-16.13-12.78-19.6-22.87-3.22-9.35-2.82-21.79,1.72-30.58,5.58-10.8,14.42-14.85,25.49-18.31Z"/>
  <path class="st8" d="M2779.24,2997.97c6.2-.28,12.57-.6,18.75.13,14.47,1.71,28.93,6.03,43.05,9.55l58.91,13.94c21.15,4.93,44.85,7.09,64.98,15.17,6.13,2.46,11.5,6.65,15.39,11.98,5.86,8.04,8.29,19.97,6.73,29.72l-.39,2.16c-.55,3.12-1.11,6.16-2.33,9.11-4.73,11.41-13.13,17.47-24.28,21.82-23.92.34-50.76-8.92-74.06-13.86-36.26-7.7-74.89-13.92-110.11-25.28-9.4-3.03-17.37-10.09-21.51-19.11-5.02-10.92-3.63-20.59.54-31.67,4.75-12.62,12.26-18.3,24.34-23.65Z"/>
  <path class="st4" d="M2576.83,1220.8c6.79-.21,13,.78,19.35,3.35,8.81,3.57,15.48,11.9,19.05,20.52,1.77,4.26,2.62,8.72,2.46,13.33-1.07,31.46-7.45,64.46-11.44,95.69l-7.2,58.14c-1.49,10.32-2.85,22.82-7.53,32.24-6.09,12.28-15.63,17.53-28.26,21.46-8.58.31-16.39-.2-24.09-4.41-9.32-5.09-15.03-13.81-17.36-23.99-3.44-15.09,1.97-37.09,3.7-52.44,4.71-41.9,7.61-85.71,15.64-126.98,1.29-6.62,3.42-13.33,7-19.09,6.64-10.69,17.08-14.91,28.69-17.82Z"/>
  <path class="st6" d="M902.91,2519.39c9.09-.44,16.39-.51,24.94,2.88,10.3,4.08,17.93,12.02,22.21,22.16,3.38,8.02,3.08,16.78-.2,24.76-6.42,15.63-19.27,31.17-28.16,45.84l-47.82,78.78c-8,13.23-15.58,29.02-25.68,40.72-4.46,5.16-9.87,7.48-16.07,10-6.47,1.27-11.65,1.63-18.09-.08-11.69-3.1-21.6-11.32-27.35-21.95-3.3-6.1-4.8-14.74-2.48-21.46,5.99-17.32,19.21-34.26,28.6-50.17l46.6-77.08c8.61-14.05,16.36-29.37,26.77-42.16,4.66-5.72,10.33-8.83,16.73-12.25Z"/>
  <path class="st3" d="M3075.23,651.15c7.04.37,13.4.87,19.78,4.2,8.28,4.33,16.91,16.24,19.15,25.28,1.23,4.92,1.26,9.32.48,14.32-2.92,18.63-8.46,36.91-12.5,55.33l-20.23,94.32c-2.8,12.11-4.23,27.51-10.98,38.05-6.98,10.9-17.23,15.75-29.38,18.5l-1.38-.21c-5.78-.79-11.07-1.45-16.39-4.03-9.87-4.79-17.51-12.99-20.71-23.52-2.04-6.71-1.05-13.43-.02-20.23,2.58-17.2,7.97-33.97,11.68-50.96l20.62-94.95c2.94-12.26,4.97-26.69,11.61-37.52,6.95-11.34,16.03-15.49,28.28-18.59Z"/>
  <path class="st10" d="M2461.66,1621.72c6.12-.68,13.32-1.16,19.4-.02,11.29,2.12,21.6,9.26,27.41,19.19,4.52,7.72,6.58,18.37,4.12,27.09-1.55,5.5-4.95,9.79-8.59,14.07-11.16,13.08-25.29,24.24-37.54,36.39l-52.68,50.91c-10.86,10.65-21.29,22.3-32.85,32.17-4.64,3.97-9.87,6.96-15.18,9.92-8.11,1.79-14.62,2.41-22.68-.06-10.9-3.35-19.67-10.93-24.81-21.06-4.66-9.2-5.04-21.01-1.07-30.55,5.88-14.11,19.21-24.76,30.07-35.09l48.54-45.98c16.41-15.72,32.16-33.01,49.63-47.52,4.88-4.05,10.47-6.88,16.22-9.45Z"/>
  <path class="st0" d="M461.98,2759.79c8.57-.07,18.23.95,25.62,5.61,8.16,5.14,12.75,13.54,14.83,22.74,4.19,18.56-1.75,45.99-3.17,65.55-2.85,39.28-3.97,80.04-9.14,118.99-.73,5.46-2.33,11.4-5.42,16.01-6.99,10.44-15.94,13.3-27.62,15.9-8.88-.23-18.51-1.82-26.12-6.66-7.79-4.97-15.09-13.64-16.9-22.9-1.58-8.1.55-18.24,1.05-26.48l6.81-87.03c1.79-23.47,1.59-47.45,4.94-70.75.84-5.81,2.04-11.9,5.4-16.84,6.91-10.2,18.4-12.43,29.71-14.15Z"/>
  <path class="st4" d="M1862.95,1969.31c6.44.07,12.65,1.54,18.47,4.34,14.54,7,20.66,18.96,25.52,33.53-3.79,15.09-11.91,27.4-19.83,40.6l-27.17,45.05-47.47,78.96c-7.68,11.74-15.41,16.12-28.92,18.84-8.28-.44-16.1-.98-23.78-4.47-9.18-4.17-15.68-11.9-18.76-21.46-4.31-13.41-.56-22.25,6-34.16l57.08-95.2c10.51-17.16,20.42-38.08,34.4-52.44,7.47-7.67,14.29-10.64,24.47-13.6Z"/>
  <path class="st4" d="M1602.96,2282.71c6.99-.29,14.29.82,20.53,4.07,6.09,3.17,10.72,8.5,14.73,13.96,13.19,17.93,23.88,38.89,35.77,57.8l36.63,57.84c6.68,10.43,16.44,22.68,19.86,34.59,2.84,9.89,2.13,19.75-2.99,28.81-7.16,12.63-17.31,16.3-30.56,19.74-9.06.09-16.65-.09-24.94-4.46-4.89-2.58-9.5-7.78-12.77-12.15-11.67-15.56-20.96-34.13-31.38-50.67-18.75-29.76-39.32-59.19-55.8-90.25-3.31-6.24-5.57-12.84-7.83-19.51,1.9-7.1,3.56-15.66,7.66-21.83,7.44-11.19,18.63-15.25,31.1-17.92Z"/>
  <path class="st8" d="M3062.74,1164.58c6.78-.82,14.87-1.44,21.36.99,11.02,4.12,20.4,13.56,25.36,24.09,3.5,7.42,3.93,15.92.81,23.56-6.57,16.07-22.97,32.83-33.41,46.79l-53.24,69.46c-9.87,12.69-19.52,26.58-30.56,38.18-4.71,4.95-9.52,8.09-15.7,10.89-6.28.77-12.87.87-18.97-1.07-10.53-3.36-20.53-10.92-25.53-20.87-4.58-9.12-5.37-19.89-1.79-29.53,5.56-14.99,19.5-28.87,29.55-41.07l40.15-50.57c14.85-19.3,29.01-42.18,45.5-59.86,4.69-5.03,10.42-7.94,16.48-10.96Z"/>
  <path class="st3" d="M1137.48,2017.66c4.61.2,9.6.37,14.05,1.64,5.97,1.71,11.41,6.86,15.28,11.56,12.56,15.29,22.83,33.61,34.56,49.73l52.23,72.95c8,11.1,17.51,21.64,24.31,33.48l1.21,2.18,3.49,6.98c2.97,8.25,1.21,19.3-2.81,26.94-6.54,12.47-16.27,17.67-29.33,21.42-5.57-.03-12.19.33-17.39-1.98-5.11-2.27-9.46-6.65-13.05-10.82-9.99-11.57-18.43-25.44-27.38-37.93l-54.58-77.12c-11.37-16.31-30.31-36.07-35.8-54.9-2.34-8.01-.48-17.18,3.87-24.19,7.27-11.73,18.55-16.75,31.35-19.94Z"/>
  <path class="st1" d="M1316.67,424.23c5.73-.27,12.17.59,17.48,2.81,6.36,2.65,11.98,7.12,16.11,12.62,7.2,9.59,12.37,21.72,17.93,32.38l28.07,53.38c12.16,22.91,28.74,46.63,37.78,70.82l.89,2.5c3.83,10.59,3.9,16.69-.74,27.05-6.02,13.45-19.15,19.52-32.27,24.03-8.31,0-15.5-.35-23.08-4.32-5.05-2.64-9.47-6.97-12.73-11.61-7.5-10.7-13.16-23.6-19.42-35.12l-44.22-83.73c-6.99-13.32-19.71-30.67-23.25-44.96-2.21-8.93.62-19.78,5.7-27.3,7.53-11.15,19.17-15.68,31.76-18.54Z"/>
  <path class="st11" d="M2777.09,0h73.93l1.61,6.39c3,12.56,5.38,17.04-2.12,28.62-6.84,10.56-16.98,19.81-25.29,29.31l-53.95,61.57c-15.85,17.97-30.95,39.96-48.86,55.76-6.05,5.33-12.65,9.44-20.71,10.85-11.33,1.98-22.79-2.23-31.57-9.32-8.44-6.8-13.91-17.45-14.73-28.3-.51-6.76,3-14.21,6.42-19.81,9.44-15.48,23.62-29.31,35.38-43.1L2777.09,0Z"/>
  <path class="st5" d="M2347.27,493.87c5.11-.27,10.88-.94,15.91.16,6.17,1.35,13.86,5.73,18.79,9.69,7.55,6.08,14.24,13.75,21.24,20.49l41.93,40.05,41.11,38.01c6.57,6.29,14.23,12.78,18.62,20.81l1.09,2.16,1.98,4.14c3.62,9.92,1.77,25.37-3.19,34.39-6.6,11.99-15.96,16.93-28.75,20.7-7.05-.06-15.35.68-21.64-2.91l-1.46-.89c-12.65-7.01-23.88-21.46-34.78-31.36l-66.18-61.57c-8.4-7.75-17.7-14.88-25.74-22.98-4.5-4.53-8.23-9.69-10.69-15.6-3.92-9.41-3.71-19.53.39-28.88,6.56-14.96,16.7-20.94,31.38-26.42Z"/>
  <path class="st4" d="M214.58,2257.57c6.1-.25,12.47.37,18.2,2.59,10.39,4.04,19.31,13.29,23.06,23.81,3.45,9.65,2.77,19.06-2.02,28.07-8.32,15.65-22.9,30.06-33.9,44l-58.1,72.09c-9.3,11.26-18.45,24.36-29.47,33.89-4.93,4.26-10.7,6-16.86,7.74-7.99-.18-16.64-.97-23.93-4.43-8.78-4.16-16.55-13.93-19.51-23.12-3.18-9.86-1.94-21.33,2.99-30.37,11.23-20.62,31.82-40.63,46.95-58.73l49.78-58.8c8.53-9.73,16.97-20.63,26.64-29.2,4.66-4.13,10.3-5.79,16.16-7.53Z"/>
  <path class="st0" d="M3234.9,2041.09c4.88.62,9.67,1.14,13.75,4.12,4.15,3.03,7.66,7.1,10.17,11.57,12.87,22.96,21.26,50.98,31.29,75.53l29.32,71.43c4.54,11.65,10.57,24.08,12.59,36.46,1.26,7.67-.2,14.27-4.87,20.57-9.97,13.47-26.75,19.02-42.58,21.59-4.13-1.08-8.85-1.96-12.59-4.08-4.61-2.62-7.63-8.01-9.99-12.54-9.27-17.79-15.46-37.97-23.23-56.52l-38.37-91.91c-4.82-11.63-12.88-26.21-15.17-38.51-.95-5.1,1.79-11.61,4.67-15.7,9.87-13.97,28.82-19.78,45.02-22Z"/>
  <path class="st0" d="M1721.81,2851.67c22.22-23.8,50.64-44.6,75.5-65.8,21.67-18.48,43.89-40.93,67.71-56.31,5.62-3.63,12.47-6.15,19.18-6.48,11.46-.56,22.99,3.57,31.13,11.7,7.49,7.47,11.39,18.33,11.16,28.84-.3,13.81-7.8,21.43-17.31,30.31l-88.91,75.58c-14.39,11.88-44.66,44.07-63.73,43.38-12.31-.45-24.8-5.46-32.77-15.07l-.5-.82c-4.24-5.45-7.17-10.46-8.32-17.37-1.76-10.51.72-19.4,6.85-27.95Z"/>
  <path class="st1" d="M1078.47,1043.73c7.99-.83,17.65-1.39,25.08,2.01,15.4,7.04,124.48,140.32,129.72,156.04,3.5,10.49,2.38,21.68-3.14,31.31-5.98,10.42-15.66,15.56-26.73,19.03-6.26.39-14.73,1.2-20.83-.48-5.11-1.41-9.21-4.64-12.93-8.27-17.22-16.83-31.89-38.11-47.44-56.6l-46.6-55.39c-8.85-10.51-20.27-21.69-26.11-34.14-4-8.52-4.19-18.97-.77-27.66,5.5-13.99,16.59-20.4,29.76-25.83Z"/>
  <path class="st8" d="M1053.63,242.01c9.43-.52,18.15-.89,27.2,2.52,9.04,3.4,15.61,9.16,19.61,17.99,2.62,5.77,3.53,11.76,2.87,18.05-3.56,33.36-13.7,67.85-20.28,100.91l-10.88,59.42c-2.03,10.95-3.49,23.72-7.98,33.96-4.54,10.37-13.91,15.33-23.99,19.08-6.67.64-14.62.48-21.18-1.23-10.58-2.77-21.79-10.25-26.57-20.38-2.17-4.6-2.16-9.42-1.64-14.38,2.55-24.39,9.66-49.5,14.31-73.7l15.31-81.18c2.66-13.39,4.62-29.5,10.25-41.97,4.82-10.69,12.67-14.96,22.97-19.09Z"/>
  <path class="st4" d="M1523.9,1363.23c8.24-.15,16.67-1.31,24.46,2.04,10.32,4.44,19.85,12.78,23.76,23.56,3.77,10.4,3.11,16.68-1.57,26.76l-55.4,109.62c-9.49,18.63-18.32,42.02-31,58.33-4.89,6.28-11.39,8.77-18.65,11.43-6.76.23-14.14.84-20.68-1.1-11.29-3.35-21.56-10.52-26.88-21.27-4.3-8.7-4.99-18.91-1.38-27.95,7.28-18.23,18.52-36.16,27.38-53.8l36.31-71.58c6.77-13.46,13.05-30.43,22.51-42.12,5.83-7.21,12.85-10.44,21.14-13.93Z"/>
  <path class="st8" d="M771.34,1678.02c8.66-.4,16.92-1.03,25,2.82,6.24,2.97,11.01,7.68,14.43,13.65,6.02,10.52,10.09,22.78,14.6,34.04l26.87,69.05c9.34,23.66,21.36,47.19,28.74,71.49,2.85,9.38,3.82,19.73-1.22,28.55-7.09,12.4-18.19,18.31-31.51,21.96-8.81.41-18.12,1.2-26.25-2.83-5.53-2.74-9.06-6.66-12.06-11.98-5.73-10.15-9.4-21.88-13.91-32.66l-29.77-74.29c-9.24-23.18-21.64-46.28-28.97-70.06-3.04-9.86-2.47-20.8,2.97-29.81,7.28-12.05,18.37-16.21,31.07-19.93Z"/>
  <path class="st4" d="M620.56,387.71c8.37-1.12,16.83-1.07,24.76,2.11,10.05,4.04,17.66,13,21.72,22.87,3.8,9.23,4.76,20.16.65,29.48-3.53,8-9.73,14.47-17.01,19.16-20.82,13.4-47.53,22.27-70.1,32.74-34.1,15.82-68.35,34.84-103.5,47.9-9.35,1.62-17.42,1.98-26.2-2.23-10.02-4.79-17.25-13.86-20.88-24.22-3.44-9.84-2.09-22.34,2.93-31.45,3.34-6.06,8.45-11.32,14.15-15.19,22.38-15.19,51.58-25.44,76.22-37.05l59.69-27.7c12.47-5.84,24.36-12.26,37.56-16.42Z"/>
  <path class="st11" d="M2285.65,2844.17c7.44-.89,16.02-1.49,23.37.07,11.37,2.41,21.63,8.88,27.85,18.79,5.49,8.75,6.25,17.86,3.55,27.73-8,29.31-22.15,59.08-33.27,87.45l-25.82,64.11c-4.43,10.65-8.21,22.26-14.33,32.05-5.06,8.1-11.28,12.81-19.44,17.51-7.24.38-14.55.96-21.69-.66-12.17-2.77-22.12-8.61-28.84-19.33-4.9-7.82-6.42-15.49-4.05-24.4,4.57-17.22,11.83-34.01,18.29-50.59l28.19-72c8.59-21.13,16.17-45.83,28.39-64.96,4.95-7.74,9.92-11.22,17.82-15.78Z"/>
  <path class="st0" d="M2126.71,1492.5c10.95-.64,19.82-.91,29.78,4.73,8.22,4.65,15.52,13.02,17.71,22.38,2.14,9.19.58,16.42-4.12,24.36-6.73,11.37-15.94,22.08-23.74,32.78l-58.9,79.27c-16.21,21.91-31.54,49.47-50.54,68.76-6.08,6.17-12.12,8.71-20.38,10.82-5.9.19-11.73,0-17.42-1.78-11.55-3.59-21.83-11.53-26.9-22.61-3.33-7.27-3.83-12.94-.72-20.35,6.73-16.07,20.76-31.58,31-45.65l70.65-94.67c11.54-15.09,22.62-32.85,35.6-46.57,5.47-5.79,10.75-8.51,17.99-11.45Z"/>
</svg>