<?xml version="1.0" encoding="UTF-8"?>
<svg id="Layer_1" xmlns="http://www.w3.org/2000/svg" xmlns:xlink="http://www.w3.org/1999/xlink" version="1.1" viewBox="0 0 450 800">
  <!-- Generator: Adobe Illustrator 30.1.0, SVG Export Plug-In . SVG Version: 2.1.1 Build 136)  -->
  <defs>
    <style>
      .st0, .st1, .st2 {
        fill: none;
      }

      .st3 {
        fill: #545454;
      }

      .st1 {
        stroke: #9b9b9b;
        stroke-width: 9.09px;
      }

      .st1, .st2 {
        stroke-miterlimit: 10;
      }

      .st4 {
        fill: #9b9b9b;
      }

      .st5 {
        fill: silver;
      }

      .st6 {
        fill: #7e7e7e;
      }

      .st2 {
        stroke: #545454;
        stroke-width: 7.42px;
      }

      .st7 {
        fill: #e0e0e0;
      }

      .st8 {
        clip-path: url(#clippath);
      }
    </style>
    <clipPath id="clippath">
      <rect class="st0" x="-175" y="175" width="800" height="450" transform="translate(-175 625) rotate(-90)"/>
    </clipPath>
  </defs>
  <g class="st8">
    <path class="st4" d="M24.62,755.39c-10.41-6.6-24.36,2.6-20.28,14.93,3.83,11.57,19.68,13.83,29.86,10.69,11.87-3.66,15.45-17.6,11.43-28.33s-14.65-17.98-26.29-18.01c-26.19-.08-38.59,31.02-22.38,50.33,8.22,9.79,22.01,13.66,34.44,13.63,13.61-.03,23.43-8,28.48-20.31,5.61-13.69,8.24-29.07-2.27-41.02-10.15-11.55-26.08-18.89-40.46-23.46-5.61-1.78-8.01,7.02-2.42,8.79,8.68,2.76,16.91,6.55,24.57,11.48,6.79,4.37,15.03,10.17,16.43,18.75s-2.28,19.35-6.39,26.39c-4.53,7.76-11.67,10.68-20.45,10.17s-17.89-2.86-24.01-9.23c-5.36-5.58-7.81-13.57-5.7-21.1,4.4-15.7,26.71-21.44,36.13-6.79,5.06,7.87,3.53,19.65-7.27,20.63-4.16.38-9.58.29-12.94-2.57-4.76-4.06-.76-10.67,4.9-7.08,4.97,3.15,9.55-4.74,4.6-7.88h0Z"/>
    <path class="st4" d="M114.39,794.75c9.88-19.37-1.86-44.96-25.31-43.91-9.76.44-20.08,6.15-22.51,16.23-2.73,11.29,7.89,17.88,17.78,18.24,22.38.82,40.61-21.76,32.48-43.16-3.64-9.58-11.85-17.66-22.12-19.58-9.74-1.83-20.9,3.66-20.53,14.8.43,12.84,15.94,13.07,24.24,8.03,10.77-6.54,16.86-19.55,15.35-31.97-.62-5.11-8.74-5.18-8.11,0,.84,6.9-.75,13.61-5.02,19.17-3.03,3.95-11.26,11.06-16.76,7.27-2.95-2.04-1.36-6.2.98-7.99,3.26-2.5,8.02-1.79,11.59-.39,6.19,2.44,10.86,7.88,13.02,14.1,4.72,13.58-4.29,27.03-17.63,30.71-5.24,1.44-17.75,2-17.52-6.16.2-7.07,8.76-10.87,14.76-11.2,17.04-.93,25.49,17.64,18.31,31.71-2.37,4.64,4.63,8.75,7,4.09h0Z"/>
    <path class="st7" d="M-42.87,630.83c15.08,7.33,31.72,7.52,47.01.69,5.35-2.39.72-10.25-4.6-7.88-12.07,5.39-25.93,5.08-37.8-.69-5.26-2.55-9.89,5.31-4.6,7.88h0Z"/>
    <path class="st1" d="M7.12,676.95l26-11.8c.74-.34,1.18-1.1,1.08-1.89l-3.49-27.72c-.22-1.77,2.01-2.78,3.25-1.48l19.56,20.43c.56.58,1.44.75,2.18.41l26-11.8c1.66-.75,3.33,1,2.45,2.56l-13.91,24.43c-.4.7-.29,1.56.27,2.14l19.56,20.43c1.25,1.3.05,3.4-1.74,3.06l-28.15-5.34c-.8-.15-1.61.22-2.01.91l-13.91,24.43c-.89,1.56-3.3,1.1-3.52-.67l-3.49-27.72c-.1-.79-.71-1.43-1.51-1.58l-28.15-5.34c-1.79-.34-2.09-2.72-.44-3.47Z"/>
    <path class="st5" d="M65.18,838.08c8.48,0,8.49-13.17,0-13.17s-8.49,13.17,0,13.17h0Z"/>
    <path class="st4" d="M113.98,678.56c8.48,0,8.49-13.17,0-13.17s-8.49,13.17,0,13.17h0Z"/>
    <path class="st4" d="M-2,766.08c8.48,0,8.49-13.17,0-13.17s-8.49,13.17,0,13.17h0Z"/>
    <path class="st7" d="M492.85,637.25c-3.95,8.07-13.46,10.58-21.16,5.91s-9.55-14.26-6.96-22.34c1.79-5.6-7.01-8-8.79-2.42-3.95,12.36.38,27.07,12.34,33.3s26.52,2.26,32.45-9.84c2.57-5.25-5.29-9.88-7.88-4.6h0Z"/>
    <path class="st7" d="M499,659.35c-7.33-3.93-13.04-10.45-14.85-18.69-.67-3.04-.9-6.45-.12-9.49,1.25-4.87,5.5-6.71,8.63-1.97s11.12.31,7.88-4.6c-3.98-6.02-11.34-10.05-18.23-5.94-5.2,3.1-7.39,9.09-7.79,14.86-.97,14.08,7.73,27.2,19.87,33.71,5.17,2.77,9.78-5.1,4.6-7.88h0Z"/>
    <path class="st4" d="M497.66,696.62c-6.23-.89-14.78-4.07-14.63-11.58.11-5.87-9.01-5.87-9.12,0-.22,11.66,10.85,18.87,21.33,20.37,2.46.35,4.87-.6,5.61-3.18.61-2.13-.75-5.26-3.18-5.61h0Z"/>
    <path class="st6" d="M455.85,676.19c-.29,8.45-10.2,12.7-16.57,7.12-6.03-5.28-3.35-15.84-5.3-22.87-1.76-6.38-6.06-12.49-12.92-13.75-7.04-1.3-13.36,3.28-17,8.95-4,6.24-4.19,18.56-11.82,21.75-10.76,4.5-8.16-16.59-8.01-21.75.25-8.45,2.17-18.77-.57-26.93-2.23-6.64-8.72-11.76-15.94-9.88-8.64,2.24-13.14,11.56-16.39,19.05-4.02,9.26-6.42,18.88-7.48,28.9-.62,5.83,8.51,5.79,9.12,0,.97-9.19,3.41-18.27,7.3-26.66,1.66-3.57,3.49-7.77,6.47-10.47,4.73-4.26,8.41-.17,8.84,5.15.76,9.58-.48,19.61-.72,29.22-.19,7.61.52,15.88,7.28,20.65,6.23,4.4,14.18,2.27,19.29-2.85,6.03-6.04,5.99-14.78,10.51-21.58,1.92-2.88,5.51-6,9.11-3.99,3.01,1.67,4.24,6.1,4.69,9.25,1.12,7.75.06,15.8,5.31,22.35,11.16,13.93,33.32,5.72,33.91-11.65.2-5.87-8.92-5.86-9.12,0h0Z"/>
    <path class="st7" d="M426.14,628.49c5.87,0,5.88-9.12,0-9.12s-5.88,9.12,0,9.12h0Z"/>
    <path class="st6" d="M404.09,721.78c16.23,2.91,32.47,3.12,48.78.68-1.72-2.23-3.43-4.47-5.15-6.7-5.82,11.25-11.64,22.5-17.46,33.75-1.42,2.75.26,7.28,3.94,6.86,5.77-.66,11.54-1.32,17.3-1.98,2.88-.33,5.77-.66,8.65-.99.97-.11,6.43-1.42,7.15-.64-1.34-1.46-3.36,3.7-3.88,4.65-1.37,2.49-2.74,4.97-4.11,7.46-2.89,5.25-5.78,10.49-8.67,15.74-1.75,3.18.5,6.61,3.94,6.86,12.91.96,25.82,1.93,38.73,2.89,5.85.44,5.83-8.69,0-9.12-12.91-.96-25.82-1.93-38.73-2.89l3.94,6.86c3.8-6.9,7.61-13.81,11.41-20.71,2.66-4.83,8.53-12.04,4.37-17.57-3.55-4.72-10.11-3.1-15.1-2.53-8.33.95-16.66,1.9-25,2.85l3.94,6.86c5.82-11.25,11.64-22.5,17.46-33.75,1.97-3.8-1.26-7.28-5.15-6.7-14.57,2.17-29.43,1.92-43.93-.68-5.74-1.03-8.2,7.76-2.42,8.79h0Z"/>
    <path class="st3" d="M367.08,826.54c5.55-5.07,11.42-10.65,18.7-13.07,5.75-1.91,13.86-2.16,18.08,3.01,3.14,3.84,3.02,11.19-2.59,12.61-6.64,1.67-13.03-4.76-16.08-9.85-6.48-10.81-5.53-26.84,5.85-34.15,4.7-3.01,10.64-3.41,15.84-1.45,2.65,1,12.14,7.5,8.47,11.2-2.48,2.5-8.21-4.53-9.51-6.41-2.18-3.15-3.72-6.75-4.41-10.53-1.54-8.54,1.72-17,7.7-23.08,4.12-4.19-2.32-10.64-6.45-6.45-8.31,8.45-12.36,20.2-10.05,31.95,1.91,9.73,9.22,21.75,19.66,23.92,11.37,2.36,14.92-10,10.57-18.32-4.17-7.99-13.32-12.37-22.08-12.6-22.07-.57-33.5,24.7-26.77,43.44,3.61,10.05,11.53,19.72,22.64,21.41,9.44,1.43,17.79-4.94,18.36-14.56.7-11.66-9.01-19.64-19.98-20.43-13.85-.99-24.82,8.16-34.41,16.92-4.34,3.97,2.12,10.4,6.45,6.45h0Z"/>
    <path class="st7" d="M360.27,785.04c-1.22-10.32-.13-21.7,6.86-29.93,5.98-7.04,16.69-11.09,25.55-7.32,5.34,2.27,9.99-5.58,4.6-7.88-11.89-5.06-25.31-2.12-34.67,6.72-10.28,9.72-13.07,24.86-11.47,38.39.68,5.76,9.81,5.83,9.12,0h0Z"/>
    <path class="st3" d="M370,710.41c-6.56,1.91-13.12,3.83-19.69,5.74l5.61,5.61c1.11-5.45,2.21-10.91,3.32-16.36.78-3.87,2.17-8.26-.56-11.66-2.49-3.1-6.25-2.71-9.71-1.8-6.1,1.6-12.15,3.37-18.23,5.06,1.72,2.23,3.43,4.47,5.15,6.7,2.72-6.06,5.44-12.12,8.16-18.17,2.39-5.31-5.47-9.95-7.88-4.6-2.72,6.06-5.44,12.12-8.16,18.17-1.55,3.46,1.02,7.85,5.15,6.7,3.52-.98,7.03-1.95,10.55-2.93,1.6-.44,3.2-.89,4.8-1.33.96-.27,1.92-.53,2.88-.8,1.4-.09,1.33-.56-.22-1.4-1.34,1.83-1.38,6.83-1.84,9.09-.74,3.64-1.47,7.27-2.21,10.91-.67,3.29,2.08,6.64,5.61,5.61,6.56-1.91,13.12-3.83,19.69-5.74,5.62-1.64,3.23-10.44-2.42-8.79h0Z"/>
    <path class="st6" d="M323.69,670.85c5.87,0,5.88-9.12,0-9.12s-5.88,9.12,0,9.12h0Z"/>
    <path class="st3" d="M325.64,623.26c-10.28,17.36-29.78,27.87-50.01,23.49-5.72-1.24-8.17,7.55-2.42,8.79,24.26,5.25,47.88-6.68,60.31-27.68,3-5.06-4.88-9.66-7.88-4.6h0Z"/>
    <path class="st4" d="M266.67,627.55c5.87,0,5.88-9.12,0-9.12s-5.88,9.12,0,9.12h0Z"/>
    <path class="st7" d="M250.05,653.66c-10.92,26.97,9.46,56.57,38.2,57.51,6.73.22,13.89-1.58,18.25-7.03,3.8-4.74,4.54-11.24,1.06-16.36-6.77-9.96-22.78-9.78-32.89-6.23-26.72,9.36-35.58,42.2-20.09,65.23,6.73,10,18.99,17.71,30.9,11.52,11.44-5.94,11.27-20.5.53-27.11-26.62-16.37-61.54,36.01-29.02,49.15,5.44,2.2,7.81-6.62,2.42-8.79-8.74-3.53-7.3-14.71-3.18-21.09,4.36-6.76,13.66-15.14,22.41-12.63,3.46.99,7.55,4.29,6.4,8.32-.98,3.45-5.31,5.27-8.6,5.3-8.66.1-15-9.32-17.79-16.46-6.35-16.23-1.05-35.05,14.93-43.14,6.77-3.43,16.2-5,23.27-1.46,3.95,1.98,5.16,5.8,1.6,9s-9.81,3.04-14.36,2.24c-21.33-3.74-33.35-25.58-25.26-45.55,2.2-5.44-6.62-7.8-8.79-2.42h0Z"/>
    <path class="st6" d="M271.09,779.47c-2.8,8.38-7.09,20.45-17.91,20.13-9.96-.29-18.32-9.11-27.83-11.61-5.68-1.49-8.11,7.3-2.42,8.79,12.37,3.25,22.49,15,36.34,11.21,11.99-3.28,17.05-15.42,20.62-26.1,1.87-5.58-6.94-7.97-8.79-2.42h0Z"/>
    <path class="st7" d="M300.39,824.38c9.02-4.04,19.62-11.29,16.34-22.83-.66-2.3-2.03-4.36-3.83-5.9s-5.31-2.08-6.51-3.94c-3.45-5.36,8.72-9.28,11.8-10.66,10.22-4.56,16.99-14.83,9.03-24.93-3.64-4.62-9.91-6.93-13.13-11.79-4.36-6.57,1.67-12.64,8.42-11.99,5.84.56,5.8-8.56,0-9.12-11.37-1.09-21.27,9.04-18.55,20.51,1.41,5.95,6.06,9.68,10.69,13.19,2.49,1.88,6.37,4.35,7,7.69.67,3.52-2.66,5.77-5.34,7.26-5.31,2.95-11.47,4.18-15.69,8.89-3.28,3.67-4.84,9.2-3.1,13.91.87,2.35,2.58,4.22,4.71,5.52s5.05,1.59,5.8,4.37c1.7,6.32-8.02,10.05-12.25,11.94-5.35,2.39-.71,10.26,4.6,7.88h0Z"/>
    <path class="st7" d="M233.5,693.55c-8.79.73-11.32-8.57-10.89-15.65.5-8.2,3.45-16.05,2.58-24.36-1.3-12.44-10.9-22.49-22.93-25.35-5.71-1.35-8.14,7.44-2.42,8.79,6.81,1.62,12.72,6.14,15.25,12.81,2.9,7.65-.08,16.12-1.13,23.84-.97,7.15-.78,14.83,3.5,20.96,3.66,5.24,9.6,8.59,16.05,8.05,5.81-.48,5.86-9.61,0-9.12h0Z"/>
    <path class="st5" d="M169.6,615.89c-9.93,15.02-2.69,33.65,13.48,40.09v-8.79c-10.37,2.01-20.75,4.02-31.12,6.03-6.81,1.32-14.68,2.42-19.28,8.23s-3.53,13.14.45,18.66c4.79,6.65,13.03,8.79,20.8,9.45,7.09.6,20.71-1.77,25.38,5.24,2.31,3.46-1.18,6.72-4.24,8.12-4.53,2.08-10.06,1.21-14.87,1.01-7.49-.31-15.82.36-21.49,5.93-5.13,5.03-5.63,12.65-2.07,18.72,4.72,8.06,14.74,11.2,23.43,12.6,10.38,1.67,20.91.72,30.85-2.66,5.53-1.88,3.15-10.69-2.42-8.79-8.03,2.74-16.36,3.82-24.82,2.8-6.61-.8-17.27-2.75-19.82-9.97-2.96-8.38,8.97-9.72,14.43-9.59,7.49.18,15.14,1.23,22-2.51,11.48-6.27,11.54-20.64-.29-26.49-6.74-3.33-14.54-3.09-21.86-3.32-6.58-.21-16.27-.84-18.85-8.21-3.02-8.63,10.73-9.58,16.08-10.62,10.05-1.95,20.1-3.9,30.15-5.84,4.89-.95,3.72-7.31,0-8.79-11.01-4.38-14.42-17.03-8.03-26.69,3.25-4.91-4.65-9.48-7.88-4.6h0Z"/>
    <path class="st3" d="M204.19,704.11c-10.07,9.01-5.49,23.28,1.71,32.41,4.53,5.75,10.57,10.89,12.83,18.07,2.56,8.13-2.32,13.25-10.07,14.78-12.54,2.48-30.63-1.41-36.41,13.97-2.02,5.39-.56,10.82,2.95,15.2s8.79,7.1,11.42,11.87c4.4,7.98-4.62,15.24-11.13,17.82-8.58,3.41-18.23,4.72-27.21,6.71-5.73,1.27-3.3,10.07,2.42,8.79,13.83-3.07,32.3-4.42,41.54-16.65,3.82-5.05,5.76-11.76,3.74-17.94-1.84-5.62-6.44-9.28-10.61-13.16-4.93-4.59-7.25-9.94-.13-14.17s16.58-2.1,24.4-3.4c13.97-2.32,22.51-13.79,17.38-27.71-2.82-7.66-8.64-13.17-13.67-19.38-4.51-5.58-9.33-14.86-2.72-20.77,4.38-3.92-2.09-10.36-6.45-6.45h0Z"/>
    <path class="st4" d="M157.24,806.13c-10.5-1.52-19.96-8.69-22.45-19.34s3.17-21.34,12.18-26.71c5.04-3,.46-10.89-4.6-7.88-12.19,7.27-19.31,21.51-16.66,35.64s15.16,25.06,29.11,27.08c5.74.83,8.22-7.95,2.42-8.79h0Z"/>
    <path class="st7" d="M141.99,630.01c7.82,0,7.84-12.16,0-12.16s-7.84,12.16,0,12.16h0Z"/>
    <path class="st3" d="M-40.99,576.77c4.28-.26,8.45-.01,12.64.93,5.72,1.29,8.16-7.5,2.42-8.79-4.96-1.12-9.99-1.56-15.06-1.26-5.83.35-5.87,9.47,0,9.12h0Z"/>
    <path class="st4" d="M-19.39,606.03c5.87,0,5.88-9.12,0-9.12s-5.88,9.12,0,9.12h0Z"/>
    <path class="st7" d="M-44.81,487.42c10.03,13.98,28.06,8.51,38.43-2.14,5.78-5.93,10.33-13.91,9.93-22.42s-5.48-15.54-13.29-18.75c-5.43-2.23-7.79,6.59-2.42,8.79,12.37,5.07,4.82,20.75-1.78,27.02-5.68,5.4-17.11,11.11-23.01,2.89-3.39-4.73-11.31-.18-7.88,4.6h0Z"/>
    <path class="st7" d="M-40.88,545.06c25.32.08,43.81-22.38,40.95-47.06-1.3-11.22-6.27-22.38-15.57-29.19-9.43-6.91-22.25-6.39-29.41,3.33-3.48,4.73,4.43,9.29,7.88,4.6,5.5-7.48,15.63-2.16,20.3,3.24,5.5,6.36,8,15.1,8.01,23.39.03,17.9-14.07,32.63-32.16,32.57-5.87-.02-5.88,9.1,0,9.12h0Z"/>
    <path class="st7" d="M-2.78,570.8c11.11-27.24-9.71-55.59-37.95-57.51-5.86-.4-5.83,8.72,0,9.12,22.97,1.56,37.87,24.59,29.15,45.97-2.22,5.43,6.6,7.8,8.79,2.42h0Z"/>
    <path class="st6" d="M-23.81,444.99c2.8-8.38,7.09-20.45,17.91-20.13,9.96.29,18.32,9.11,27.83,11.61,5.68,1.49,8.11-7.3,2.42-8.79-12.37-3.25-22.49-15-36.34-11.21-11.99,3.28-17.05,15.42-20.62,26.1-1.87,5.58,6.94,7.97,8.79,2.42h0Z"/>
    <path class="st5" d="M-38.7,348.81c10.91-4.95,22.6,1.14,28.73,10.57,5.74,8.83,7.85,23.25-1.91,30.29-3.86,2.78-9.9,4.37-14.06,1.33-7.91-5.76-1.42-14.76,6.52-14.93s15.21,3.89,21.4,7.84c6.92,4.42,12.94,10.21,17.76,16.85,3.42,4.7,11.33.16,7.88-4.6-10.02-13.79-25.74-26.76-43.22-28.94-8.02-1-16.89,1.58-20.95,9.09-3.65,6.74-2.05,15.15,3.37,20.46,9.8,9.6,26.39,4.08,32.97-6.51,7.21-11.6,4.54-26.83-3.23-37.41-9.39-12.79-25.03-18.65-39.87-11.91-5.34,2.42-.71,10.29,4.6,7.88h0Z"/>
    <path class="st5" d="M24.1,357.56c5.87,0,5.88-9.12,0-9.12s-5.88,9.12,0,9.12h0Z"/>
    <path class="st7" d="M13.77,530.91c8.79-.73,11.32,8.57,10.89,15.65-.5,8.2-3.45,16.05-2.58,24.36,1.3,12.44,10.9,22.49,22.93,25.35,5.71,1.35,8.14-7.44,2.42-8.79-6.81-1.62-12.72-6.14-15.25-12.81-2.9-7.65.08-16.12,1.13-23.84.97-7.15.78-14.83-3.5-20.96-3.66-5.24-9.6-8.59-16.05-8.05-5.81.48-5.86,9.61,0,9.12h0Z"/>
    <path class="st5" d="M77.68,608.57c9.93-15.02,2.69-33.65-13.48-40.09v8.79c10.37-2.01,20.75-4.02,31.12-6.03,6.81-1.32,14.68-2.42,19.28-8.23s3.53-13.14-.45-18.66c-4.79-6.65-13.03-8.79-20.8-9.45-7.09-.6-20.71,1.77-25.38-5.24-2.31-3.46,1.18-6.72,4.24-8.12,4.53-2.08,10.06-1.21,14.87-1.01,7.49.31,15.82-.36,21.49-5.93,5.13-5.03,5.63-12.65,2.07-18.72-4.72-8.06-14.74-11.2-23.43-12.6-10.38-1.67-20.91-.72-30.85,2.66-5.53,1.88-3.15,10.69,2.42,8.79,8.03-2.74,16.36-3.82,24.82-2.8,6.61.8,17.27,2.75,19.82,9.97,2.96,8.38-8.97,9.72-14.43,9.59-7.49-.18-15.14-1.23-22,2.51-11.48,6.27-11.54,20.64.29,26.49,6.74,3.33,14.54,3.09,21.86,3.32,6.58.21,16.27.84,18.85,8.21,3.02,8.63-10.73,9.58-16.08,10.62-10.05,1.95-20.1,3.9-30.15,5.84-4.89.95-3.72,7.31,0,8.79,11.01,4.38,14.42,17.03,8.03,26.69-3.25,4.91,4.65,9.48,7.88,4.6h0Z"/>
    <path class="st3" d="M43.09,520.35c10.07-9.01,5.49-23.28-1.71-32.41-4.53-5.75-10.57-10.89-12.83-18.07-2.56-8.13,2.32-13.25,10.07-14.78,12.54-2.48,30.63,1.41,36.41-13.97,2.02-5.39.56-10.82-2.95-15.2-3.38-4.21-8.79-7.1-11.42-11.87-4.4-7.98,4.62-15.24,11.13-17.82,8.58-3.41,18.23-4.72,27.21-6.71,5.73-1.27,3.3-10.07-2.42-8.79-13.83,3.07-32.3,4.42-41.54,16.65-3.82,5.05-5.76,11.76-3.74,17.94,1.84,5.62,6.44,9.28,10.61,13.16,4.93,4.59,7.25,9.94.13,14.17s-16.58,2.1-24.4,3.4c-13.97,2.32-22.51,13.79-17.38,27.71,2.82,7.66,8.64,13.17,13.67,19.38,4.51,5.58,9.33,14.86,2.72,20.77-4.38,3.92,2.09,10.36,6.45,6.45h0Z"/>
    <path class="st4" d="M90.03,418.33c10.5,1.52,19.96,8.69,22.45,19.34,2.45,10.49-3.17,21.34-12.18,26.71-5.04,3-.46,10.89,4.6,7.88,12.19-7.27,19.31-21.51,16.66-35.64s-15.16-25.06-29.11-27.08c-5.74-.83-8.22,7.95-2.42,8.79h0Z"/>
    <path class="st5" d="M112.53,369.79c5.87,0,5.88-9.12,0-9.12s-5.88,9.12,0,9.12h0Z"/>
    <path class="st7" d="M105.29,606.61c7.82,0,7.84-12.16,0-12.16s-7.84,12.16,0,12.16h0Z"/>
    <path class="st4" d="M-4.41,251.78c7.82,0,7.84-12.16,0-12.16s-7.84,12.16,0,12.16h0Z"/>
    <path class="st6" d="M60.83,273.9c7.82,0,7.84-12.16,0-12.16s-7.84,12.16,0,12.16h0Z"/>
    <path class="st4" d="M1.87,154.37c7.82,0,7.84-12.16,0-12.16s-7.84,12.16,0,12.16h0Z"/>
    <path class="st6" d="M-39.82,183.62c12.08-2.64,30.18,4.27,33.26,17.43,1.74,7.42-3.21,13.36-9.15,17.11-3.93,2.49-15.07,6.93-18.66,1.08s14.02-8.33,17.14-8.55c13.79-.99,27.12,5.31,36.52,15.15,4.06,4.25,10.51-2.2,6.45-6.45-10.65-11.14-26.16-18.65-41.8-17.9-8.82.42-22.4,2.28-26.8,11.24-2.47,5.03-.58,11.13,3.7,14.49,5.27,4.14,12.96,4.56,19.21,2.8,15.46-4.37,27.96-19.97,20.48-35.95-7.09-15.14-27.03-22.69-42.78-19.25-5.73,1.25-3.31,10.05,2.42,8.79h0Z"/>
    <path class="st6" d="M-43,155.68c6.61,4.05,13.92,10.25,14.92,18.45,1.07,8.78-6.39,14.87-13.91,17.47-5.51,1.91-3.14,10.73,2.42,8.79,10.89-3.78,20.81-12.35,20.7-24.75s-9.74-21.85-19.54-27.84c-5.02-3.07-9.61,4.81-4.6,7.88h0Z"/>
    <path class="st6" d="M55.45,253.44c6.65-7.76,13.3-15.53,19.95-23.29,1.9-2.22,1.75-5.56-.92-7.16-10.66-6.4-22.38-10.56-34.7-12.22l1.09,8.33c9.87-6.61,19.74-13.22,29.62-19.84,3.3-2.21,2.74-7.09-1.09-8.33-14.08-4.6-28.16-9.19-42.24-13.79l2.01,7.62c6.75-5.34,13.5-10.68,20.25-16.03,4.85-3.84,11.35-8.72,9.09-15.85-1.97-6.21-9.36-8.28-14.65-10.63-8.18-3.63-16.36-7.26-24.54-10.89-5.32-2.36-9.96,5.5-4.6,7.88,6.06,2.69,12.12,5.38,18.18,8.06,2.73,1.21,5.45,2.42,8.18,3.63,1.99.88,5.85,1.88,7.45,3.51,2.16,2.19-.64,3.88-2.44,5.37-2.55,2.11-5.19,4.11-7.79,6.16-5.19,4.11-10.38,8.22-15.58,12.33-2.87,2.27-.91,6.67,2.01,7.62,14.08,4.6,28.16,9.19,42.24,13.79l-1.09-8.33c-9.87,6.61-19.74,13.22-29.62,19.84-2.85,1.91-3.14,7.76,1.09,8.33,11.6,1.57,22.48,5.28,32.52,11.3l-.92-7.16c-6.65,7.76-13.3,15.53-19.95,23.29-3.8,4.44,2.62,10.92,6.45,6.45h0Z"/>
    <path class="st4" d="M-40.99,326.14c18.23-1.29,31.91-16.13,34.48-33.89,3.2-22.14-14.01-36.47-32.22-45.09-5.28-2.5-9.91,5.36-4.6,7.88,13.99,6.62,29.61,16.83,28.04,34.34-1.22,13.64-11.52,26.64-25.69,27.64-5.82.41-5.87,9.53,0,9.12h0Z"/>
    <path class="st4" d="M-39.65,308.81c21.67-5.29,16.6-34.02,1.03-43.32-5.05-3.02-9.64,4.86-4.6,7.88,8.83,5.28,14.78,23.33,1.15,26.65-5.7,1.39-3.29,10.19,2.42,8.79h0Z"/>
    <path class="st7" d="M23.02,321.03c-8.86-10.08.53-22.95,10.94-26.58,6.38-2.23,13.51-2.28,19.98-.33,2.11.63,5.78,1.61,6.2,4.23.52,3.21-3.83,5.98-6.27,6.93-12.38,4.86-22.93-6.97-26.38-17.55-4.46-13.66-3.99-29.21-1.13-43.13,1.18-5.73-7.61-8.18-8.79-2.42-3.32,16.16-4.05,34.72,1.99,50.38,4.96,12.87,16.46,24.12,31.19,22.69,6.36-.62,12.83-3.74,16.28-9.31s2.8-12.21-2.14-16.46c-10.54-9.06-30.2-7.17-41.2-.11-13,8.34-17.84,25.9-7.1,38.12,3.88,4.42,10.31-2.05,6.45-6.45h0Z"/>
    <path class="st7" d="M49.58,380.09c.32-5.1.65-10.2.97-15.3.05-.78,0-7.44.48-7.65.24-.1,4.94,1.41,5.71,1.58,6.16,1.39,16.52,5.94,21.84.55,4.79-4.85,3.62-15.66,4.11-21.85.08-1.03-.13-7.05.6-7.57-1.34.96,4.21,1.57,5.11,1.76,5,1.05,9.99,2.1,14.99,3.15,5.73,1.2,8.17-7.59,2.42-8.79s-11.24-2.37-16.86-3.55c-4.23-.89-9.08-2.43-12.48,1.14-3.06,3.21-2.5,8.82-2.82,12.91-.22,2.84-.45,5.68-.67,8.52-.09,1.2.25,7.01-.9,7.87-.54.4-5.79-1.33-6.37-1.46-2.8-.63-5.61-1.26-8.41-1.89-3.7-.83-8.35-2.46-11.82-.03-3.99,2.79-3.6,8.13-3.87,12.44-.38,6.05-.77,12.11-1.15,18.16s8.75,5.84,9.12,0h0Z"/>
    <path class="st4" d="M113.92,300.37c-9.3,2.29-18.09-3.15-20.18-12.49-2.2-9.81,2.5-19.46,6.95-27.91,2.73-5.19-5.13-9.8-7.88-4.6-6.34,12.03-12.01,25.94-6.4,39.37,4.93,11.79,17.74,17.43,29.92,14.42,5.7-1.41,3.28-10.2-2.42-8.79h0Z"/>
    <path class="st5" d="M93.24,234.08c9.97-.8,18.76-4.27,26.64-10.4,2.33-1.81,1.41-5.88-.92-7.16-8.22-4.52-16.44-9.05-24.67-13.57v7.88c7.17-4.25,14.35-8.51,21.52-12.76,2.27-1.35,3.31-5.31.92-7.16-7.48-5.82-14.96-11.65-22.45-17.47-4.58-3.56-11.08,2.85-6.45,6.45,7.48,5.82,14.96,11.65,22.45,17.47l.92-7.16c-7.17,4.25-14.35,8.51-21.52,12.76-2.88,1.71-3.04,6.2,0,7.88,8.22,4.52,16.44,9.05,24.67,13.57l-.92-7.16c-5.82,4.53-12.86,7.14-20.2,7.73-5.81.47-5.86,9.59,0,9.12h0Z"/>
    <path class="st4" d="M116.42,87.96c-4.92-3.59-9.85-7.18-14.77-10.77l.82,6.37c5.8-6.22,11.6-12.45,17.4-18.67,2.11-2.26,1.18-5.86-1.79-6.77-9.74-3.02-19.49-6.04-29.23-9.06l.97,7.41c8.25-6.03,16.5-12.06,24.75-18.08,2.01-1.47,2.9-4.43.82-6.37-6.64-6.18-13.96-11.41-21.99-15.63v7c8.52-6.45,17.04-12.9,25.56-19.35,4.11-3.11.07-10.15-4.09-7-8.52,6.45-17.04,12.9-25.56,19.35-2.25,1.71-2.96,5.44,0,7,7.44,3.91,14.19,8.63,20.35,14.36l.82-6.37c-8.25,6.03-16.5,12.06-24.75,18.08-2.77,2.03-2.57,6.31.97,7.41,9.74,3.02,19.49,6.04,29.23,9.06l-1.79-6.77c-5.8,6.22-11.6,12.45-17.4,18.67-1.92,2.06-1.32,4.81.82,6.37,4.92,3.59,9.85,7.18,14.77,10.77,4.22,3.08,8.27-3.95,4.09-7h0Z"/>
    <path class="st4" d="M69.64,105.71c-6.92-2.91-16.61-8.08-11.37-16.87,3.02-5.06,8.7-8.39,12.88-12.4,8.54-8.2,11.08-18.87,1.84-27.88-9.14-8.91-22.5-7.58-32.99-13.66-8.34-4.83-9.24-13.45-1.77-19.59,5.26-4.32,11.93-6.48,17.54-10.28s10.93-9.75,11.25-17.07-4.37-12.75-10.54-15.72c-4.68-2.25-8.8,4.74-4.09,7,7.77,3.74,8.14,11.09,1.84,16.79-5.26,4.77-12.38,6.89-18.2,10.85-5.29,3.6-10.02,8.5-11.18,15.01s2.27,13.3,7.44,17.47c10.03,8.09,25.03,5.96,34.48,14.47,11.39,10.25-4.55,18.87-11.34,25.7-5.22,5.26-8.86,12.79-5.77,20.1s10.86,10.94,17.82,13.87c4.8,2.02,6.9-5.82,2.16-7.82h0Z"/>
    <path class="st4" d="M114.39-15.04c1.32-2.48,2.35-5.12,2.99-7.87.5-2.13-.66-4.39-2.83-4.99-2.05-.56-4.49.69-4.99,2.83s-1.18,4.07-2.17,5.93-.49,4.41,1.45,5.55c1.84,1.07,4.51.48,5.55-1.45h0Z"/>
    <path class="st6" d="M-39.01,6.75C-27.97.05-23.8-11.54-23.41-23.97c.16-5.22-7.95-5.21-8.11,0-.29,9.5-3.06,18.55-11.58,23.72-4.45,2.7-.38,9.72,4.09,7h0Z"/>
    <path class="st6" d="M-2.56,37.77c10.85-24.43.14-54.14-24.4-65.32-4.71-2.15-8.84,4.84-4.09,7C-10.89-11.36-.38,13-9.56,33.68c-2.1,4.73,4.88,8.86,7,4.09h0Z"/>
    <ellipse class="st2" cx="1.87" cy="92.89" rx="26.55" ry="25.86"/>
    <path class="st5" d="M65.18,28.29c8.48,0,8.49-13.17,0-13.17s-8.49,13.17,0,13.17h0Z"/>
    <path class="st3" d="M75.25,155.33c13.81,1,27.18,4.68,39.57,10.86,3.49,1.74,7.76-1.13,6.7-5.15-5.98-22.55-15.2-44.1-27.39-63.98-3.06-5-10.95-.42-7.88,4.6,11.81,19.26,20.68,39.97,26.47,61.8l6.7-5.15c-13.89-6.93-28.69-10.98-44.17-12.11-5.86-.43-5.83,8.7,0,9.12h0Z"/>
    <path class="st3" d="M118.21,158.01c-8.7-15.7-21.04-28.86-36.06-38.67-4.93-3.22-9.5,4.67-4.6,7.88,13.74,8.97,24.85,21.05,32.79,35.39,2.84,5.14,10.72.54,7.88-4.6h0Z"/>
    <path class="st6" d="M489.85-19.69c1.15.09,2.31.17,3.46.26,2.38.18,4.66-2.22,4.56-4.56-.12-2.62-2.01-4.37-4.56-4.56-1.15-.09-2.31-.17-3.46-.26-2.38-.18-4.66,2.22-4.56,4.56.12,2.62,2.01,4.37,4.56,4.56h0Z"/>
    <path class="st4" d="M465.39,23.55c-7.21-5.87-19.24-3.36-22.46,5.88-3.76,10.78,6.63,21.01,17.12,20.62,24.86-.92,27.13-36.88,6.07-45.58-9.53-3.94-20.91-1.62-28.85,4.72-8.48,6.77-11.77,17.83-10.21,28.36,1.74,11.78,9.36,22.52,20.15,27.7,11.66,5.59,24.44,2.86,34.54-4.65,22.52-16.77,24.77-49.19,5.55-69.37-4.06-4.26-10.5,2.2-6.45,6.45,10.69,11.23,13.92,27.98,6.87,42.02-6.9,13.74-23.8,25.21-38.69,16.19-12.33-7.47-19.01-27.52-7.28-38.56,9.61-9.05,27.88-7.24,29.9,7.72,1.03,7.56-4.61,16.66-13.08,15.9-3.68-.33-8.67-4.34-7.01-8.5.99-2.47,5.1-4.28,7.37-2.44,4.51,3.68,11-2.74,6.45-6.45h0Z"/>
    <path class="st3" d="M413.33-21.89c1.14,1.55,2.04,3.36,2.28,5.29.2,1.6.34,1.86-.89,2.17-2.39.61-5.51-2.67-6.85-4.18-2.06-2.32-3.6-5.09-4.87-7.91-2.42-5.34-10.29-.71-7.88,4.6,3.75,8.26,12.58,19.4,23.07,16.13,8.95-2.79,7.43-14.68,3.01-20.71-3.43-4.69-11.35-.14-7.88,4.6h0Z"/>
    <path class="st3" d="M367.08,16.74c7.04-6.43,15.04-13.94,25.14-14.29,6.96-.24,18.78,6.43,12.18,14.65-6.5,8.09-17.37-3.86-20.26-9.52-4.65-9.11-4.03-20.48,2.56-28.49,3.7-4.5-2.71-10.98-6.45-6.45-9.74,11.83-10.81,28.17-2.98,41.37,6.41,10.82,22.89,21.15,33.6,9.54,9.7-10.51,1.46-25.91-10.73-29.27-15.55-4.29-28.78,6.19-39.52,16.01-4.34,3.97,2.12,10.4,6.45,6.45h0Z"/>
    <path class="st6" d="M269.24-25c-3.17,8.19-9.19,16.6-19.09,14.38-8.9-2-15.89-8.9-24.79-11.19-5.69-1.46-8.11,7.33-2.42,8.79,11.54,2.97,20.38,13.18,33.12,11.78,11.48-1.26,18.17-11.45,21.99-21.34,2.12-5.48-6.7-7.85-8.79-2.42h0Z"/>
    <path class="st7" d="M300.39,14.59c7.12-3.2,15.34-7.87,16.72-16.31.65-3.95-.31-8.42-3.21-11.31s-9.8-3.6-7.28-8.78-5.3-9.88-7.88-4.6c-1.72,3.54-2.6,7.33-1.21,11.14,1.45,3.96,4.63,5.61,8.09,7.56,8.89,5-5.81,12.62-9.84,14.43-5.35,2.4-.71,10.26,4.6,7.88h0Z"/>
    <path class="st5" d="M300.63,47.09c-3.12,6.45-6.44,13.78-12.75,17.71-5.97,3.72-13.93,3.53-20.14.46-12.04-5.95-20.07-24.64-12.12-36.67,4.01-6.05,13.76-9.76,19.22-3.21,6.09,7.31-2.39,13.51-9.39,13.21-7.45-.31-14.92-4.5-21.02-8.5-6.56-4.3-12.3-9.86-16.91-16.21-3.42-4.7-11.33-.16-7.88,4.6,9.98,13.74,26.01,26.93,43.46,29,7.39.88,15.87-1.4,20.12-7.99s2.95-16.11-3-21.62c-13.46-12.46-32.98-.36-36.06,15.25-3.12,15.82,5.54,33.92,20.34,40.64,8.37,3.8,18.44,3.95,26.66-.36,8.56-4.49,13.3-13.38,17.34-21.73,2.55-5.26-5.32-9.89-7.88-4.6h0Z"/>
    <path class="st5" d="M223.17,66.23c5.87,0,5.88-9.12,0-9.12s-5.88,9.12,0,9.12h0Z"/>
    <path class="st3" d="M330.79,6.03c11.84,8.39-1.41,27.24-3.95,36.98-3.36,12.87.32,26.15,9.02,36.04,3.89,4.41,10.31-2.06,6.45-6.45-5.02-5.7-7.83-13.03-7.63-20.66s3.76-14.03,6.44-20.78c4.51-11.35,5.31-25.2-5.73-33.01-4.8-3.4-9.36,4.51-4.6,7.88h0Z"/>
    <path class="st5" d="M368.73,34.35c-7.83,6.53-10.31,17.26-7.94,26.96,2.61,10.66,11.25,18.4,21.11,22.46,9.23,3.81,21.46,5.91,30.89,1.6,10.09-4.6,12.01-16.83,4.33-24.79-15.47-16.03-43.7-7.13-55.65,8.48-13.78,18-9.26,44.17,5.47,60.14,8,8.67,18.84,14.59,30.14,17.72,10.26,2.84,23.62,4.88,33.59.08,10.24-4.93,12.6-17.27,9.07-27.3s-12.38-18.1-22.46-21.86c-22.06-8.23-49.87,2.15-64.87,19.35-14,16.06-17,40.84-2.25,57.57,7.99,9.05,22.38,14.45,32.91,6.4s6.45-23.18-4.77-28.68c-11.52-5.65-26.62-3.46-37.19,3.3-11.4,7.29-18.11,19.86-18.34,33.31-.1,5.87,9.02,5.87,9.12,0,.32-18.34,16.43-32.23,34.63-30.49,4,.38,8.55,1.61,11.4,4.62,3.45,3.64,3.17,8.57-1.19,11.28-7.78,4.84-17.51-2.08-21.91-8.5-8.53-12.45-6.36-28.97,2.56-40.54,10.14-13.15,27.78-21.44,44.32-21.23,8.68.11,17.22,2.94,23.44,9.15,4.99,4.99,9.26,13.54,6.18,20.62-3.6,8.26-15.76,6.95-23.04,5.95-8.32-1.14-16.45-3.83-23.67-8.14-14.09-8.4-23.6-23.75-22.22-40.46,1.25-15.1,13.04-27.22,27.93-29.55,6.69-1.05,23.28.65,22.57,10.55-.61,8.54-16.16,6.22-21.28,5-8.25-1.96-16.96-6.52-20.69-14.56-3.51-7.56-2.24-16.58,4.25-22,4.51-3.77-1.97-10.19-6.45-6.45h0Z"/>
    <path class="st3" d="M171.8-25.22c-1.45,6.27.78,11.46,5.1,16.02,3.81,4.02,10.92,7.84,11.01,14.09s-7.44,11.27-12.67,13.56c-8.37,3.66-18.07,4.75-26.95,6.69-5.73,1.25-3.31,10.05,2.42,8.79,15.3-3.34,37.83-5.42,44.9-22.27,2.79-6.65,1.01-13.73-3.62-19.07-3.6-4.15-12.88-8.96-11.39-15.4,1.32-5.71-7.47-8.15-8.79-2.42h0Z"/>
    <path class="st4" d="M157.24-3.66c-11.56-1.68-20.81-9.83-22.88-21.48-1.02-5.77-9.81-3.32-8.79,2.42,2.56,14.41,14.86,25.76,29.25,27.85,5.74.83,8.22-7.95,2.42-8.79h0Z"/>
    <path class="st5" d="M134.74,53.99c5.87,0,5.88-9.12,0-9.12s-5.88,9.12,0,9.12h0Z"/>
    <path class="st4" d="M251.69,175.04c7.82,0,7.84-12.16,0-12.16s-7.84,12.16,0,12.16h0Z"/>
    <path class="st6" d="M186.45,152.92c7.82,0,7.84-12.16,0-12.16s-7.84,12.16,0,12.16h0Z"/>
    <path class="st4" d="M245.4,272.45c7.82,0,7.84-12.16,0-12.16s-7.84,12.16,0,12.16h0Z"/>
    <path class="st4" d="M406.81,263.04c7.82,0,7.84-12.16,0-12.16s-7.84,12.16,0,12.16h0Z"/>
    <path class="st7" d="M496.32,113.81c-15.42,1.45-30.42-3.78-41.46-14.68-4.18-4.13-10.63,2.32-6.45,6.45,12.61,12.45,30.21,19.01,47.91,17.35,5.79-.54,5.85-9.67,0-9.12h0Z"/>
    <path class="st7" d="M498.82,154.18c-11.13-7.84-14.07-21.69-14.47-34.52-.44-13.81.22-28.56,14.34-35.34,5.29-2.54.67-10.4-4.6-7.88-17.09,8.2-19.4,26.23-18.86,43.21.52,16.4,5,32.55,18.99,42.4,4.81,3.39,9.37-4.52,4.6-7.88h0Z"/>
    <path class="st6" d="M497.39,249.74c-5.03-1.01-10.05-2.02-15.08-3.03-2.9-.58-5.73,1.27-5.77,4.4-.1,7.95-.21,15.9-.31,23.85-.08,5.87,9.04,5.87,9.12,0,.1-7.95.21-15.9.31-23.85l-5.77,4.4c5.03,1.01,10.05,2.02,15.08,3.03,5.73,1.15,8.18-7.64,2.42-8.79h0Z"/>
    <path class="st4" d="M495.22,380.26c-7.6,1.06-21.53,6.47-24.71-3.81-1.73-5.59-10.54-3.2-8.79,2.42,5.3,17.12,22.51,12.04,35.93,10.18,5.79-.81,3.32-9.59-2.42-8.79h0Z"/>
    <path class="st4" d="M492.03,461.3c-.23-9.26-7.5-13.65-15.97-14.57-8.77-.95-20.22,3.85-27.72-2.22-4.54-3.67-5.88-10.18-3.08-15.28,3.38-6.17,10.05-7.32,16.43-6.22,5.97,1.03,11.59,3.23,17.67,3.8,6.91.65,13.31-.69,19.61-3.51,5.35-2.4.71-10.26-4.6-7.88-8.09,3.62-16.12,2.46-24.39.23-5.53-1.49-11.19-2.76-16.94-1.87-11.73,1.83-20.28,13.36-18,25.16s13.8,18.07,25.46,17.57c5.25-.22,22.2-4.15,22.43,4.77.15,5.86,9.27,5.88,9.12,0h0Z"/>
    <path class="st4" d="M494.43,344.41c-16.94.41-32.09-12.17-32.07-29.71,0-6.95,3.31-18.74,12.33-18.2,3.91.23,6.68,3.84,6.81,7.6.16,4.39-2.94,8.35-6.37,10.72-13.17,9.13-33.51,5.36-45.95-3.11-5.83-3.97-12.84-10.98-11.04-18.77.92-3.99,3.98-7.14,7.86-8.34,1.77-.55,3.75-.76,5.59-.44,3.18.56,3.07,2.07.96,4.2-5.94,6-17.17,6.88-24.68,4.09-8.34-3.1-13.94-10.6-15.5-19.19-1.04-5.77-9.83-3.32-8.79,2.42,4.52,25.02,37.24,36.67,55.98,18.59,4-3.86,6.22-10.03,2.22-14.74-3.62-4.27-10.23-5.13-15.45-4.33-12.26,1.89-20.29,14.36-16.63,26.29s15.37,19.78,26.36,23.92c11.99,4.53,26.39,5.03,38.33.05,10.86-4.53,20.19-16.53,14.53-28.54s-20.99-11.99-29.03-2.5c-9.04,10.67-8.21,27.58-1.69,39.25,7.21,12.91,21.67,20.19,36.23,19.84,5.86-.14,5.88-9.26,0-9.12h0Z"/>
    <path class="st4" d="M356.54,268.56c15.41-8.31,29.18-19.31,40.59-32.6,2.41-2.8,1-7.97-3.22-7.78-18.25.8-36.07-5.49-49.43-18.03-4.28-4.02-10.74,2.42-6.45,6.45,15.05,14.13,35.24,21.61,55.88,20.7l-3.22-7.78c-10.96,12.75-23.95,23.19-38.75,31.17-5.17,2.79-.57,10.66,4.6,7.88h0Z"/>
    <path class="st6" d="M385.33,236.14c-16.67,1.47-33.33,2.95-50,4.42-5.8.51-5.85,9.64,0,9.12,16.67-1.47,33.33-2.95,50-4.42,5.8-.51,5.85-9.64,0-9.12h0Z"/>
    <path class="st6" d="M304.34,290.89c-6.68-6.45-9.36-16.13-6.52-25.06,1.39-4.38,4.59-9.48,9.27-10.85,6.17-1.79,10.73,5.39,2.92,7.54-16.79,4.63-49.16-22-28.15-35.58,4.2-2.71,9.25-3.77,14.11-4.61,1.88-.33,7.7-1.96,9.3-.89,2.7,1.8-2.83,4.53-4.19,5.3-8.39,4.78-18.81,5.73-28.05,3.14s-21.06-10.52-19.25-21.46c.86-5.18,4.59-9.26,8.98-11.85s12.7-6.13,17.13-2.42c5.64,4.72-5.63,7.89-8.82,8.65-5.17,1.24-10.67,1.44-15.93.69-10.58-1.5-20.18-6.64-27.17-14.7-3.85-4.44-10.28,2.03-6.45,6.45,10.26,11.82,26.03,18.3,41.63,17.74,7.24-.26,15.52-1.75,21.57-5.98s7.91-12.21,2.79-18.17c-11.58-13.47-36.01,0-41.36,13.33-6.68,16.66,8.21,31.35,23.04,36.08,7.84,2.5,16.38,2.74,24.4,1,7.04-1.53,15.94-5.13,20.17-11.29,4.71-6.86,0-14.49-7.74-15.56s-18.4,1.64-25.54,4.95c-6.65,3.08-12.69,8.93-14.07,16.37-1.54,8.3,2.48,16.78,7.63,23.07,9,10.99,29.58,21.08,43.22,12.52,7.4-4.64,8.53-14.43,1.75-20.15s-16.4-3.93-22.61,1.99c-12.99,12.36-10.82,34.31,1.48,46.19,4.22,4.08,10.68-2.36,6.45-6.45h0Z"/>
    <path class="st6" d="M191.82,161.22c-6.65,7.76-13.3,15.53-19.95,23.29-1.9,2.22-1.75,5.56.92,7.16,10.66,6.4,22.38,10.56,34.7,12.22l-1.09-8.33c-9.87,6.61-19.74,13.22-29.62,19.84-3.3,2.21-2.74,7.09,1.09,8.33,14.08,4.6,28.16,9.19,42.24,13.79l-2.01-7.62c-6.75,5.34-13.5,10.68-20.25,16.03-4.85,3.84-11.35,8.72-9.09,15.85,1.97,6.21,9.36,8.28,14.65,10.63,8.18,3.63,16.36,7.26,24.54,10.89,5.32,2.36,9.96-5.5,4.6-7.88-6.06-2.69-12.12-5.38-18.18-8.06-2.73-1.21-5.45-2.42-8.18-3.63-1.99-.88-5.85-1.88-7.45-3.51-2.16-2.19.64-3.88,2.44-5.37,2.55-2.11,5.19-4.11,7.79-6.16,5.19-4.11,10.38-8.22,15.58-12.33,2.87-2.27.91-6.67-2.01-7.62-14.08-4.6-28.16-9.19-42.24-13.79l1.09,8.33c9.87-6.61,19.74-13.22,29.62-19.84,2.85-1.91,3.14-7.76-1.09-8.33-11.6-1.57-22.48-5.28-32.52-11.3l.92,7.16c6.65-7.76,13.3-15.53,19.95-23.29,3.8-4.44-2.62-10.92-6.45-6.45h0Z"/>
    <path class="st4" d="M294.49,131.95c10.41,6.6,24.36-2.6,20.28-14.93-3.83-11.57-19.68-13.83-29.86-10.69-11.87,3.66-15.45,17.6-11.43,28.33,4.1,10.95,14.65,17.98,26.29,18.01,26.19.08,38.59-31.02,22.38-50.33-8.22-9.79-22.01-13.66-34.44-13.63-13.61.03-23.43,8-28.48,20.31-5.61,13.69-8.24,29.07,2.27,41.02s26.08,18.89,40.46,23.46c5.61,1.78,8.01-7.02,2.42-8.79-8.68-2.76-16.91-6.55-24.57-11.48-6.79-4.37-15.03-10.17-16.43-18.75-1.33-8.17,2.28-19.35,6.39-26.39,4.53-7.76,11.67-10.68,20.45-10.17s17.89,2.86,24.01,9.23c5.36,5.58,7.81,13.57,5.7,21.1-4.4,15.7-26.71,21.44-36.13,6.79-5.06-7.87-3.53-19.65,7.27-20.63,4.16-.38,9.58-.29,12.94,2.57,4.76,4.06.76,10.67-4.9,7.08-4.97-3.15-9.55,4.74-4.6,7.88h0Z"/>
    <path class="st7" d="M224.25,93.64c8.86,10.08-.53,22.95-10.94,26.58-6.38,2.23-13.51,2.28-19.98.33-2.11-.63-5.78-1.61-6.2-4.23-.52-3.21,3.83-5.98,6.27-6.93,12.38-4.86,22.93,6.97,26.38,17.55,4.46,13.66,3.99,29.21,1.13,43.13-1.18,5.73,7.61,8.18,8.79,2.42,3.32-16.16,4.05-34.72-1.99-50.38-4.96-12.87-16.46-24.12-31.19-22.69-6.36.62-12.83,3.74-16.28,9.31s-2.8,12.21,2.14,16.46c10.54,9.06,30.2,7.17,41.2.11,13-8.34,17.84-25.9,7.1-38.12-3.88-4.42-10.31,2.05-6.45,6.45h0Z"/>
    <path class="st7" d="M197.69,34.57c-.32,5.1-.65,10.2-.97,15.3-.05.78,0,7.44-.48,7.65-.24.1-4.94-1.41-5.71-1.58-6.16-1.39-16.52-5.94-21.84-.55-4.79,4.85-3.62,15.66-4.11,21.85-.08,1.03.13,7.05-.6,7.57,1.34-.96-4.21-1.57-5.11-1.76-5-1.05-9.99-2.1-14.99-3.15-5.73-1.2-8.17,7.59-2.42,8.79s11.24,2.37,16.86,3.55c4.23.89,9.08,2.43,12.48-1.14,3.06-3.21,2.5-8.82,2.82-12.91.22-2.84.45-5.68.67-8.52.09-1.2-.25-7.01.9-7.87.54-.4,5.79,1.33,6.37,1.46,2.8.63,5.61,1.26,8.41,1.89,3.7.83,8.35,2.46,11.82.03,3.99-2.79,3.6-8.13,3.87-12.44.38-6.05.77-12.11,1.15-18.16s-8.75-5.84-9.12,0h0Z"/>
    <path class="st4" d="M133.36,114.3c9.3-2.29,18.09,3.15,20.18,12.49,2.2,9.81-2.5,19.46-6.95,27.91-2.73,5.19,5.13,9.8,7.88,4.6,6.34-12.03,12.01-25.94,6.4-39.37-4.93-11.79-17.74-17.43-29.92-14.42-5.7,1.41-3.28,10.2,2.42,8.79h0Z"/>
    <path class="st5" d="M154.04,180.58c-9.97.8-18.76,4.27-26.64,10.4-2.33,1.81-1.41,5.88.92,7.16,8.22,4.52,16.44,9.05,24.67,13.57v-7.88c-7.17,4.25-14.35,8.51-21.52,12.76-2.27,1.35-3.31,5.31-.92,7.16,7.48,5.82,14.96,11.65,22.45,17.47,4.58,3.56,11.08-2.85,6.45-6.45-7.48-5.82-14.96-11.65-22.45-17.47l-.92,7.16c7.17-4.25,14.35-8.51,21.52-12.76,2.88-1.71,3.04-6.2,0-7.88-8.22-4.52-16.44-9.05-24.67-13.57l.92,7.16c5.82-4.53,12.86-7.14,20.2-7.73,5.81-.47,5.86-9.59,0-9.12h0Z"/>
    <path class="st4" d="M130.86,326.71c4.92,3.59,9.85,7.18,14.77,10.77l-.82-6.37c-5.8,6.22-11.6,12.45-17.4,18.67-2.11,2.26-1.18,5.86,1.79,6.77,9.74,3.02,19.49,6.04,29.23,9.06l-.97-7.41c-8.25,6.03-16.5,12.06-24.75,18.08-2.01,1.47-2.9,4.43-.82,6.37,6.64,6.18,13.96,11.41,21.99,15.63v-7c-8.52,6.45-17.04,12.9-25.56,19.35-4.11,3.11-.07,10.15,4.09,7,8.52-6.45,17.04-12.9,25.56-19.35,2.25-1.71,2.96-5.44,0-7-7.44-3.91-14.19-8.63-20.35-14.36l-.82,6.37c8.25-6.03,16.5-12.06,24.75-18.08,2.77-2.03,2.57-6.31-.97-7.41-9.74-3.02-19.49-6.04-29.23-9.06l1.79,6.77c5.8-6.22,11.6-12.45,17.4-18.67,1.92-2.06,1.32-4.81-.82-6.37-4.92-3.59-9.85-7.18-14.77-10.77-4.22-3.08-8.27,3.95-4.09,7h0Z"/>
    <path class="st4" d="M176.66,308.55c7.79,3.31,18.9,9.17,11.37,18.74-5.17,6.57-13.5,9.89-17.66,17.42s-1.97,15.69,3.91,21.37c6.79,6.56,16.05,7.94,24.76,10.42,9.16,2.61,21.39,10.62,12.2,20.76-6.25,6.89-16.18,8.88-23.17,14.89-5.91,5.08-9.99,13.53-6.81,21.2s11.72,10.24,19.19,11.99c5.46,1.28,10.59,2.69,14.26,7.25,3,3.73,4.65,8.7,4.12,13.49-1.15,10.39-12.01,16.3-21.61,15.17-5.17-.61-5.13,7.51,0,8.11,17.82,2.09,34-14.57,28.75-32.37-2.63-8.91-9.43-15.41-18.2-18.17-4.83-1.52-10.22-1.79-14.7-4.3-5.45-3.05-5.92-8.33-2.49-13.23,6.04-8.63,18.53-10.29,25.85-17.75,6.45-6.57,8.49-15.96,2.89-23.76-6.13-8.53-16.51-10.61-26.03-13.14s-23.45-10.76-13.02-21.61c6.88-7.16,18.42-12.37,18.6-23.82.17-10.42-9.74-16.11-18.11-19.67-4.75-2.02-8.88,4.96-4.09,7h0Z"/>
    <path class="st4" d="M132.89,429.71c-9.88,19.37,1.86,44.96,25.31,43.91,9.76-.44,20.08-6.15,22.51-16.23,2.73-11.29-7.89-17.88-17.78-18.24-22.38-.82-40.61,21.76-32.48,43.16,3.64,9.58,11.85,17.66,22.12,19.58,9.74,1.83,20.9-3.66,20.53-14.8-.43-12.84-15.94-13.07-24.24-8.03-10.77,6.54-16.86,19.55-15.35,31.97.62,5.11,8.74,5.18,8.11,0-.84-6.9.75-13.61,5.02-19.17,3.03-3.95,11.26-11.06,16.76-7.27,2.95,2.04,1.36,6.2-.98,7.99-3.26,2.5-8.02,1.79-11.59.39-6.19-2.44-10.86-7.88-13.02-14.1-4.72-13.58,4.29-27.03,17.63-30.71,5.24-1.44,17.75-2,17.52,6.16-.2,7.07-8.76,10.87-14.76,11.2-17.04.93-25.49-17.64-18.31-31.71,2.37-4.64-4.63-8.75-7-4.09h0Z"/>
    <path class="st6" d="M249.84,376.9c-7.12,16.25-5.83,35,4.88,49.42,9.38,12.63,25.52,21.83,41.6,19.56,13.61-1.93,25.99-15.79,19.96-29.89s-26.14-13.43-35.88-3.49c-15.93,16.27-7.23,40.11-7.7,59.97-.13,5.22,7.98,5.22,8.11,0,.4-16.48-7.33-37.11,3.25-51.77,4.45-6.16,12.56-9.98,19.91-6.45,6.47,3.11,6.92,10.69,3.44,16.25-9.23,14.78-31.6,5.85-41.31-3.46-12.41-11.9-16.19-30.24-9.26-46.05,2.07-4.73-4.91-8.86-7-4.09h0Z"/>
    <path class="st4" d="M418.99,439.11c-3.02-12.02-16.44-16.2-27.51-14.72-11.83,1.58-32.82,13.36-42.18.5-9.09-12.5,3.28-29.66,1.9-43.24-1.4-13.79-16.99-13.9-26.82-9.55-7.98,3.53-15.95,8.09-24.09,2.16-7.13-5.2-7.32-15.17-1.41-21.39,3.59-3.78-2.13-9.52-5.73-5.73-9.2,9.68-8.79,25.34,2.2,33.52,5.1,3.8,11.66,5.5,17.95,4.41,7.52-1.29,13.75-7.02,21.34-7.69,3.14-.28,7.09.33,8.29,3.7,1.49,4.17-.6,10.35-1.59,14.43-1.79,7.39-3.79,14.78-2.84,22.44,1.75,14.11,13.26,21.63,26.98,20.55,8.83-.69,16.9-4.46,25.57-5.91,7.38-1.24,17.96.02,20.14,8.66,1.27,5.06,9.09,2.91,7.82-2.16h0Z"/>
    <path class="st4" d="M377.32,395.06l2.88-12.35c.49-2.09,1.47-4.51,1.55-6.65l.44-1.9c-1.27.71-1.09,1.43.55,2.15,1.95,3.01,5.63,5.59,8.16,8.11,3.17,3.15,6.35,6.31,9.52,9.46,2.74,2.72,6.48.44,6.92-2.87.83-6.27,1.66-12.54,2.49-18.82.37-2.82.75-5.64,1.12-8.47.14-1.07.49-8.13,1.37-8.53l-3.12.41c2.16.39,6,8.07,7.41,10.15,2.59,3.83,5.18,7.66,7.77,11.49,2.91,4.3,9.93.25,7-4.09-4.44-6.56-8.8-13.19-13.32-19.69-2.74-3.94-7.41-8.58-11.93-3.77-1.7,1.81-1.97,4.18-2.28,6.52-.5,3.76-1,7.53-1.49,11.29-1.04,7.84-2.07,15.68-3.11,23.52l6.92-2.87c-4.54-4.51-9.07-9.01-13.61-13.52-3.02-3-6.86-8.49-11.66-8.52-4.12-.02-5.89,3.39-6.74,6.84-1.63,6.63-3.11,13.3-4.66,19.95-1.19,5.08,6.63,7.24,7.82,2.16h0Z"/>
    <path class="st3" d="M385.14,461.46c5,13.28,4.6,30.48-10.03,37.38-7.18,3.38-15.74,2.75-22.46-1.41-6.82-4.21-10.52-11.51-12.19-19.15-1.09-4.99-1.41-16.97,7.05-14.56,8.51,2.42,6.32,14.4,3.36,20.19-7.27,14.2-24.94,18.6-38.58,10.98-4.56-2.55-8.65,4.45-4.09,7,14.93,8.35,34.22,5.78,45.4-7.56,9.02-10.77,13.43-34.94-5.23-38.73-7.18-1.46-13.48,3.08-15.65,9.81-2.39,7.42-.48,16.05,2.48,23.01,6.91,16.28,25.33,25.29,42.12,18.25,19.01-7.97,22.25-29.81,15.64-47.37-1.82-4.84-9.66-2.74-7.82,2.16h0Z"/>
    <path class="st5" d="M246.7,501.31c.11,5.13,3.05,9.07,7.6,11.33,5.42,2.69,11.2,1.7,16.9.6,3.29-.64,14.74-2.57,12.7,4.35-.8,2.73-3.85,5.18-5.56,7.38-1.97,2.52-3.7,5.18-5.09,8.07-4.57,9.5-7.26,22.94-.54,32.17,7.22,9.94,20.1,6.21,27.43-1.47,4.13-4.33,7.57-9.24,11.85-13.46,5.33-5.27,11.24-9.89,17.66-13.76,4.51-2.72,12.28-7.16,15.94-1.01,3.25,5.46.14,12.04-3.06,16.68-7.23,10.49-18.83,18.18-20.22,31.86-1.18,11.67,6.78,20.81,18.2,22.28,13.6,1.75,26.87-7.26,36.37-16.09,9.99-9.29,17.27-21.13,21.32-34.14,1.75-5.62-7.05-8.02-8.79-2.42-3.44,11.05-9.55,20.99-17.86,29.05-7.63,7.39-19.92,16.87-31.28,14.37-5.71-1.26-9.28-5.62-8.98-11.52.33-6.41,4.64-11.77,8.7-16.38,7.08-8.04,16.01-16.68,16.04-28.21.03-9.5-6.54-18.02-16.54-17.69-10.67.34-21.33,9.35-29.01,15.97-4.25,3.66-8.15,7.69-11.74,12-3.56,4.28-8.52,12.16-15.12,10.87-4.81-.94-5.86-6.98-5.79-11.1.11-6.24,2.36-12.58,5.74-17.78,3.17-4.88,8.23-8.78,9.55-14.69,1.11-4.97-1.27-9.9-5.5-12.57-4.44-2.8-9.63-3.07-14.67-2.3-3.36.52-16.97,4.65-17.13-2.37-.13-5.86-9.25-5.88-9.12,0h0Z"/>
    <path class="st7" d="M303.1,603.04c-16.19-15.64-39.54-19.21-59.96-10.1-5.35,2.39-.72,10.25,4.6,7.88,16.6-7.41,35.88-3.91,48.91,8.67,4.22,4.08,10.68-2.36,6.45-6.45h0Z"/>
    <path class="st4" d="M494.18,485.27c-1.23.59-2.46,1.19-3.7,1.79-2.15,1.04-2.9,4.28-1.64,6.24,1.42,2.21,3.94,2.75,6.24,1.64,1.23-.6,2.46-1.19,3.7-1.79.98-.47,1.82-1.71,2.1-2.73.3-1.09.16-2.55-.46-3.51-1.43-2.21-3.93-2.75-6.24-1.64h0Z"/>
    <path class="st3" d="M495.22,552.45c-15.83,10.42-31.67,20.84-47.5,31.25-4.83,3.18-18.11,15.18-24.18,9.89-2.48-2.16-2.6-6.79-2.95-9.78-.53-4.43-.94-8.91-.88-13.37.11-7.93,2-16.37,7.89-22.08,6.15-5.96,15.59-6.96,23.74-6.85,16.06.22,31.77,6.21,43.89,16.73,4.41,3.83,10.89-2.59,6.45-6.45-11.63-10.1-25.78-16.63-41.07-18.68-14.47-1.94-32.09-.76-41.88,11.54s-9.29,30.68-6.37,45.64c1.26,6.44,5.02,11.98,11.77,13.35,8.15,1.65,15.23-3.53,21.64-7.75,18.02-11.85,36.03-23.71,54.05-35.56,4.88-3.21.32-11.11-4.6-7.88h0Z"/>
    <path class="st5" d="M456.44,158.96c10.11,13.76,20.22,27.53,30.33,41.29,1.78,2.42,5.88,6.37,5.42,9.54-.53,3.65-6.99,6.39-9.86,8.3-7.16,4.76-14.32,9.53-21.49,14.29-3.58,2.38-7.16,4.76-10.74,7.15-2.96,1.97-6.13,4.65-9.6,5.63-7.21,2.05-11.65-7.07-14.77-11.99-4.48-7.04-8.95-14.08-13.43-21.12-1.9-3-4.33-6.02-5.76-9.28-2.02-4.59,3.74-6.88,6.92-8.94,16.66-10.8,33.32-21.59,49.98-32.39,4.91-3.18.34-11.08-4.6-7.88-18.3,11.86-37.37,23.03-55.08,35.75-7.08,5.08-8.65,11.84-4.3,19.47,5.33,9.35,11.6,18.28,17.37,27.36,4.08,6.42,8.2,14.21,15.6,17.28,8.31,3.45,15.57-1.56,22.28-6.03,9.09-6.05,18.18-12.09,27.27-18.14,6.36-4.23,17.77-9.1,19.42-17.51.97-4.94-1.68-9.18-4.46-12.99-3.6-4.95-7.25-9.87-10.87-14.8-7.25-9.87-14.5-19.74-21.75-29.6-3.44-4.68-11.36-.14-7.88,4.6h0Z"/>
    <path class="st4" d="M474.62,487.28c-13.36-11.04-32.61-21.01-49.01-9.67-16,11.07-17.01,31.27-16.6,48.94.14,5.86,9.26,5.88,9.12,0-.32-13.71-.73-30.17,10.69-39.96,12.51-10.72,28.76-1.6,39.34,7.14,4.49,3.71,10.98-2.7,6.45-6.45h0Z"/>
    <path class="st3" d="M496.74,599.84c-6.32-.69-12.34-3.22-17.23-7.3-4.48-3.73-10.96,2.69-6.45,6.45,6.91,5.75,14.75,8.99,23.68,9.97,5.83.64,5.78-8.49,0-9.12h0Z"/>
    <ellipse class="st2" cx="245.4" cy="321.77" rx="26.55" ry="25.86"/>
    <ellipse class="st1" cx="352.81" cy="324.23" rx="32.52" ry="31.67"/>
    <path class="st1" d="M240.15,547.51l-26,11.8c-.74.34-1.18,1.1-1.08,1.89l3.49,27.72c.22,1.77-2.01,2.78-3.25,1.48l-19.56-20.43c-.56-.58-1.44-.75-2.18-.41l-26,11.8c-1.66.75-3.33-1-2.45-2.56l13.91-24.43c.4-.7.29-1.56-.27-2.14l-19.56-20.43c-1.25-1.3-.05-3.4,1.74-3.06l28.15,5.34c.8.15,1.61-.22,2.01-.91l13.91-24.43c.89-1.56,3.3-1.1,3.52.67l3.49,27.72c.1.79.71,1.43,1.51,1.58l28.15,5.34c1.79.34,2.09,2.72.44,3.47Z"/>
    <path class="st4" d="M450.3,362.84c8.48,0,8.49-13.17,0-13.17s-8.49,13.17,0,13.17h0Z"/>
    <path class="st5" d="M380.71,532.72c8.48,0,8.49-13.17,0-13.17s-8.49,13.17,0,13.17h0Z"/>
    <path class="st4" d="M395.69,609.9c8.48,0,8.49-13.17,0-13.17s-8.49,13.17,0,13.17h0Z"/>
    <path class="st5" d="M182.1,399.55c8.48,0,8.49-13.17,0-13.17s-8.49,13.17,0,13.17h0Z"/>
    <path class="st4" d="M133.29,559.08c8.48,0,8.49-13.17,0-13.17s-8.49,13.17,0,13.17h0Z"/>
    <path class="st4" d="M249.27,471.55c8.48,0,8.49-13.17,0-13.17s-8.49,13.17,0,13.17h0Z"/>
    <path class="st6" d="M437.5,91.31c8.48,0,8.49-13.17,0-13.17s-8.49,13.17,0,13.17h0Z"/>
    <path class="st3" d="M172.02,259.33c-13.81-1-27.18-4.68-39.57-10.86-3.49-1.74-7.76,1.13-6.7,5.15,5.98,22.55,15.2,44.1,27.39,63.98,3.06,5,10.95.42,7.88-4.6-11.81-19.26-20.68-39.97-26.47-61.8l-6.7,5.15c13.89,6.93,28.69,10.98,44.17,12.11,5.86.43,5.83-8.7,0-9.12h0Z"/>
    <path class="st3" d="M129.07,256.66c8.7,15.7,21.04,28.86,36.06,38.67,4.93,3.22,9.5-4.67,4.6-7.88-13.74-8.97-24.85-21.05-32.79-35.39-2.84-5.14-10.72-.54-7.88,4.6h0Z"/>
  </g>
</svg>