<?xml version="1.0" encoding="UTF-8"?>
<svg id="Layer_1" xmlns="http://www.w3.org/2000/svg" version="1.1" viewBox="0 0 5000 4000">
  <!-- Generator: Adobe Illustrator 30.1.0, SVG Export Plug-In . SVG Version: 2.1.1 Build 136)  -->
  <defs>
    <style>
      .st0 {
        fill: #333;
      }
    </style>
  </defs>
  <path class="st0" d="M642.27,1936.42c-34.18-26.43-88.62-45.95-132.37-47.47-170.55-5.72-270.84,202.97-296.23,342.7-3.93,21.64-8.85,43.72-13.6,65.08-4.3,19.29-8.74,39.24-12.49,59-10.61,55.86-11.54,113.05-12.45,168.35-.72,43.91-1.46,89.31-7.09,133.3-1.82,14.22-2.74,28-3.63,41.32-1.64,24.58-3.19,47.79-10.03,72.03-11.72,41.55-29.1,77.88-47.5,116.35-8.05,16.81-16.36,34.18-24.1,51.92-24.18,55.45-11.26,129.33,4.58,194.29,4.21,17.27,8.76,34.33,13.15,50.82,7.33,27.52,14.26,53.52,18.36,75.84,18.46,100.59,36.29,210.93,54.51,337.33,3.19,22.14,8.01,55.61,26.12,73.92,16.62,16.8,37.37,25.32,61.66,25.32,45.03,0,94.43-28.64,138.02-53.92,21.49-12.46,41.8-24.24,57.58-29.95,4.6-1.67,8.68-2.84,12.3-3.9,17.74-5.15,28.88-9.72,34.11-37.67,5.74-30.67,1.26-68.42-2.32-98.74l-.81-6.83c-2.31-19.87-5.17-39.57-7.93-58.62-8.41-58.03-16.36-112.84-9.97-171.63,3.07-28.18,8-56.78,12.77-84.44,8.48-49.16,17.26-100,16.19-151.48-.85-41.42-11.17-82.16-21.14-121.55-6.91-27.3-14.06-55.53-17.79-83.25-3.94-29.21-6.95-53.78-6.95-81.79,0-73.33,46.18-140.27,80.91-184.24,13.26-16.79,26.14-34.39,38.6-51.44,18.18-24.84,36.98-50.55,57.01-73.73,56.47-65.36,108.93-138.83,110.28-232.94,1.36-95.14-37.61-178.23-109.74-233.98ZM626.59,2390.26c-20.56,23.8-39.6,49.83-58.01,75-12.35,16.88-25.12,34.36-38.15,50.84-36.58,46.32-85.21,117.09-85.21,196.64,0,29.26,3.09,54.5,7.12,84.46,3.89,28.85,11.17,57.64,18.22,85.49,9.7,38.31,19.73,77.92,20.53,117.05,1.03,49.57-7.58,99.44-15.9,147.68-4.82,27.96-9.81,56.88-12.94,85.67-6.67,61.32,1.46,117.34,10.05,176.67,2.74,18.92,5.58,38.47,7.86,58.07l.81,6.87c3.43,28.97,7.71,65.03,2.53,92.71-3.23,17.26-5.8,18-20.03,22.13-3.98,1.16-8.47,2.46-13.54,4.3-17.47,6.33-38.52,18.54-60.81,31.46-41.41,24-88.34,51.22-127.99,51.22-19.01,0-34.53-6.35-47.44-19.38-13.47-13.62-17.72-43.16-20.54-62.71-18.25-126.67-36.12-237.26-54.63-338.1-4.24-23.11-11.26-49.46-18.7-77.37-4.36-16.36-8.87-33.29-13.04-50.42-15.05-61.71-27.49-131.54-5.68-181.55,7.6-17.41,15.84-34.63,23.8-51.28,17.96-37.54,36.53-76.35,48.72-119.55,7.41-26.25,9.1-51.61,10.74-76.13.87-13.03,1.77-26.49,3.51-40.11,5.78-45.1,6.53-91.06,7.26-135.52.89-54.45,1.82-110.77,12.1-164.94,3.69-19.45,8.1-39.25,12.36-58.39,4.8-21.54,9.76-43.82,13.76-65.85,22.92-126.19,116.38-326.39,269.56-326.39,2.09,0,4.17.04,6.3.12,39.33,1.37,90.14,19.57,120.83,43.29,67.03,51.81,103.24,129.19,101.97,217.87-1.19,82.84-43,147.93-105.42,220.16Z"/>
  <path class="st0" d="M2359.47,1834.15c-17.73-7.5-37.96-11.31-60.12-11.31-63.95,0-134.19,30.87-190.64,55.67-9.57,4.21-18.73,8.23-27.35,11.88l-22.54,9.53c-217.91,92.14-443.24,187.4-655.01,299.32-81.85,43.25-185.95,102.73-265.03,179.31-10.77,10.43-20.31,20.82-29.54,30.87-30.21,32.87-54.06,58.84-99.73,65.94-59.74,9.29-120.37,12.13-166.5,13.57-6.46.2-13.04.25-19.71.25l-28.8-.12c-36.2,0-77.76,1.53-112.85,19.85-48.16,25.17-83.49,66.12-115.53,105.92-44.82,55.64-68.78,105.75-73.25,153.17-7.92,84.23,32.93,163.94,124.89,243.69,40.81,35.39,80.93,53.34,119.24,53.35h0c28.65,0,56.53-10.02,82.88-29.77,34.25-25.67,61.7-58.57,88.26-90.4,23.58-28.25,47.96-57.47,76.67-80.89,13.61-11.1,27.32-22.06,41.03-33.03,24.68-19.74,50.2-40.15,74.73-61.06,12.29-10.48,24.45-21.6,36.21-32.35,21.69-19.84,44.13-40.35,67.93-57.35,37.79-26.97,77.87-49.04,116.63-70.38,87.16-48,169.48-93.33,225.21-188.84,4.61-7.9,9.11-15.8,13.58-23.65,27.38-48.08,53.23-93.48,97.62-127.9,46.4-36,101.18-38.4,159.17-40.93,23.83-1.05,48.47-2.12,72.47-5.71,58.62-8.78,111.82-27.62,170.31-49.51l11.55-4.33c22.69-8.52,46.13-17.32,69.44-25.21,19.84-6.73,40.55-12.67,60.57-18.42,47.56-13.65,96.73-27.77,140.82-53.84,45.63-26.98,67.74-67.39,67.59-123.56-.18-62.34-16.59-99.56-50.19-113.78ZM2331.89,2054.27c-41.89,24.78-89.81,38.54-136.15,51.85-20.25,5.81-41.18,11.82-61.47,18.69-23.61,7.99-47.22,16.86-70.05,25.42l-11.54,4.33c-57.42,21.49-109.56,39.97-166.25,48.46-22.99,3.44-47.09,4.49-70.39,5.52-58.57,2.56-119.13,5.21-170.56,45.11-47.54,36.87-74.36,83.95-102.74,133.8-4.44,7.8-8.91,15.63-13.48,23.48-52.94,90.73-132.91,134.77-217.57,181.4-39.27,21.62-79.87,43.97-118.6,71.63-24.79,17.7-47.68,38.62-69.81,58.86-11.64,10.64-23.67,21.65-35.69,31.9-24.29,20.71-49.68,41.03-74.24,60.66-13.75,11-27.51,22-41.17,33.13-30.21,24.64-55.21,54.61-79.39,83.58-25.82,30.94-52.51,62.93-84.9,87.22-54.19,40.62-113.03,32.82-177.02-22.71-86.73-75.21-125.36-149.37-118.08-226.7,4.08-43.4,26.63-90.01,68.91-142.51,30.72-38.14,64.46-77.34,109.21-100.72,31.07-16.23,68.21-17.59,103.59-17.59l28.8.12c6.88,0,13.68-.06,20.34-.26,46.71-1.46,108.13-4.35,168.95-13.8,52.59-8.17,81.15-39.26,111.39-72.18,9.03-9.83,18.38-20,28.73-30.02,77.27-74.82,179.78-133.36,260.46-176.01,211.01-111.5,435.93-206.6,653.45-298.57l22.55-9.53c8.7-3.68,17.95-7.74,27.61-11.99,54.75-24.05,122.86-53.98,182.6-53.98,19.46,0,37.07,3.27,52.32,9.73,25.41,10.75,37.83,41.96,37.98,95.42.14,49.14-18.21,82.91-57.76,106.28Z"/>
  <path class="st0" d="M1337.42,717.64c-25.89-12.23-59.73-14.8-83.55-14.8-49.97,0-116.53,12.36-152.57,40-30.65,23.5-51.74,59.55-72.13,94.41-7.73,13.22-15.03,25.71-22.66,37.17-39.65,59.59-81.85,118.84-122.65,176.14-36.65,51.46-74.54,104.68-110.54,158.06-37.35,55.38-72.14,113.53-105.79,169.76-21.13,35.3-42.97,71.82-65.19,107.2-30.38,48.38-30,101.62,1.17,167.57,72.12,152.59,125.14,316.08,176.4,474.19,7.91,24.39,15.82,48.78,23.79,73.12,7.62,23.26,15.42,46.47,23.21,69.69,8.29,24.68,16.58,49.37,24.66,74.12,8.15,24.98,31.71,58.57,59.31,71.62,15.34,7.25,32.08,10.92,49.78,10.92h0c37.86,0,79.97-17.63,112.65-47.15,102.92-92.99,47.44-235.17,2.86-349.41-13.32-34.14-25.9-66.37-33.69-95.04-14.98-55.19-15.24-113.62-.74-164.55,24.13-84.75,64.98-172.32,124.86-267.73,19.15-30.51,40.96-60.2,62.05-88.9,27.52-37.44,55.97-76.16,79.3-117.68,11.47-20.41,21.8-41.86,31.56-65.56,25.57-62.07,42.24-128.28,58.36-192.3,8.48-33.7,17.26-68.54,27.18-102.14,2.17-7.33,4.73-14.23,7.22-20.91,7.05-18.96,13.7-36.87,10.93-61.38-7.15-63.08-58.29-113.97-105.8-136.42ZM1413.54,908.46c-2.6,6.99-5.29,14.22-7.65,22.22-10.04,33.97-18.87,69.03-27.4,102.92-15.95,63.34-32.44,128.83-57.46,189.57-9.45,22.95-19.43,43.67-30.5,63.38-22.73,40.45-50.82,78.67-77.98,115.62-21.31,28.99-43.34,58.97-62.88,90.1-60.9,97.05-102.5,186.32-127.16,272.91-15.48,54.38-15.24,116.61.68,175.25,8.06,29.71,20.83,62.42,34.35,97.07,44.55,114.17,95.04,243.57,2.37,327.3-29.11,26.3-66.21,41.99-99.24,41.99h0c-14.72,0-28.59-3.03-41.24-9-21.72-10.26-41.88-38.44-48.84-59.75-8.1-24.8-16.41-49.54-24.72-74.28-7.78-23.16-15.56-46.33-23.16-69.55-7.96-24.33-15.86-48.69-23.77-73.07-51.46-158.71-104.67-322.81-177.34-476.56-27.98-59.2-28.72-106.35-2.32-148.38,22.33-35.57,44.24-72.17,65.42-107.57,33.51-56.01,68.16-113.92,105.21-168.86,35.85-53.16,73.67-106.27,110.24-157.63,40.89-57.43,83.18-116.81,123.01-176.66,7.94-11.94,15.39-24.68,23.27-38.15,19.42-33.2,39.5-67.54,67.03-88.64,27.98-21.46,84.41-35.87,140.4-35.87,30.79,0,57.42,4.58,75,12.89,42.5,20.08,88.18,65.15,94.47,120.59,2.24,19.76-3.34,34.77-9.8,52.15Z"/>
  <path class="st0" d="M1314.64,278.16c-13.37,0-27.14,1.57-40.92,4.68-107.32,24.17-207.21,62.04-314.35,119.16l-13.53,7.18c-34.12,18.04-72.79,38.49-102.29,62.29l-3.14,2.53c-42.52,34.3-82.68,66.68-103.72,121.27-21.14,54.86,9.91,106.04,37.3,151.18,4.24,6.98,8.38,13.82,12.21,20.48l1.89,3.28c11.11,19.22,31.79,54.97,18.39,72.64-6.12,8.08-17.02,11.84-34.29,11.84-14.09,0-29.95-2.55-45.28-5.01-17.25-2.76-33.49-5.34-46.04-4.21-93.76,8.42-121.22,137.33-128.67,192.37-4.16,30.73-5.51,62.86-3.69,88.14,2.91,40.34,31.77,76.42,77.2,96.5,21.26,9.4,39.74,14.16,54.9,14.16,3.18,0,6.25-.21,9.14-.63,47.55-7.05,82.36-64.93,107.78-107.2,5.67-9.44,11.04-18.35,15.85-25.56,20.13-30.14,44.06-58.44,67.2-85.8,25.45-30.1,51.77-61.22,73.67-95.4,13.45-20.99,26.33-43.81,38.78-65.88,23.99-42.51,48.79-86.47,79.69-121.37,26.87-30.34,62.53-32.1,103.83-34.13l25.22-1.3c99.85-5.09,224.12-11.44,270.75-122.09,24.92-59.13,8.75-136.12-3.11-176.77-22.03-75.47-81.34-122.36-154.79-122.36ZM1454.11,569.53c-41.75,99.09-154.16,104.82-253.34,109.88l-25.18,1.29c-41.97,2.07-85.38,4.2-117.82,40.85-32.3,36.48-57.64,81.38-82.14,124.8-12.88,22.84-25.05,44.4-38.2,64.92-21.19,33.07-47.08,63.67-72.1,93.28-23.5,27.79-47.79,56.52-68.55,87.6-5.08,7.6-10.56,16.72-16.36,26.37-23.36,38.85-55.36,92.05-93.56,97.71-2,.29-4.08.42-6.21.42-12.19,0-28.38-4.31-46.82-12.45-29.76-13.16-62.55-41-65.34-79.65-1.73-23.96-.43-54.59,3.55-84.02,5.31-39.24,28.99-167.81,110.64-175.14,1.54-.14,3.17-.2,4.87-.2,9.89,0,22.68,2.05,36.21,4.23,16.11,2.59,32.77,5.26,48.45,5.26,23.72,0,40.15-6.46,50.23-19.75,21.44-28.26-2.63-69.87-17.01-94.74l-1.87-3.23c-3.91-6.8-8.13-13.77-12.46-20.89-25-41.22-53.34-87.93-35.73-133.62,19.11-49.57,55.48-78.91,97.61-112.89l3.14-2.53c27.99-22.6,65.76-42.57,99.07-60.19l13.6-7.21c105.51-56.26,203.8-93.54,309.33-117.29,12.34-2.78,24.63-4.19,36.53-4.19,64.2,0,116.15,41.37,135.59,107.97,11.11,38.09,26.39,109.96,3.88,163.4Z"/>
  <path class="st0" d="M2969.38,185.03c-58.98,55.17-136.3,85.83-223.6,88.68-56.96,1.89-114.68-1.64-170.53-5.03-45.27-2.75-92.09-5.6-138.48-5.6h-3.4c-63.5.2-105.29,14-144.26,47.64l-8.96,7.77c-29.08,25.28-59.15,51.43-94.71,64.55-21.48,7.93-45.49,11.46-77.86,11.46-14.7,0-29.7-.72-44.21-1.42-5.42-.26-10.82-.52-16.18-.74l-32.27-1.26c-30.77-1.19-62.58-2.4-93.78-4.34-52.3-3.22-162.93-22.14-196.55-28.03l-5.86-1.03c-24.22-4.26-51.67-9.09-78.78-9.09-24.13,0-43.97,3.85-60.67,11.74-26.31,12.44-46.17,35.86-57.42,67.72-16.69,47.29-13.25,111.51,8.36,156.16,38.21,78.96,128.23,97.56,178.49,101.61,44.81,3.61,90.35,4.7,134.38,5.73,16.59.39,33.18.78,49.77,1.31,97.76,3.09,195.98,3.7,290.96,4.3l6.07.02c88.51,0,168.16-12.42,250.68-39.08,15.9-5.14,31.82-10.49,47.75-15.87,82.65-27.86,167.96-56.65,256.4-53.56,27.57.98,55.72,4.84,85.52,8.93,34.7,4.77,70.59,9.69,105.71,9.69,42.89,0,78.98-7.58,110.34-23.2,56.17-27.95,99.1-74.96,137.12-121.59l2.34-2.88c40.66-49.88,82.71-101.46,137.6-134.94,39.48-24.08,79.76-26.09,117.61-26.09,6.62,0,13.27.08,19.96.15,6.85.08,13.72.16,20.64.16,12.76,0,29.67-.22,47.29-2,126.21-12.71,232.97-153.92,269.14-296.89h-20.3c-34.95,134.18-133.98,265.21-250.85,276.99-16.73,1.68-32.98,1.9-45.27,1.9-6.85,0-13.65-.08-20.42-.15-6.77-.08-13.5-.16-20.19-.16-40.7,0-84.11,2.25-128.02,29.02-57.82,35.26-100.97,88.18-142.69,139.38l-2.35,2.88c-36.6,44.89-77.74,90.06-130.52,116.34-28.93,14.39-61.15,21.09-101.44,21.09-33.77,0-68.96-4.82-102.99-9.49-28.98-3.98-58.96-8.09-87.54-9.1-91.81-3.3-179.19,26.17-263.49,54.59-15.86,5.35-31.69,10.68-47.51,15.8-80.48,26-158.18,38.11-244.54,38.11l-5.95-.02c-94.85-.59-192.94-1.21-290.46-4.3-16.63-.52-33.28-.92-49.92-1.31-43.75-1.04-89-2.1-133.24-5.66-46-3.71-128.22-20.39-162.1-90.39-16.43-33.95-24.28-93.22-7.5-140.8,9.57-27.1,25.41-46.04,47.1-56.29,13.97-6.6,31.02-9.82,52.12-9.82,25.36,0,51.9,4.67,75.32,8.79l6.83,1.19c32.92,5.77,144.47,24.83,197.81,28.12,31.43,1.95,63.36,3.17,94.24,4.36l32.21,1.26c5.32.22,10.67.48,16.05.73,14.75.71,30,1.45,45.17,1.45,34.83,0,60.99-3.92,84.78-12.7,39-14.39,70.47-41.76,100.92-68.22l8.91-7.72c34.98-30.2,73.01-42.61,131.25-42.78h3.34c45.78,0,92.29,2.82,137.27,5.56,56.29,3.43,114.6,6.96,172.39,5.07,92.23-3.03,174.03-35.55,236.6-94.07,48.14-45.03,98.78-88.92,147.73-131.37,25.79-22.35,52.03-45.15,78.15-68.27h-30.26c-20.42,17.93-40.85,35.69-60.99,53.16-49.1,42.56-99.87,86.58-148.29,131.87Z"/>
  <path class="st0" d="M3810.94,3887.17c-4.75-119.61-72.39-189.58-185.61-191.97-1.62-.03-3.22-.05-4.82-.05-123.66,0-223.51,98.06-311.6,184.56-15.37,15.1-29.88,29.36-44.08,42.63-28.15,26.31-57.15,52.19-86.16,77.67h30.26c23.42-20.73,46.76-41.75,69.55-63.06,14.38-13.44,28.98-27.78,44.44-42.97,85.36-83.82,182.11-178.83,297.59-178.83l4.39.05c138.63,2.92,163.55,109.5,166.05,172.76,1.43,35.84-3.36,74.07-13.25,112.04h20.3c9.69-38.29,14.37-76.72,12.93-112.83Z"/>
  <path class="st0" d="M4313.01,177.97c-46.55-35.1-101.72-36.56-155.07-37.99l-9.77-.26c-23.73-.69-48.61-2.61-72.68-4.46-31.53-2.44-64.14-4.96-96.23-4.96-36.07,0-67.11,3.26-94.87,9.99-60.73,14.7-106.33,55.21-150.41,94.38-35.43,31.47-72.07,64.03-115.62,81.59-44.48,17.93-94.49,27.78-142.86,37.3-71.43,14.08-145.27,28.63-206.19,69.39-40.85,27.33-71.25,65.8-100.65,103.01-35.2,44.53-68.44,86.6-118.18,111.5-37.33,18.69-77.61,27.4-126.75,27.4-40.12,0-81.71-5.94-121.92-11.69-34.06-4.86-69.29-9.89-103.99-11.44-105.82-4.67-207.6,27.34-305.78,58.27-29.23,9.21-59.43,18.72-89.06,27.02-26.9,7.54-61.56,14.79-101.68,23.16-25.41,5.31-51.68,10.8-79.18,17.03-198.01,44.83-419.82,121.71-377.12,319.88,17.76,82.44,116.19,181.48,202.51,203.81,20.03,5.18,40.47,7.79,60.72,7.79h.02c135.53,0,247.81-114.23,330.49-213.75,8.58-10.33,18.78-23.87,30.59-39.53,48.3-64.12,129.15-171.43,194.85-171.43,26.01,0,47.96,16.72,67.11,51.11,30.77,55.26,74.99,83.28,131.44,83.28,68.71,0,145.84-40.71,213.89-76.64,35.21-18.58,68.48-36.14,96.72-46.07,61.23-21.52,125.44-37.66,187.53-53.25,74.06-18.6,150.63-37.85,223.36-66.45,146.72-57.71,290.09-130.08,428.74-200.05,99.14-50.04,201.66-101.79,304.38-147.63,52.58-23.48,110.29-52.46,139.69-89.49,14.28-18,20.11-38.12,17.34-59.8-3.96-31.03-26.89-65.06-61.35-91.04ZM4341.35,316.37c-30.31,38.2-99.11,68.91-132.17,83.67-103.15,46.04-205.89,97.89-305.24,148.03-138.24,69.78-281.19,141.92-427.05,199.3-71.52,28.13-147.46,47.22-220.91,65.66-62.53,15.72-127.2,31.97-189.3,53.79-29.63,10.42-63.54,28.32-99.42,47.27-65.99,34.83-140.78,74.32-204.54,74.32-49.34,0-86.61-23.89-113.95-73.01-22.69-40.73-51.14-61.39-84.59-61.39-75.67,0-157.01,107.95-210.83,179.39-11.65,15.46-21.72,28.81-30,38.79-79.88,96.16-187.89,206.54-315.12,206.52-18.57,0-37.32-2.4-55.71-7.17-78.74-20.35-171.85-113.79-187.97-188.65-38.77-179.97,161.23-250.7,361.99-296.15,27.34-6.19,53.54-11.67,78.86-16.95,40.48-8.47,75.44-15.77,102.99-23.5,29.93-8.38,60.3-17.95,89.66-27.21,90.21-28.42,183.5-57.8,278.68-57.8,6.72,0,13.47.15,20.22.44,33.73,1.5,68.46,6.46,102.04,11.25,40.92,5.85,83.22,11.89,124.76,11.89,52.36,0,95.49-9.38,135.69-29.51,53.73-26.9,89.93-72.71,124.93-116.99,28.45-36,57.85-73.2,96.09-98.79,57.58-38.54,129.43-52.7,198.92-66.39,49.29-9.71,100.24-19.75,146.48-38.4,46.76-18.85,84.71-52.56,121.42-85.18,44.2-39.27,85.95-76.37,141.84-89.88,26.2-6.35,55.69-9.43,90.17-9.43,31.32,0,63.54,2.49,94.69,4.89,24.3,1.88,49.42,3.82,73.63,4.52l9.82.27c52.51,1.39,102.12,2.71,143.55,33.96,30.24,22.79,50.25,51.8,53.54,77.58,2.06,16.15-2.36,31.24-13.16,44.84Z"/>
  <path class="st0" d="M1778.88,1372.23c-5.49-52.77-23.06-102.32-40.04-150.25-28.34-79.95-55.11-155.47-28.91-243.22,5.05-16.89,13.34-33.17,22.1-50.41,17.2-33.79,35-68.73,27.81-110.02-10.26-58.93-73.8-114.65-130.74-114.65-15.2,0-29.45,3.75-42.36,11.12-15.21,8.7-29.19,20.2-41.54,34.17-47.42,53.61-66.55,138.66-83.43,213.7-9.41,41.85-18.31,81.37-31.04,112.72-5.07,12.5-9.87,25.16-14.67,37.82-8.73,23.06-17.76,46.9-28.42,69.23-7.02,14.71-14.31,29-21.55,43.2-19.87,38.96-40.41,79.24-53.21,124.91l-1,3.56c-11.32,40.34-22,78.45-21.88,121.82.17,61.7,4.95,105.2,29.7,158.28,13.86,29.76,66.45,126.84,161.01,126.84,5.1,0,10.29-.29,15.43-.89,67.55-7.78,158.82-49.79,219.32-87.97,93.95-59.31,80.23-166.38,68.13-260.85-1.71-13.37-3.39-26.48-4.71-39.12ZM1704.79,1655.28c-58.57,36.97-146.51,77.6-210.93,85.01-4.38.51-8.81.76-13.14.76-82.73,0-130.28-88.24-142.89-115.27-23.18-49.75-27.67-91.05-27.83-149.9-.11-40.59,10.21-77.39,21.14-116.37l1-3.55c12.26-43.75,31.45-81.39,51.77-121.23,7.32-14.36,14.69-28.81,21.78-43.67,11.02-23.08,20.2-47.31,29.08-70.76,4.74-12.52,9.48-25.03,14.5-37.38,13.35-32.88,22.42-73.18,32.02-115.86,17.15-76.23,34.89-155.08,78.9-204.84,10.9-12.32,23.18-22.44,36.49-30.05,9.84-5.63,20.75-8.49,32.43-8.49,47.42,0,102.41,48.58,111.03,98.08,6.04,34.72-9.48,65.22-25.92,97.53-8.79,17.27-17.88,35.12-23.44,53.75-28.07,94,1.05,176.17,29.22,255.62,16.6,46.83,33.75,95.23,39,145.64,1.33,12.79,3.03,26.05,4.77,39.6,11.34,88.54,24.19,188.9-58.97,241.39Z"/>
  <path class="st0" d="M2770.58,1295.02c-44.79-2.56-86.96,10.07-135.83,40.23-56.71,35.02-105.87,79.6-153.4,122.71-27.05,24.53-55,49.88-83.72,72.83-70.6,56.43-153.53,64.2-232.61,64.2-24.71,0-49.61-1.31-73.69-2.56-23.81-1.25-48.43-2.54-72.58-2.54-52.64,0-93.28,6.19-131.8,20.06-73.58,26.5-140.22,70.66-204.67,113.36-9.27,6.14-18.52,12.27-27.75,18.32-34.83,22.83-64.46,41-101.95,49.86-26.1,6.16-65.73,13.52-106.31,13.52-24.57,0-46.59-2.7-65.45-8.03-36.63-10.35-67.39-17.25-98.44-17.25-36.19,0-69.46,9.94-101.71,30.38-67.48,42.77-104.01,140.32-88.86,237.25,12.6,80.59,59.59,138.96,125.67,156.17,12.99,3.38,26.81,5.1,41.07,5.1h0c56.21,0,112.56-26.07,162.27-49.07,7.88-3.64,15.59-7.22,23.12-10.6,12.19-5.47,24.5-10.96,36.89-16.47,55.47-24.73,112.84-50.29,168.55-78.45,63.47-32.08,132.73-58.57,199.71-84.19,78.83-30.16,160.33-61.34,234.49-102.24,78.83-43.47,134.13-67.4,217.64-77.57,23.2-2.83,46.68-4.31,69.37-5.74,57.68-3.63,117.32-7.39,173.89-33.87,60.38-28.26,103.59-76.45,145.38-123.05,18.23-20.33,37.09-41.37,57.01-60.28,3.34-3.17,7.27-6.83,11.64-10.89,51.86-48.22,148.38-137.99,124.87-203.48-15.4-42.9-86.66-56.22-112.82-57.73ZM2744.9,1541.58c-4.42,4.12-8.41,7.82-11.79,11.04-20.51,19.47-39.64,40.8-58.13,61.43-42.3,47.19-82.28,91.76-138.96,118.28-53.13,24.88-108.28,28.36-166.66,32.03-22.99,1.45-46.76,2.95-70.55,5.85-86.76,10.56-143.79,35.21-224.86,79.91-72.95,40.22-153.81,71.15-231.99,101.05-67.45,25.81-137.19,52.49-201.58,85.03-55.27,27.94-112.41,53.4-167.67,78.03-12.41,5.53-24.74,11.03-36.94,16.5-7.6,3.41-15.39,7.01-23.33,10.68-47.84,22.14-102.07,47.23-153.88,47.23-12.56,0-24.69-1.49-36.04-4.45-59.01-15.36-99.45-66.36-110.95-139.91-13.74-87.86,19.82-179.24,79.8-217.26,29.37-18.61,58.28-27.28,91.01-27.28,28.75,0,57.97,6.58,93,16.48,20.63,5.84,44.48,8.79,70.89,8.79,42.5,0,83.77-7.65,110.91-14.06,40.59-9.59,73.07-29.49,108.32-52.6,9.26-6.06,18.53-12.21,27.83-18.36,63.46-42.05,129.09-85.53,200.4-111.21,36.24-13.07,74.8-18.89,125.02-18.89,23.63,0,47.98,1.27,71.52,2.5,24.34,1.28,49.51,2.6,74.75,2.6,82.73,0,169.68-8.3,245.1-68.57,29.2-23.34,57.39-48.91,84.66-73.64,46.87-42.51,95.33-86.46,150.48-120.5,45.82-28.28,83.09-39.75,124.17-37.3,32.6,1.89,85.39,17.34,95.15,44.53,19.05,53.07-78.15,143.48-119.67,182.07Z"/>
  <path class="st0" d="M4576.08,309.78c-7.27,0-14.16.36-20.5,1.04-62.03,6.82-124.55,26.58-202.71,64.09-36.89,17.71-73.71,37.16-109.31,55.97-58.33,30.82-118.66,62.7-180.6,87.5-99.48,39.84-206.04,91.95-325.75,159.29-25.76,14.48-51.36,30.15-76.11,45.28-54.11,33.1-110.07,67.31-170.04,90.63-53.39,20.75-109.44,34.15-166.96,47.17l-14.57,3.28c-34.76,7.83-70.7,15.93-105.64,25.61-134.44,37.23-267.54,82.05-395.58,133.26-42.89,17.15-142.88,63.07-145.23,118.97-1.06,25.54,17.93,48.25,56.46,67.55,9,4.51,18.96,9.84,29.46,15.46,36.92,19.76,78.78,42.14,114.13,48.84,9.36,1.78,18.71,2.68,27.81,2.68h0c43.15,0,77.48-19.61,113.83-40.37l8.51-4.86c34.24-19.41,73.15-34.57,110.8-49.23l19.24-7.53c27.71-10.92,56.14-21.58,83.62-31.89,31.37-11.76,63.79-23.93,95.44-36.58,24.61-9.83,44.73-24.12,64.17-37.95,16.78-11.93,32.63-23.18,51.18-31.85,35.38-16.5,75.62-24.19,126.64-24.19,39.41,0,80.42,4.67,120.07,9.17,38.49,4.37,78.28,8.9,115.55,8.9,50.58,0,94.26-3.31,143.03-19.39,61.17-20.18,120.53-52.44,177.92-83.63,12.07-6.56,24.04-13.07,35.91-19.39,81.34-43.36,167.34-56.46,258.41-70.32,29.42-4.48,59.84-9.11,89.86-14.83,146.55-27.95,327.35-151.45,362.92-290.76,9.44-36.96,1.16-72.53-24.62-105.71-53.97-69.48-181.82-116.17-267.34-116.17ZM4848.67,526.72c-33.69,131.93-206.78,249.26-347.29,276.05-29.65,5.64-59.88,10.25-89.13,14.71-88.71,13.52-180.45,27.48-264.8,72.46-11.9,6.35-23.93,12.87-36.04,19.45-56.61,30.78-115.17,62.6-174.64,82.22-46.24,15.24-88.12,18.38-136.86,18.39-36.04,0-73.52-4.26-113.18-8.77-40.21-4.57-81.79-9.3-122.33-9.3-54.04,0-96.97,8.28-135.1,26.06-20.21,9.42-37.54,21.75-54.31,33.66-19.35,13.75-37.62,26.74-60.01,35.68-31.45,12.58-63.78,24.71-95.04,36.44-27.57,10.34-56.06,21.03-83.95,32.02l-19.16,7.48c-38.3,14.92-77.91,30.35-113.4,50.49l-8.56,4.88c-35.45,20.24-66.06,37.73-103.92,37.73-7.85,0-15.96-.78-24.08-2.32-32.35-6.13-72.77-27.75-108.43-46.83-10.68-5.71-20.79-11.11-29.94-15.69-30.86-15.46-46.14-31.88-45.44-48.84,1.52-36.18,72.42-77.16,132.68-101.24,127.36-50.94,259.76-95.54,393.49-132.56,34.48-9.55,70.19-17.6,104.71-25.37l14.59-3.28c58.29-13.19,115.14-26.79,169.79-48.04,61.64-23.96,118.37-58.65,173.22-92.2,24.61-15.06,50.05-30.61,75.49-44.92,118.95-66.9,224.73-118.63,323.39-158.14,62.91-25.2,123.7-57.32,182.5-88.4,35.43-18.71,72.06-38.08,108.61-55.62,76.04-36.49,136.56-55.67,196.25-62.24,5.62-.62,11.78-.93,18.31-.93,80.8,0,201.17,43.57,251.55,108.45,21.79,28.05,28.87,57.82,21.04,88.5Z"/>
  <path class="st0" d="M4540.18,2771.05c-22.77-10.69-48.74-15.89-79.38-15.89-34.64,0-70.66,6.6-105.52,12.99-33.86,6.21-65.85,12.08-95.62,12.08v10l-1.82-10c-66.73,0-103.26,26.94-149.52,61.06-5.1,3.75-10.35,7.63-15.82,11.59-33.69,24.47-64.39,45.97-99.05,61.31l-8.96,4c-23.91,10.77-53.65,24.17-79.91,24.17-7.62,0-14.68-1.14-20.97-3.41-33.74-12.12-53.12-64.78-53.6-96.53-.25-16.42.71-32.88,1.64-48.79.76-12.99,1.55-26.43,1.7-39.97.26-24.3.96-48.5,1.66-72.68.69-24.31,1.43-49.44,1.67-74.25.65-64.47-29.55-112.17-82.86-130.85-29.92-10.49-63.11-15.81-98.65-15.81-55.88,0-117.44,12.44-193.71,39.15-41.52,14.53-81.74,35.62-120.63,56.03-45.5,23.87-92.56,48.54-140.76,61.98-19.71,5.49-42.17,9.54-70.67,12.74-14.97,1.69-30.08,2.99-45.18,4.29-49.93,4.31-101.55,8.76-147.91,27.27-83.6,33.38-76.39,139.21-72.93,190.07,4.37,64.18,43.28,106.77,109.56,119.89,133.92,26.53,270.43,51.44,402.44,75.53l94.29,17.23c47.12,8.64,94.91,18.27,141.13,27.59,59.53,12,121.1,24.4,182.06,34.86,60.87,10.45,110.28,17.38,155.5,21.82,9.03.89,18.59,1.34,27.84,1.78,28.95,1.39,58.88,2.81,81.46,16.97,8.25,5.17,15.04,12.53,22.22,20.32,7.69,8.34,15.62,16.95,26.03,23.61,49.25,31.53,117.42,36.24,153.68,36.24,14.02,0,28.04-.66,41.65-1.96,136.05-12.98,227.08-108.62,279.49-186.57,34.81-51.78,47.47-134.95,30.09-197.76-11.85-42.81-36.27-73.96-70.62-90.1ZM4564.11,3047.76c-50,74.37-136.52,165.59-264.79,177.82-12.99,1.24-26.36,1.87-39.76,1.87-34.07,0-97.94-4.3-142.9-33.08-8.22-5.27-14.96-12.59-22.1-20.32-7.75-8.43-15.78-17.14-26.3-23.73-27.03-16.93-61.08-18.55-91.13-19.99-9.42-.45-18.32-.88-26.85-1.71-44.73-4.38-93.68-11.26-154.07-21.62-60.67-10.41-122.09-22.79-181.49-34.77-46.3-9.33-94.18-18.97-141.46-27.65l-94.31-17.24c-131.94-24.07-268.38-48.96-402.15-75.46-40.03-7.94-88.75-32.01-93.49-101.65-5.04-73.83-1.2-145.54,60.39-170.13,43.6-17.41,93.73-21.73,142.21-25.91,15.27-1.32,30.55-2.64,45.68-4.34,29.6-3.33,53.06-7.58,73.82-13.37,50.24-14,98.25-39.18,144.68-63.53,38.25-20.07,77.81-40.81,117.95-54.87,74.09-25.94,133.54-38.02,187.11-38.02,33.28,0,64.25,4.94,92.03,14.68,61.22,21.46,69.81,79.25,69.48,111.79-.24,24.62-.97,49.66-1.67,73.87-.69,24.3-1.4,48.61-1.66,73.04-.14,13.07-.92,26.26-1.66,39.01-.96,16.28-1.94,33.11-1.68,50.27.6,38.38,24.16,99.71,66.85,115.05,8.47,3.04,17.79,4.58,27.72,4.58,30.56,0,62.48-14.38,88.12-25.93l8.84-3.96c36.46-16.12,68.09-38.25,102.72-63.4,5.5-4,10.79-7.9,15.93-11.69,46.67-34.42,77.51-57.16,137.66-57.16h1.82c31.59,0,65.98-6.31,99.23-12.4,33.96-6.23,69.09-12.67,101.9-12.67,27.64,0,50.83,4.57,70.89,13.99,36.52,17.15,52.71,51.51,59.84,77.32,15.96,57.68,4.43,133.92-27.41,181.28Z"/>
  <path class="st0" d="M3930.19,3790.65c25.88-108.47,183.23-122.21,287.36-131.3,7.48-.65,14.64-1.28,21.4-1.9,93.7-8.78,159.71-103.97,174.25-189.1,3.89-22.73,5.93-46.67,7.9-69.81,4.54-53.32,9.25-108.46,36.74-152.69,27.44-44.16,74.91-77.61,120.82-109.95,17.15-12.08,34.88-24.58,50.89-37.24,32.74-25.89,59.38-54.73,79.18-85.73,16.4-25.67,21.73-48.48,27.36-72.61,2.76-11.8,5.62-23.99,9.92-36.93,6.58-19.79,16.22-39.14,25.55-57.84,7.29-14.63,14.82-29.76,21.06-45.32,12.12-30.29,27.57-59.36,42.5-87.46,12.91-24.3,26.25-49.41,37.56-75.45,3.4-7.82,6.87-16.09,10.45-24.66,19.32-46.17,41.22-98.51,74.93-134.19,13.17-13.95,27.05-24.06,41.94-30.74v-21.57c-20.41,7.58-39.36,20.46-56.47,38.58-36.22,38.33-59.86,94.81-78.85,140.2-3.55,8.48-6.98,16.67-10.34,24.41-11,25.32-24.15,50.09-36.88,74.03-15.18,28.57-30.88,58.12-43.41,89.4-5.93,14.81-13.28,29.57-20.39,43.84-9.64,19.34-19.59,39.32-26.63,60.46-4.59,13.8-7.55,26.46-10.41,38.69-5.47,23.4-10.19,43.6-24.75,66.4-18.59,29.12-43.73,56.31-74.73,80.81-15.58,12.31-32.3,24.09-50.01,36.57-47.54,33.5-96.7,68.13-126.29,115.74-30.02,48.31-34.93,105.88-39.68,161.54-1.93,22.73-3.94,46.24-7.68,68.15-13.29,77.78-72.63,164.7-156.4,172.54-6.73.63-13.84,1.26-21.28,1.9-103.17,9.01-275.86,24.08-305.08,146.57-14.67,61.45-5.49,147.84,29.74,213.99h22.82c-37.33-62.34-47.57-148.73-33.11-209.35Z"/>
  <path class="st0" d="M4980.44,3122.29c-11.59,60.22-49.95,111.25-87.05,160.59-11.56,15.38-23.52,31.29-34.39,47.15-48.22,70.26-86.41,150.77-110.45,232.81-5.13,17.52-9.07,36.61-13.24,56.82-9.85,47.7-20.03,97-46.82,129.26-19.44,23.41-41.12,43.13-64.06,64.01-9.68,8.8-19.37,17.63-28.91,26.75-17.29,16.53-26.7,34.38-36.67,53.26-2.64,4.99-5.32,10.08-8.21,15.25-22.4,39.98-52.81,68.91-83.34,91.82h31.94c25.37-21.58,49.72-47.91,68.84-82.05,2.99-5.32,5.75-10.55,8.46-15.68,9.59-18.16,17.87-33.86,32.81-48.14,9.41-9.01,18.98-17.72,28.54-26.41,22.44-20.42,45.65-41.54,66-66.04,29.97-36.09,40.66-87.89,51.02-137.99,4.08-19.79,7.94-38.5,12.85-55.23,23.45-80.04,60.7-158.57,107.73-227.13,10.63-15.5,22.46-31.22,33.9-46.44,38.39-51.05,78.06-103.85,90.62-168.42v-91.12c-7.44,29.21-14.01,58.15-19.56,86.93Z"/>
  <path class="st0" d="M4434.99,22.46c-49.79,32.34-90.71,53.36-128.79,66.12-36.81,12.34-80.56,15.62-110.77,16.2-2.4.05-4.8.08-7.23.08h-.04c-75.62,0-144.27-21.93-188.33-60.16-14.28-12.4-26.36-27.71-36.54-44.71h-22.83c12.26,23.01,27.61,43.61,46.27,59.8,47.65,41.35,121.06,65.05,201.44,65.06h.04c2.55,0,5.08-.03,7.62-.08,31.61-.61,77.53-4.08,116.74-17.24,39.72-13.31,82.08-35.02,133.33-68.31,17.36-11.29,35.6-24.14,53.35-39.24h-31.93c-10.88,8.16-21.77,15.62-32.31,22.46Z"/>
  <path class="st0" d="M79.92,2849.87c29.73-78.71,63.42-167.92,63.42-263.37,0-77.55-26.92-168.1-102.78-168.1-7.22,0-14.83.83-22.62,2.47-6.1,1.29-12.07,3.1-17.94,5.27v21.57c7.11-3.19,14.43-5.67,22.06-7.28,6.44-1.36,12.66-2.04,18.5-2.04,80.46,0,82.78,132.94,82.78,148.1,0,91.8-31.58,175.43-62.13,256.3-25.18,66.65-45.35,130.26-61.21,192.56v91.08c.02-.12.06-.24.08-.37,17.15-89.04,43.26-179.39,79.84-276.2Z"/>
  <path class="st0" d="M2234.86,117.5c25.94,13.42,51.74,29.47,76.68,44.99,56.09,34.89,114.08,70.97,181.52,83.17,11.56,2.09,23.3,3.16,34.88,3.16,38.12,0,73.56-11.24,102.53-32.5,38.35-28.14,74.05-102.2,40.47-149.68-20-28.27-48.55-48.45-78.17-66.65h-38.87c2.02,1.19,4.04,2.42,6.05,3.6,35.42,20.97,72.05,42.64,94.66,74.6,25.4,35.91-4.32,98.77-35.98,122.01-25.51,18.71-56.87,28.61-90.69,28.61-10.39,0-20.92-.96-31.32-2.84-63.68-11.53-120.03-46.58-174.52-80.48-25.27-15.72-51.42-31.99-78.05-45.78-26.05-13.48-52.56-29.53-78.2-45.06-31.59-19.13-63.83-38.5-97.23-54.67h-51.04c47.81,17.43,93.49,44.88,137.89,71.78,25.94,15.69,52.73,31.93,79.38,45.72Z"/>
  <path class="st0" d="M4917.19,1185.98c-25.54-15.92-54.39-22.7-82.29-29.24-19.78-4.65-38.45-9.02-55.98-16.41-64.7-27.2-116.11-78.44-165.84-127.98l-12.3-12.25c-49.95-49.5-50.4-101.3-1.36-153.96,22.69-24.35,50.09-36.19,83.78-36.19,23.02,0,48.88,5.3,81.38,16.7,17.67,6.18,35.94,12.05,53.6,17.72,47.24,15.17,96.08,30.85,139.26,54.53l16.57,9.12c8.73,4.8,17.37,9.55,26,14.25v-22.78c-5.43-2.99-10.87-5.98-16.35-8.98l-16.61-9.14c-44.85-24.6-94.62-40.59-142.75-56.04-17.55-5.62-35.68-11.45-53.1-17.56-34.7-12.16-62.66-17.82-88-17.82-39.55,0-71.74,13.92-98.41,42.56-56.19,60.32-55.52,124.89,1.9,181.81l12.28,12.21c51.08,50.9,103.91,103.54,172.2,132.25,19.08,8.03,39.45,12.81,59.16,17.44,27.54,6.46,53.55,12.56,76.28,26.74,36.2,22.56,66.04,52.01,93.4,83.32v-29.85c-24.37-26.21-51.08-50.67-82.81-70.44Z"/>
  <path class="st0" d="M239.15,1501.27c26.3,9.37,52.71,14.82,78.47,16.21,5.52.3,11.01.45,16.44.45h0c74.65,0,140.6-27.3,185.7-76.88,42.86-47.12,62.82-111.41,56.22-181.04-15.13-159.5-185.25-212.53-335.35-259.31-32.42-10.1-63.03-19.65-91.59-30.02-52.41-19.06-99.87-44.22-149.04-71.2v22.79c46.48,25.36,91.88,48.91,142.21,67.2,29,10.54,59.83,20.16,92.47,30.32,144.14,44.93,307.51,95.85,321.39,242.1,6.15,64.88-11.51,122.18-51.1,165.69-44.3,48.7-110.93,74.01-186.28,69.93-23.84-1.29-48.34-6.37-72.83-15.09-85.46-30.46-135.69-92.78-188.86-158.78-18.22-22.62-36.81-45.51-57-67.23v29.84c14.31,16.38,27.97,33.23,41.43,49.93,52.57,65.24,106.94,132.72,197.72,165.07Z"/>
  <path class="st0" d="M4928.96,2373.31c-19.4,30.51-35.65,63.16-51.38,94.74-16.05,32.24-32.66,65.58-52.42,96.15-38.75,59.94-82.68,127.88-143.75,172.8-18.54,13.63-37.7,20.26-58.57,20.26-33.12,0-66.05-16.57-96.72-34.48-41.74-24.38-81.13-37.29-122.83-50.96-14.82-4.85-30.15-9.88-45.86-15.53-37.56-13.49-67.34-42.67-88.53-86.72-24.7-51.39-16.88-88.62,28.82-137.4,58.38-62.29,132.33-98.01,210.64-135.82,8.3-4,16.61-8.02,24.9-12.07,120.89-59,173.17-163.99,228.53-275.15,5.18-10.39,10.38-20.84,15.67-31.33,13.97-27.68,24.42-57.68,34.52-86.7,15.28-43.89,31.08-89.28,59.17-125.88,31.57-41.18,78.81-55.16,128.84-69.87v-20.87c-1.73.51-3.48,1.04-5.21,1.55-51.06,15.01-103.86,30.54-139.51,77.02-30.03,39.16-46.38,86.09-62.18,131.47-9.88,28.41-20.11,57.77-33.49,84.26-5.31,10.52-10.54,21.01-15.72,31.43-53.8,108.03-104.61,210.07-219.39,266.09-8.27,4.03-16.55,8.04-24.83,12.03-76.5,36.94-155.62,75.15-216.53,140.16-37.43,39.94-67.25,86.93-32.26,159.75,23.54,48.95,57.11,81.54,99.79,96.88,15.98,5.73,31.44,10.8,46.39,15.7,40.66,13.32,79.07,25.91,118.98,49.22,31.5,18.4,68.83,37.22,106.8,37.22h0c25.28,0,48.32-7.9,70.42-24.15,64.02-47.09,109-116.67,148.69-178.06,20.38-31.51,37.23-65.36,53.53-98.1,15.5-31.12,31.51-63.29,50.35-92.93,16.54-26.01,34.95-51.21,54.16-75.85v-32.23c-25.21,31.33-49.57,63.59-71.04,97.35Z"/>
  <path class="st0" d="M74.25,2217.77c22.76-27.1,47.27-55.4,74.91-86.52,43.72-49.2,89.13-98.44,133.04-146.05,56.03-60.76,113.96-123.59,169.12-187.13,7.35-8.46,15.58-16.52,24.29-25.06,28.5-27.93,57.97-56.82,57.46-101.41-.57-49.71-37.32-114.76-85.66-127.44-37.42-9.81-84.17-7.62-123.83,5.55l-5.3,1.76c-81.51,27.03-165.8,55-243.15,95.33-23.25,12.11-49.46,20.14-75.1,27.7v20.87c.15-.04.29-.09.43-.13,28.2-8.29,57.36-16.87,83.92-30.7,75.93-39.59,159.44-67.29,240.2-94.08l5.31-1.76c21.09-7.01,44.29-10.7,67.09-10.7,16.14,0,31.41,1.86,45.37,5.53,38.62,10.13,70.28,67.54,70.74,108.3.41,36.06-24.79,60.76-51.46,86.9-8.61,8.44-17.51,17.16-25.39,26.24-54.96,63.3-112.79,126.02-168.72,186.67-43.97,47.69-89.44,96.99-133.29,146.34-27.77,31.26-52.39,59.7-75.27,86.93l-6.84,8.13c-17.35,20.62-34.91,41.56-52.1,62.92v32.23c21.89-28.09,44.83-55.44,67.4-82.28l6.85-8.13Z"/>
  <path class="st0" d="M721.78,3936.85c26.57-19.66,53.04-39.19,79.47-58.24,104.84-75.62,203.37-161.57,298.65-244.7l4.09-3.55c8.67-7.58,17.32-15.19,25.99-22.8,45.19-39.77,91.91-80.89,142.02-115.36,12.04-8.29,24.51-16.05,37.71-24.27,41.52-25.85,84.45-52.58,111.36-95.24,40.02-63.45,6.56-122.73-22.97-175.04l-4.09-7.26c-14.79-26.32-32.6-52.15-72.9-53.85-48.4-2.02-92.35,29.33-131.02,56.88-7.43,5.3-14.64,10.44-21.62,15.13-50.34,33.88-96.37,74.46-140.87,113.7-53.28,46.97-108.37,95.55-170.53,132.08-66.38,39.02-142.52,51.61-194.72,55.31-5.28.37-10.61.66-15.96.97-23.41,1.32-47.62,2.68-70.67,10.18-25.26,8.22-36.84,21.79-49.09,36.15-3.72,4.36-7.65,8.96-12.25,13.78-51.88,54.16-113.32,100.67-164.36,124.42-76.14,35.43-159.12,50.09-239.37,64.28-17.86,3.15-34.38,6.51-50.37,9.77-20.17,4.11-39.77,8.1-60.29,11.24v20.21c22-3.28,42.84-7.49,64.28-11.86,15.83-3.22,32.18-6.55,49.86-9.68,77.72-13.73,165.81-29.3,244.33-65.84,53.18-24.74,116.87-72.86,170.37-128.72,4.89-5.11,9.07-10,13.02-14.63,11.71-13.72,20.17-23.63,40.07-30.11,20.58-6.7,43.47-7.99,65.61-9.23,5.44-.3,10.87-.62,16.25-1,54.33-3.84,133.73-17.03,203.44-58.01,63.8-37.51,119.63-86.73,173.62-134.33,44.03-38.82,89.55-78.95,138.81-112.1,7.11-4.79,14.48-10.03,22.06-15.44,35.05-24.96,74.77-53.26,115-53.26,1.19,0,2.38.03,3.57.08,27.5,1.16,40.54,15.62,56.3,43.66l4.11,7.29c29.38,52.03,57.12,101.18,23.47,154.54-24.46,38.78-65.41,64.28-105.01,88.93-12.82,7.98-26.07,16.23-38.49,24.77-51.09,35.16-98.27,76.68-143.9,116.83-8.64,7.6-17.27,15.2-25.92,22.74l-4.08,3.56c-94.94,82.82-193.12,168.46-297.21,243.54-26.5,19.11-53.02,38.68-79.66,58.4l-12.75,9.44c-31.38,23.24-63.13,46.67-95.21,69.79h34.14c24.53-17.87,48.86-35.86,72.97-53.71l12.74-9.44Z"/>
  <path class="st0" d="M4697.77,3849.96c82.2-34.46,175.39-41.27,238.35-43.39,23.16-.78,43.98-2.99,63.88-5.95v-20.21c-20.17,3.11-41.21,5.39-64.55,6.18-64.53,2.17-160.18,9.19-245.41,44.93-70.73,29.65-114.91,95.41-132.73,168.48h20.32c17.06-65.39,57.03-123.57,120.15-150.04Z"/>
  <path class="st0" d="M4960.68,251.99c-72.53,30.02-141.24,58.43-213.82,55.76-61.98-2.22-149-95.18-166.38-149.98-15.5-48.92-16.46-105.63-2.86-157.77h-20.32c-13.3,54.52-11.95,113.11,4.12,163.81,19.45,61.39,111.88,161.33,184.73,163.93,3.3.12,6.59.18,9.88.18,73.54,0,144.08-29.2,212.29-57.43,10.5-4.35,21.05-8.7,31.67-12.99v-21.55c-13.19,5.25-26.3,10.67-39.32,16.05Z"/>
  <path class="st0" d="M207.87,213.88c5.28.05,10.39.11,15.39.11,32.36,0,62.92-1.8,109.37-23.79,14.66-6.95,29.72-14.53,44.75-22.52C467,120,552.79,60.7,636.07,0h-34.14c-75.68,54.55-153.4,107.17-233.96,150.02-14.76,7.85-29.54,15.28-43.92,22.09-49.56,23.5-78.02,22.17-115.98,21.77-13.09-.14-27.28-.28-43.52.34-56.72,2.17-111.42,20.57-164.56,41.72v21.56c53.87-21.74,109.16-41.15,165.32-43.3,15.88-.59,29.73-.45,42.55-.32Z"/>
  <path class="st0" d="M2042.01,94.57l-1.68-.67c-43.71-17.57-94.8-37.2-142.45-49.55-85.62-22.2-176.48-28.88-269.8-34.25-23.17-1.35-47.38-1.99-74.01-1.99-45,0-90.54,1.9-134.58,3.75-43.86,1.83-89.21,3.72-134.79,3.72h-2.81c-32.1,0-64.33.32-96.57.64-32.21.32-64.44.65-96.59.65-38.6,0-70.71-.47-101.04-1.46l-14.41-.48c-21.59-.74-43.91-1.5-65.91-1.5-14.95,0-28.39.34-41.1,1.06-47.26,2.66-85.86,10.51-121.48,24.75-19.24,7.69-39.36,14.69-60.65,22.09-35.23,12.27-71.66,24.94-105.2,41.35-50.79,24.86-101.53,51.89-150.61,78.03-42.12,22.44-85.67,45.64-128.96,67.3-10.31,5.16-22.43,10.59-35.26,16.34-53.43,23.96-119.92,53.77-142.05,101.46-35.55,76.63,48.95,216.75,107.09,255.91,49.66,33.44,113.32,52.62,174.65,52.62,39.39,0,75.49-7.68,107.3-22.79,41.32-19.65,78.53-49.14,114.51-77.67,27.86-22.08,56.67-44.93,86.86-62.69,124.85-73.42,253.19-134.7,381.46-182.13,12.49-4.61,25.52-9.64,38.98-14.82,71.45-27.56,152.44-58.79,227.49-58.79,29.17,0,55.74,4.91,78.99,14.6l9.1,3.81c36.34,15.23,77.52,32.49,117.06,36.5,19.43,1.96,38.83,3.53,58.23,5.1,32.12,2.59,65.34,5.26,97.86,9.83,93.01,13.07,192.29,26.48,293.59,34.42,16.83,1.32,36.73,2.67,56.75,2.67,50.9,0,115.27-7.52,161.77-66.17,14.25-17.99,18.81-37.17,13.54-57.01-16.52-62.32-125.08-112.39-205.29-144.63ZM2218.09,283.79c-32.12,40.53-77.18,58.59-146.09,58.59-19.34,0-38.75-1.32-55.19-2.61-100.73-7.9-199.67-21.27-292.37-34.29-33.11-4.65-66.62-7.35-99.03-9.96-19.26-1.56-38.53-3.11-57.82-5.07-36.57-3.7-76.29-20.36-111.34-35.05l-9.14-3.82c-25.7-10.71-54.87-16.14-86.69-16.14-78.78,0-161.61,31.94-234.69,60.13-13.37,5.15-26.31,10.15-38.72,14.74-129.38,47.83-258.79,109.63-384.66,183.65-31.38,18.46-60.75,41.73-89.14,64.24-35.11,27.83-71.42,56.6-110.67,75.27-29.11,13.85-62.32,20.86-98.72,20.86-57.46,0-117.04-17.94-163.48-49.22-57.99-39.05-129.35-167.89-100.12-230.89,18.98-40.92,81.7-69.03,132.09-91.63,13.03-5.84,25.33-11.37,36.03-16.72,43.51-21.77,87.18-45.03,129.41-67.52,48.92-26.06,99.51-53.01,149.99-77.71,32.46-15.88,68.31-28.36,102.98-40.43,21.51-7.48,41.84-14.55,61.5-22.4,33.55-13.4,70.15-20.82,115.18-23.36,12.33-.68,25.41-1.03,39.98-1.03,21.66,0,43.8.75,65.22,1.49l14.44.49c30.55,1,62.86,1.46,101.69,1.46,32.22,0,64.51-.33,96.79-.65,32.18-.32,64.33-.64,96.37-.64h3.75c45.05,0,90.62-1.9,134.68-3.74,43.84-1.84,89.17-3.73,133.75-3.73,26.24,0,50.07.64,72.86,1.95,92.29,5.32,182.06,11.89,265.93,33.64,46.55,12.07,96.89,31.42,140.01,48.75l1.68.67c117.81,47.34,182.89,91.48,193.42,131.2,3.61,13.6.38,26.51-9.88,39.46Z"/>
  <path class="st0" d="M2514.4,3950.42c-13.13-10.13-26.09-20.58-39.05-31.04-45.12-36.42-91.77-74.06-147.05-97.69-63.24-27.01-133.91-60.92-172.22-121.51-1.4-2.21-2.84-4.44-4.37-6.69-18.26-26.93-47.75-59.09-75.14-81.92-30.11-25.09-72.37-40.16-113.25-54.74-15.24-5.44-29.66-10.59-42.84-16.05-56.22-23.33-114.43-41.02-170.73-58.12-39.67-12.06-80.7-24.52-120.43-38.81-47.4-17.02-104.84-21.88-158.51-13.54-73.67,11.47-133.32,55.1-192.98,102.63-12.48,9.94-24.98,19.74-37.43,29.48-73.69,57.71-143.29,112.21-198.47,188.37-55.04,76,14.94,146.54,37.93,169.73,44.56,44.92,92.79,54.99,151.22,63.48,16.03,2.33,32.32,3.51,48.45,3.51,44.02,0,87.77-8.41,133.75-25.71,7.56-2.84,15.06-5.52,22.52-8.16,22.77-8.11,46.32-16.48,69-29.13,18.2-10.15,42.17-22.12,66.09-24.61,4.72-.49,9.58-.74,14.48-.74,31.73,0,63.27,10.52,93.76,20.69,9.39,3.13,18.75,6.25,28.12,9.09,15.93,4.82,33.23,7.07,54.43,7.07,10.48,0,21.04-.52,31.25-1.03,14.02-.69,28.45-1.41,42.72-.74,29.49,1.38,55.62,14.57,83.28,28.54,20.38,10.29,41.46,20.94,64.08,26.46,11.68,2.85,23.16,6.61,34.57,10.77h51.04c-26.13-12.65-52.95-23.39-80.86-30.21-20.4-4.98-39.55-14.65-59.81-24.88-28.31-14.3-57.59-29.08-91.35-30.66-4.35-.2-8.68-.28-13-.28-10.68,0-21.34.52-31.65,1.04-9.97.49-20.27,1-30.26,1-19.45,0-34.45-1.91-48.64-6.21-9.19-2.78-18.38-5.85-27.59-8.93-32.01-10.67-65.12-21.72-100.09-21.72-5.58,0-11.15.29-16.55.85-27.54,2.87-53.88,15.96-73.75,27.04-21.22,11.83-42.96,19.56-65.97,27.74-7.56,2.7-15.18,5.4-22.86,8.29-59.61,22.44-115.85,29.33-172.27,21.14-54.68-7.95-99.69-17.26-139.89-57.77-56.03-56.48-67.11-100.87-35.93-143.91,53.53-73.89,122.05-127.55,194.59-184.37,12.5-9.78,25.04-19.6,37.56-29.58,59.67-47.55,114.67-87.77,183.59-98.51,50.4-7.86,104.39-3.31,148.67,12.6,40.2,14.44,81.47,26.98,121.38,39.11,55.84,16.97,113.57,34.52,168.87,57.47,13.66,5.66,28.3,10.89,43.8,16.42,39.23,13.99,79.79,28.46,107.17,51.27,26.06,21.73,54.09,52.26,71.4,77.78,1.41,2.07,2.73,4.12,4,6.14,41.37,65.45,115.25,101.03,181.27,129.23,52.73,22.53,98.28,59.29,142.34,94.84,13.08,10.56,26.15,21.1,39.41,31.32,15.97,12.29,33.96,23.21,51.69,33.74h38.89c-7.53-4.62-15.11-9.15-22.65-13.61-20.01-11.84-38.92-23.03-55.73-35.97Z"/>
  <path class="st0" d="M2693.43,2021.74c-20.21-17.71-52.71-29.16-78.83-38.36-5.08-1.8-9.94-3.51-14.46-5.18-13.56-5-28.55-7.54-44.56-7.54-45.65,0-89.9,20.61-112.22,32.9-21.57,11.88-37.68,28.9-53.25,45.35-13.7,14.47-26.64,28.14-42.86,38.31-36.7,23-80.76,34.95-130.38,47.14l-17.53,4.25c-53.63,12.91-109.09,26.27-154.96,55.91-51.09,33.03-58.72,83.78-66.1,132.87-2.39,15.94-4.87,32.41-8.82,48.18-13.5,54.02-50.83,86.54-114.12,99.42-39.39,8.01-80.77,8.63-120.77,9.23-26.45.4-53.81.81-80.65,3.32-40.32,3.78-79.75,17.63-124.07,43.6-27.03,15.84-53.01,34.46-78.14,52.47-9.4,6.73-18.77,13.45-28.16,20-116.82,81.46-221.55,155.48-320.31,236.61-40.57,33.32-80.98,68.09-120.07,101.72-45.4,39.05-92.34,79.43-139.65,117.67-53.95,43.59-102.67,79.66-148.94,110.25-53.3,35.24-110.26,79.71-111.46,161.46-.42,28.94-1.56,105.81,64.75,121.08,8.69,2,17.97,3.02,27.6,3.02h.01c70.61,0,153.31-54.72,213.69-94.67,12.71-8.42,24.55-16.25,35.21-22.88,19.34-12.02,38.58-24.13,57.81-36.23,71.82-45.17,146.08-91.88,222.48-132.53,8.23-4.38,16.46-9.26,24.74-14.17,16.53-9.8,33.62-19.95,51-25.93,28.73-9.86,60.26-15.69,90.76-21.34,22.86-4.23,46.49-8.6,69.08-14.67,47.85-12.85,87.24-47.89,117.06-104.13,2.59-4.88,5-9.82,7.4-14.75,7.3-14.97,14.19-29.11,25.47-39.74,30.37-28.6,68.48-41.63,108.82-55.42,14.54-4.97,29.57-10.11,44.01-16,28.85-11.76,70.7-32.77,106.28-66.08,17.11-16.03,25.53-35.13,33.66-53.59,4.22-9.57,8.57-19.47,14.1-28.72,5.86-9.79,11.11-19.62,16.19-29.12,10.02-18.76,19.49-36.48,32.85-53.08,23.44-29.12,61.67-49.76,113.63-61.34,34.39-7.66,68.01-17.95,100.53-27.91,15.14-4.64,30.31-9.29,45.68-13.72,28.85-8.32,57.68-16.17,86.46-24.01,56.08-15.28,114.08-31.07,170.76-50.09,13.69-4.59,28.11-9.15,42.93-13.83,130.35-41.22,308.88-97.67,261.13-284.45-11.2-43.79-42.6-107.97-73.8-135.3ZM2500.06,2422.42c-14.92,4.72-29.45,9.31-43.24,13.94-56.15,18.83-113.87,34.55-169.68,49.76-28.88,7.87-57.79,15.75-86.73,24.09-15.49,4.46-30.78,9.15-46.02,13.82-32.15,9.84-65.39,20.02-99,27.51-56.51,12.59-98.54,35.58-124.88,68.32-14.53,18.06-24.88,37.44-34.9,56.19-4.98,9.29-10.12,18.91-15.72,28.29-6.15,10.31-10.77,20.79-15.23,30.92-7.66,17.39-14.89,33.82-29.03,47.05-26.02,24.37-61.59,46.44-100.16,62.17-13.91,5.67-28.66,10.71-42.93,15.59-40.59,13.88-82.56,28.21-116.07,59.79-13.94,13.12-21.97,29.59-29.73,45.52-2.3,4.72-4.61,9.46-7.09,14.14-27.5,51.87-61.71,82.68-104.58,94.19-21.83,5.86-45.06,10.16-67.53,14.32-31.22,5.78-63.49,11.75-93.62,22.1-19.32,6.64-37.31,17.31-54.71,27.64-8.02,4.76-15.97,9.47-23.93,13.71-77.04,40.99-151.62,87.9-223.73,133.26-19.2,12.08-38.42,24.17-57.73,36.17-10.8,6.72-22.79,14.66-35.68,23.18-58.27,38.55-138.07,91.35-202.66,91.35h-.01c-8.11,0-15.89-.85-23.11-2.51-35.44-8.16-50.17-38.46-49.24-101.3.95-64.98,39.93-103.68,102.5-145.07,46.8-30.95,96.02-67.38,150.47-111.38,47.56-38.43,94.62-78.92,140.13-118.07,39-33.55,79.33-68.25,119.72-101.43,98.2-80.66,202.59-154.45,319.05-235.65,9.46-6.6,18.91-13.37,28.37-20.16,24.76-17.74,50.36-36.09,76.6-51.46,41.71-24.44,78.51-37.45,115.82-40.94,26.06-2.44,53.01-2.85,79.08-3.24,40.92-.62,83.24-1.25,124.46-9.64,70.62-14.37,114.2-52.77,129.54-114.17,4.17-16.69,6.73-33.65,9.19-50.05,7.34-48.79,13.67-90.93,57.19-119.05,43.01-27.79,96.78-40.74,148.78-53.26l17.62-4.28c39.6-9.72,93.82-23.03,136.23-49.6,18.39-11.52,32.81-26.77,46.77-41.51,15.2-16.05,29.54-31.21,48.38-41.58,20.62-11.36,61.4-30.42,102.57-30.42,13.64,0,26.3,2.12,37.63,6.3,4.61,1.71,9.58,3.45,14.75,5.27,24.49,8.63,54.98,19.37,72.29,34.54,27.43,24.03,57.1,84.15,67.61,125.22,43.06,168.46-111.46,217.31-247.79,260.42Z"/>
  <path class="st0" d="M4246.04,1237.03c-15.07-4.2-31.38-6.33-48.46-6.33-66.21,0-136.07,31.59-192.21,56.97l-10.3,4.65c-59.39,26.74-111.97,66.13-162.82,104.22l-11.75,8.79c-36.6,27.34-70.18,58.02-102.64,87.68-77.35,70.64-150.41,137.38-259.12,159.47-46.88,9.51-97.97,14.15-156.18,14.15s-113.3-4.41-161.48-8.74c-23.35-2.09-46.62-4.39-69.77-6.68l-26.69-2.63c-12.73-1.24-26.84-2.94-41.89-4.76-41.67-5-88.91-10.67-136.17-10.67-105.2,0-171.22,29.76-201.87,90.97-15.2,30.35-16.58,58.28-4.12,83.01,27.09,53.77,114.91,79.43,183.81,91.48,22.96,4.02,46.35,8.36,70,12.75,76.07,14.14,154.74,28.75,231.59,34.92,21.29,1.72,41.47,2.07,61.01,2.41,54.48.96,101.52,1.79,152.84,30.36,7.14,3.97,14.05,8.01,20.84,11.98,34.03,19.9,66.18,38.69,108.68,38.69,6.03,0,12.23-.38,18.43-1.15,63.1-7.78,118.84-42.91,172.74-76.88,21.72-13.68,42.24-26.61,63.09-37.75,49.32-26.36,98.24-54.28,145.57-81.28,84.98-48.49,172.85-98.62,264.05-140.22,93.02-42.42,198.46-90.5,229.61-202.13,13.43-48.09,6.61-103.68-18.69-152.55-26.08-50.38-69.13-87.1-118.1-100.73ZM4363.57,1484.93c-28.66,102.67-129.6,148.7-218.65,189.33-92.02,41.96-180.29,92.32-265.66,141.04-47.21,26.93-96.02,54.79-145.09,81.02-21.47,11.48-43.25,25.2-64.32,38.48-52.05,32.79-105.87,66.72-164.53,73.95-5.39.67-10.76,1.02-15.98,1.02-37.09,0-65.59-16.67-98.59-35.97-6.9-4.03-13.94-8.15-21.2-12.2-55.68-31.01-107.43-31.91-162.22-32.88-19.22-.34-39.09-.68-59.76-2.34-75.82-6.09-153.96-20.62-229.54-34.65-23.72-4.4-47.18-8.76-70.2-12.79-91.03-15.93-151.18-44.62-169.4-80.78-9.6-19.03-8.24-40.32,4.15-65.07,26.91-53.77,87.09-79.91,183.97-79.91,46.06,0,92.68,5.6,133.79,10.54,15.21,1.84,29.46,3.54,42.34,4.79l26.65,2.63c23.2,2.29,46.54,4.61,69.96,6.7,48.61,4.36,106.03,8.82,163.26,8.82s111.95-4.76,160.17-14.56c114.13-23.18,192.67-94.92,268.62-164.3,32.11-29.34,65.31-59.66,101.12-86.42l11.77-8.81c49.98-37.44,101.66-76.16,159.03-101.98l10.34-4.67c54.38-24.59,122.07-55.2,183.96-55.2,15.27,0,29.77,1.87,43.09,5.59,43.64,12.16,82.17,45.2,105.71,90.67,23,44.42,29.26,94.72,17.19,137.97Z"/>
  <path class="st0" d="M4722.73,1178.65c-23.38,0-45.93,3.44-67,10.24-162.24,52.33-227.62,258.16-262.69,408.43-6.72,28.79-11.52,58.38-16.16,86.99-8.12,50.04-16.5,101.78-35.36,149.43-27.48,69.45-77.8,126.88-131.33,184.44-6.27,6.74-13.15,13.97-20.45,21.63-60.98,64.04-153.13,160.83-144.1,247.84,3.76,36.2,24.51,67.54,61.68,93.13,23.97,16.51,46.58,24.54,69.11,24.54,40.41,0,74.89-26.98,103.29-53.38,24.79-23.03,51.78-44.76,77.88-65.76,34.18-27.51,69.53-55.96,100.92-88.08l14.02-14.33c35.32-36.06,71.85-73.35,105.29-112.39,2.09-2.45,4.3-4.97,6.6-7.54,7.04-7.86,14.37-15.71,21.75-23.64,35.67-38.28,72.57-77.87,89.33-128.51,9.59-28.96,6.74-55.12,3.98-80.43-1.21-11.15-2.47-22.68-2.69-34.49-1.02-55.21,52.44-92.3,104.14-128.18,29.33-20.35,57.02-39.57,75.67-62.14,61.79-74.76,113.13-200.99,54.49-310.75-37.41-70.03-121.16-117.07-208.39-117.07ZM4861.22,1593.73c-16.9,20.45-43.51,38.92-71.67,58.46-53.41,37.07-113.95,79.07-112.73,144.98.23,12.71,1.54,24.71,2.8,36.29,2.64,24.25,5.14,47.15-3.09,71.97-15.39,46.48-50.76,84.45-84.98,121.16-7.47,8.03-14.87,15.98-22.01,23.94-2.4,2.69-4.71,5.32-6.89,7.87-33.01,38.53-69.3,75.58-104.38,111.41l-14.03,14.34c-30.56,31.27-65.44,59.34-99.16,86.47-26.38,21.23-53.65,43.18-78.96,66.7-36.23,33.67-63.05,48.03-89.68,48.03-18.34,0-37.24-6.88-57.76-21.01-32.59-22.44-49.97-48.19-53.13-78.74-8.08-77.83,80.24-170.6,138.69-231.98,7.35-7.71,14.3-15.01,20.62-21.81,54.87-59.01,106.52-118.02,135.27-190.69,19.66-49.69,28.22-102.5,36.51-153.59,4.59-28.28,9.33-57.53,15.89-85.64,33.96-145.55,96.77-344.72,249.35-393.95,19.09-6.15,39.57-9.28,60.87-9.28,80.06,0,156.72,42.79,190.75,106.48,53.97,101.04,5.58,218.61-52.27,288.59Z"/>
  <path class="st0" d="M4215.94,1717.67c-4.07-1.06-8.44-1.59-12.95-1.59-18.25,0-36.82,8.67-51.73,15.64l-5.42,2.52c-64.38,29.49-128.51,69.1-196.03,121.09-34.28,26.39-75.15,48.54-103.4,62.46-22.95,11.31-44.69,24.46-62.92,35.84-6.81,4.24-13.6,8.54-20.4,12.83-16.75,10.61-34.06,21.56-51.41,31.53-14.8,8.51-29.26,18.34-43.24,27.85-21.15,14.38-43.03,29.27-65.79,39.24-33.12,14.5-71.52,21.54-117.39,21.54-41.18,0-82.95-5.5-123.34-10.82l-5.48-.72c-24.36-3.2-49.38-4.82-74.37-4.82-96.22,0-192.96,24.32-272.4,68.47-44.79,24.89-99.18,59.89-122.4,110.03-23.53,50.76-14.89,108.94-7.29,160.26l.86,5.77c5.41,36.74,13.99,83.91,32.52,122.98,24.96,52.71,78.1,80.56,153.65,80.56h.03c108.66,0,245.18-57.29,309.34-110.37,7.44-6.16,14.68-12.4,21.85-18.58,28.37-24.49,55.17-47.62,90.4-61.44,14.42-5.65,31.39-8.41,51.86-8.41,18.42,0,37.42,2.17,55.79,4.26l7.86.9c17.7,1.97,33.42,2.93,48.06,2.93,67.73,0,117.41-20.72,166.1-69.3,43.12-43.01,86.2-87.46,127.87-130.45,66.65-68.76,135.57-139.85,206.19-206.67,11.82-11.18,27.55-23.15,44.2-35.85,51.29-39.06,115.13-87.69,112.85-152.13-1.48-42.17-52.15-104.8-93.48-115.56ZM4184.44,1969.44c-17.09,13.02-33.23,25.32-45.83,37.23-70.93,67.11-140,138.37-206.8,207.29-41.61,42.93-84.65,87.32-127.64,130.21-44.59,44.47-90.04,63.46-151.98,63.46-13.9,0-28.89-.92-45.83-2.81l-7.82-.88c-18.93-2.16-38.51-4.39-58.06-4.39-23.02,0-42.36,3.2-59.16,9.79-38.41,15.06-66.46,39.27-96.16,64.9-7.07,6.1-14.19,12.25-21.53,18.32-53.6,44.35-186.49,105.77-296.58,105.78h-.03c-68.23,0-113.86-23.25-135.59-69.12-17.38-36.68-25.59-81.97-30.8-117.32l-.86-5.8c-7.55-50.92-15.36-103.58,5.64-148.92,20.8-44.9,71.84-77.54,113.96-100.96,76.53-42.53,169.82-65.95,262.7-65.95,24.12,0,48.27,1.56,71.77,4.65l5.46.72c41.04,5.41,83.47,11,125.96,11,48.68,0,89.71-7.6,125.42-23.22,24.45-10.71,47.11-26.12,69.01-41.03,13.68-9.3,27.81-18.92,41.95-27.05,17.71-10.18,35.21-21.25,52.14-31.95,6.76-4.28,13.52-8.55,20.29-12.77,17.81-11.11,39.01-23.95,61.18-34.87,29.06-14.33,71.17-37.16,106.76-64.55,66.3-51.06,129.15-89.9,192.15-118.76l5.57-2.58c13.8-6.46,29.44-13.77,43.25-13.77,2.81,0,5.48.31,7.91.95,32.6,8.48,77.36,63.72,78.54,96.9,1.9,54.1-54.88,97.35-104.99,135.52Z"/>
  <path class="st0" d="M4449.1,890.74c-21.46-16.35-46.46-24.65-74.31-24.65-58.61,0-120.11,35.6-174.38,67-19.44,11.26-37.81,21.88-54.12,29.68-75.33,35.98-144.38,62.76-211.09,81.91-59.36,17.03-124.04,25.31-197.77,25.31-41.56,0-86.1-2.52-140.18-7.95-10.65-1.06-21.52-1.6-32.31-1.6-93.13,0-177.34,39.79-258.77,78.28-8.47,3.99-16.91,7.99-25.37,11.93-19.41,9.07-39.76,17.52-61.3,26.46-77.43,32.15-157.51,65.39-206.33,131.99-36.54,49.85-49.8,103.61-38.34,155.45,12.55,56.78,53.79,106.93,116.12,141.24,48.83,26.88,99.21,40.51,149.75,40.52h.04c132.57,0,249.5-90.25,362.59-177.52,60.14-46.43,116.95-90.27,173.94-119.08,126.99-64.22,282.31-117.03,488.82-166.23,9.82-2.34,19.85-4.55,29.97-6.79,71.45-15.77,152.42-33.64,193.88-106.5,32.46-57.06,14.14-137.57-40.83-179.46ZM4472.55,1060.31c-37.06,65.14-110.14,81.27-180.8,96.87-10.23,2.25-20.37,4.49-30.29,6.86-208.08,49.56-364.79,102.89-493.21,167.83-58.68,29.67-116.22,74.08-177.14,121.09-110.43,85.23-224.61,173.37-350.36,173.36h-.04c-47.78,0-93.61-12.45-140.1-38.04-57.23-31.49-94.96-76.96-106.25-128.04-10.18-46.05,1.9-94.24,34.95-139.32,45.52-62.09,122.97-94.25,197.86-125.34,21.75-9.03,42.29-17.56,62.09-26.81,8.49-3.96,16.97-7.97,25.46-11.97,79.43-37.55,161.57-76.37,250.22-76.37,10.13,0,20.33.51,30.32,1.5,54.75,5.49,99.92,8.05,142.17,8.05,75.62,0,142.12-8.54,203.29-26.09,67.79-19.45,137.85-46.63,214.19-83.09,17.03-8.12,35.73-18.96,55.53-30.41,52.09-30.15,111.11-64.32,164.36-64.32,23.69,0,44.03,6.72,62.18,20.56,47.3,36.05,63.26,104.99,35.58,153.66Z"/>
  <path class="st0" d="M3131.4,3687.07c-61.82-51.68-137.97-74.55-211.61-96.66-30.3-9.1-61.64-18.52-91.23-29.77-78.66-29.9-121.19-79.38-166.22-131.77-24.13-28.08-49.08-57.11-80.96-85.34-81.35-72.09-181.74-79.16-278.82-86-58.4-4.11-118.77-8.36-174.39-26.77-76.76-25.41-146.21-70.55-213.36-114.2-18.94-12.3-38.52-25.03-57.94-37.11-52.81-32.82-132.62-82.44-205.98-82.44-21.14,0-40.71,4.17-58.18,12.38-20.64,9.72-38.82,25.29-54.04,46.3-22.86,31.57-30.15,64.09-21.67,96.68,24.58,94.47,175.75,164.71,256.96,202.44,6.05,2.81,11.67,5.43,16.77,7.83l23.71,11.15c92.1,43.29,187.36,88.06,269.12,151.17,52.11,40.22,96.07,90.47,138.59,139.04,32.57,37.22,66.24,75.69,103.68,109.93,69.07,63.15,176.44,153.66,295.34,226.04h39.2c-128.66-73.74-247.05-173.15-321.04-240.81-36.62-33.48-69.92-71.53-102.12-108.33-43.15-49.31-87.77-100.29-141.45-141.72-83.48-64.44-179.73-109.68-272.82-153.43l-23.68-11.14c-5.13-2.42-10.79-5.05-16.88-7.88-72.65-33.76-223.83-104-246.04-189.35-7-26.9-.94-53.04,18.52-79.91,13.21-18.23,28.8-31.67,46.35-39.92,14.79-6.96,31.49-10.49,49.66-10.49,67.65,0,144.54,47.8,195.42,79.43,19.26,11.97,38.75,24.64,57.6,36.88,68.21,44.35,138.76,90.2,217.98,116.42,58,19.19,119.65,23.54,179.27,27.73,98.07,6.9,190.69,13.43,266.96,81.01,30.85,27.34,55.35,55.85,79.05,83.42,46.73,54.37,90.87,105.71,174.28,137.42,30.25,11.5,61.94,21.03,92.59,30.22,71.72,21.53,145.87,43.8,204.53,92.86,87.82,73.42,73.06,161.17,56.44,206.95-12.04,33.17-31.69,63.98-56.17,90.62h26.16c20.91-25.35,37.86-53.63,48.81-83.8,31.32-86.27,8.57-169.79-62.4-229.13Z"/>
  <path class="st0" d="M4229.42,3307.9c-61.3-41-142.14-56.5-213.46-70.19-12.05-2.3-23.91-4.58-35.44-6.92-89.33-18.19-180.4-35.21-268.48-51.67l-34.35-6.43c-227.77-42.62-417.35-79.51-610.39-133.54-37.22-10.42-74.45-28.04-113.88-46.69-57.37-27.15-116.71-55.21-176.64-59.53-70.78-5.22-110.5,42.41-148.84,88.21-11.66,13.94-23.72,28.33-36.35,40.75-21.66,21.3-41.15,32.11-57.93,32.11-40.28,0-62.2-65.3-71.67-104.23-8.22-33.8-10.53-69.62-12.75-104.25-2.05-32.03-4.19-65.16-10.93-97.37-24.2-115.63-108.61-184.67-225.81-184.67-44.16,0-91.41,10.24-136.6,29.64-78.65,33.72-137.63,91.58-166.08,162.92-26.67,66.88-24.63,139.7,5.91,210.61,76.72,178.15,243.05,195.44,403.89,212.16,89.71,9.33,182.47,18.96,257.53,56.87,55.23,27.89,91.84,75.69,127.23,121.93,54.93,71.75,111.87,145.99,236.31,137.49,23.3-1.58,46.11-6.49,68.17-11.24,23.54-5.07,47.88-10.3,72.39-11.33,28.04-1.17,62.66-.37,94.62.61,27.68.84,56.35,1.69,84.55.99,119.66-3.09,242.2,15.86,360.78,34.16,54.72,8.44,111.31,17.17,166.53,23.55,98.24,11.36,185.12,18.93,265.6,23.15,8.42.44,17.24.66,26.22.66,39.98,0,81.05-4.44,112.68-12.18,45.92-11.25,113.29-51.97,119.3-107.29,5.55-51.02-43.45-142.42-82.11-168.29ZM4291.65,3474.02c-4.91,45.21-65.07,80.44-104.17,90.02-30.14,7.38-69.46,11.61-107.92,11.61-8.63,0-17.1-.21-25.17-.64-80.06-4.2-166.53-11.74-264.35-23.04-54.85-6.35-111.25-15.05-165.79-23.46-110.64-17.08-225.07-34.73-337.52-34.73-8.94,0-17.9.11-26.82.33-27.77.73-56.04-.15-83.43-.98-32.32-.98-67.42-1.81-96.07-.6-26.21,1.09-51.4,6.51-75.76,11.76-22.35,4.8-43.47,9.36-65.31,10.83-113.7,7.71-164.83-58.83-219.08-129.69-36.76-48.02-74.78-97.68-134.08-127.63-78.35-39.56-172.98-49.39-264.48-58.91-162.26-16.87-315.51-32.79-387.6-200.18-28.38-65.92-30.35-133.45-5.68-195.28,26.46-66.38,81.65-120.34,155.37-151.95,42.74-18.33,87.26-28.02,128.73-28.02,108.61,0,183.79,61.51,206.23,168.77,6.46,30.82,8.54,63.22,10.55,94.55,2.29,35.5,4.65,72.2,13.28,107.7,19.02,78.18,50.53,119.5,91.1,119.5,22.21,0,46.42-12.73,71.95-37.85,13.31-13.1,25.69-27.87,37.66-42.17,36.88-44.04,71.69-85.54,132.06-81.11,56.21,4.06,113.82,31.31,169.53,57.67,38.45,18.18,78.19,36.99,117.04,47.87,193.82,54.26,383.84,91.24,612.11,133.96l34.35,6.42c88,16.45,178.98,33.45,268.16,51.6,11.6,2.36,23.53,4.66,35.65,6.98,69.45,13.32,148.18,28.42,206.1,67.16,35.91,24.02,77.72,109.26,73.35,149.5Z"/>
  <path class="st0" d="M2922.12,114.02h.02c81.58,0,166.87-46.17,222.85-114.02h-26.16c-51.94,56.5-125.87,94.02-196.69,94.02h-.02c-13.53,0-26.94-1.35-39.88-3.96-73.14-14.86-149.14-48.38-221.87-90.06h-39.2c83.1,50.59,171.82,92.32,257.08,109.65,14.25,2.9,29,4.38,43.87,4.38Z"/>
</svg>