<svg width="86" height="86" viewBox="0 0 86 86" fill="none" xmlns="http://www.w3.org/2000/svg">
<g filter="url(#filter0_diin_2_65)">
<path d="M42.7571 0L45.2625 2.17873L48.0211 0.331184L50.2336 2.80674L53.2021 1.31951L55.0869 4.05285L58.2183 2.94939L59.7457 5.8974L62.9908 5.19512L64.1366 8.31132L67.4441 8.02129L68.1903 11.2565L71.5081 11.3833L71.843 14.6866L75.1187 15.2282L75.0369 18.5474L78.2189 19.4953L77.7218 22.778L80.7598 24.1173L79.8552 27.3118L82.7015 29.0213L81.4036 32.0773L84.0132 34.13L82.3425 36.9992L84.6742 39.3628L82.6571 42L84.6742 44.6372L82.3425 47.0008L84.0132 49.87L81.4036 51.9227L82.7015 54.9787L79.8552 56.6882L80.7598 59.8827L77.7218 61.222L78.2189 64.5047L75.0369 65.4526L75.1187 68.7718L71.843 69.3134L71.5081 72.6167L68.1903 72.7435L67.4441 75.9787L64.1366 75.6887L62.9908 78.8049L59.7457 78.1026L58.2183 81.0506L55.0869 79.9472L53.2021 82.6805L50.2336 81.1933L48.0211 83.6688L45.2625 81.8213L42.7571 84L40.2518 81.8213L37.4931 83.6688L35.2806 81.1933L32.3121 82.6805L30.4273 79.9472L27.2959 81.0506L25.7685 78.1026L22.5235 78.8049L21.3776 75.6887L18.0701 75.9787L17.3239 72.7435L14.0061 72.6167L13.6713 69.3134L10.3956 68.7718L10.4773 65.4526L7.29535 64.5047L7.79248 61.222L4.75438 59.8827L5.65904 56.6882L2.81274 54.9787L4.11065 51.9227L1.50105 49.87L3.17174 47.0008L0.839996 44.6372L2.85712 42L0.839996 39.3628L3.17174 36.9992L1.50105 34.13L4.11065 32.0773L2.81274 29.0213L5.65904 27.3118L4.75438 24.1173L7.79248 22.778L7.29535 19.4953L10.4773 18.5474L10.3956 15.2282L13.6713 14.6866L14.0061 11.3833L17.3239 11.2565L18.0701 8.02129L21.3776 8.31132L22.5235 5.19512L25.7685 5.8974L27.2959 2.94939L30.4273 4.05285L32.3121 1.31951L35.2806 2.80674L37.4931 0.331184L40.2518 2.17873L42.7571 0Z" fill="url(#paint0_linear_2_65)"/>
</g>
<mask id="mask0_2_65" style="mask-type:alpha" maskUnits="userSpaceOnUse" x="0" y="0" width="85" height="84">
<path d="M42.7571 0L45.2625 2.17873L48.0211 0.331184L50.2336 2.80674L53.2021 1.31951L55.0869 4.05285L58.2183 2.94939L59.7457 5.8974L62.9908 5.19512L64.1366 8.31132L67.4441 8.02129L68.1903 11.2565L71.5081 11.3833L71.843 14.6866L75.1187 15.2282L75.0369 18.5474L78.2189 19.4953L77.7218 22.778L80.7598 24.1173L79.8552 27.3118L82.7015 29.0213L81.4036 32.0773L84.0132 34.13L82.3425 36.9992L84.6742 39.3628L82.6571 42L84.6742 44.6372L82.3425 47.0008L84.0132 49.87L81.4036 51.9227L82.7015 54.9787L79.8552 56.6882L80.7598 59.8827L77.7218 61.222L78.2189 64.5047L75.0369 65.4526L75.1187 68.7718L71.843 69.3134L71.5081 72.6167L68.1903 72.7435L67.4441 75.9787L64.1366 75.6887L62.9908 78.8049L59.7457 78.1026L58.2183 81.0506L55.0869 79.9472L53.2021 82.6805L50.2336 81.1933L48.0211 83.6688L45.2625 81.8213L42.7571 84L40.2518 81.8213L37.4931 83.6688L35.2806 81.1933L32.3121 82.6805L30.4273 79.9472L27.2959 81.0506L25.7685 78.1026L22.5235 78.8049L21.3776 75.6887L18.0701 75.9787L17.3239 72.7435L14.0061 72.6167L13.6713 69.3134L10.3956 68.7718L10.4773 65.4526L7.29535 64.5047L7.79248 61.222L4.75438 59.8827L5.65904 56.6882L2.81274 54.9787L4.11065 51.9227L1.50105 49.87L3.17174 47.0008L0.839996 44.6372L2.85712 42L0.839996 39.3628L3.17174 36.9992L1.50105 34.13L4.11065 32.0773L2.81274 29.0213L5.65904 27.3118L4.75438 24.1173L7.79248 22.778L7.29535 19.4953L10.4773 18.5474L10.3956 15.2282L13.6713 14.6866L14.0061 11.3833L17.3239 11.2565L18.0701 8.02129L21.3776 8.31132L22.5235 5.19512L25.7685 5.8974L27.2959 2.94939L30.4273 4.05285L32.3121 1.31951L35.2806 2.80674L37.4931 0.331184L40.2518 2.17873L42.7571 0Z" fill="url(#paint1_linear_2_65)"/>
</mask>
<g mask="url(#mask0_2_65)">
<g style="mix-blend-mode:plus-lighter">
<circle cx="42.7571" cy="42" r="42" fill="url(#paint2_linear_2_65)" fill-opacity="0.3"/>
</g>
</g>
<g style="mix-blend-mode:luminosity" filter="url(#filter1_dii_2_65)">
<circle cx="42.7571" cy="42" r="36" stroke="url(#paint3_linear_2_65)" stroke-width="0.84" shape-rendering="crispEdges"/>
</g>
<g style="mix-blend-mode:luminosity" filter="url(#filter2_dii_2_65)">
<circle cx="42.2571" cy="41.5" r="26.5" stroke="url(#paint4_linear_2_65)" stroke-width="0.84" shape-rendering="crispEdges"/>
</g>
<g style="mix-blend-mode:luminosity" opacity="0.6" filter="url(#filter3_dii_2_65)">
<path d="M26.0431 69.6148L25.4197 70.5375L21.7534 68.0604L22.3768 67.1377L23.6456 67.9949L25.8722 64.6993L27.001 65.462L24.7743 68.7575L26.0431 69.6148ZM24.2473 63.5341L20.7217 67.2067L19.7247 66.2495L21.1018 64.815L19.782 63.5479L18.4048 64.9825L17.4078 64.0254L20.9334 60.3528L21.9304 61.31L20.5533 62.7446L21.8731 64.0116L23.2503 62.577L24.2473 63.5341ZM20.5377 59.8976L16.4522 62.935L14.2631 59.9905L15.1568 59.3261L16.5213 61.1614L17.2235 60.6394L15.9717 58.9557L16.8654 58.2912L18.1172 59.9749L18.8194 59.4529L17.4609 57.6255L18.3546 56.9611L20.5377 59.8976ZM12.7998 57.5771L12.1517 56.1788L13.6101 54.407L13.5933 54.3709L11.2988 54.3384L10.6507 52.9401L14.6032 53.1685L16.0557 52.4954L16.6327 53.7403L15.1802 54.4135L12.7998 57.5771ZM15.0508 49.6036L15.4178 51.0493L10.0699 50.6732L9.60505 48.8421L14.126 45.9607L14.493 47.4063L11.1915 49.3934L11.2013 49.4319L15.0508 49.6036ZM13.1725 50.3677L12.4826 47.6499L13.4849 47.3955L14.1748 50.1132L13.1725 50.3677ZM14.078 45.5256L8.99719 45.846L8.91021 44.4667L10.9644 44.3371L10.96 44.2677L8.80946 42.869L8.70808 41.2614L11.0789 42.8355L13.7864 40.9013L13.8903 42.5486L12.0569 43.81L12.6811 44.2289L13.991 44.1463L14.078 45.5256ZM11.0629 35.4306C10.9727 35.438 10.8913 35.4593 10.8185 35.4946C10.744 35.5297 10.6784 35.5779 10.6216 35.6393C10.5634 35.6988 10.5156 35.7717 10.4783 35.858C10.4396 35.9424 10.4117 36.0378 10.3946 36.1442C10.3579 36.3733 10.3814 36.5776 10.465 36.7572C10.549 36.9351 10.6872 37.0831 10.8797 37.2013C11.0725 37.3178 11.3145 37.3994 11.6058 37.4461C11.9003 37.4933 12.1588 37.4936 12.3811 37.447C12.6034 37.4004 12.7829 37.3067 12.9196 37.1658C13.0563 37.0249 13.1435 36.8366 13.1813 36.601C13.2146 36.3932 13.212 36.2157 13.1735 36.0685C13.1353 35.9198 13.066 35.8021 12.9658 35.7155C12.8655 35.629 12.7401 35.5736 12.5896 35.5495L12.6519 35.3178L12.4678 36.4665L11.4958 36.3107L11.8531 34.082L12.5501 34.1938C13.0083 34.2672 13.3846 34.4274 13.679 34.6743C13.972 34.9193 14.178 35.2259 14.2969 35.5941C14.4144 35.9603 14.438 36.3627 14.3677 36.8013C14.2893 37.2905 14.1165 37.7034 13.8494 38.0399C13.5823 38.3764 13.2398 38.6177 12.822 38.7639C12.4044 38.9084 11.9305 38.9382 11.4004 38.8532C10.9848 38.7865 10.6267 38.6645 10.3262 38.4871C10.0259 38.3081 9.78344 38.0879 9.59874 37.8267C9.4124 37.5652 9.28652 37.2774 9.22109 36.9631C9.15403 36.6486 9.14764 36.3219 9.20194 35.9832C9.24968 35.6854 9.33656 35.4157 9.46257 35.1741C9.5872 34.9305 9.74298 34.7231 9.92991 34.5516C10.1155 34.3783 10.3235 34.248 10.554 34.1608C10.7845 34.0735 11.0278 34.037 11.284 34.0512L11.0629 35.4306ZM15.2402 32.8763L14.7319 34.2785L10.5185 30.9637L11.1623 29.1876L16.5212 29.3428L16.0128 30.745L12.1652 30.5347L12.1517 30.5721L15.2402 32.8763ZM13.257 32.4535L14.2127 29.8174L15.1849 30.1699L14.2292 32.806L13.257 32.4535ZM13.8677 23.7794L14.5694 22.5887L17.3792 24.2444C17.7133 24.4413 17.9553 24.6916 18.1052 24.9954C18.2546 25.2969 18.3119 25.6289 18.2772 25.9912C18.2412 26.3528 18.1125 26.7213 17.8912 27.0968C17.6683 27.4751 17.4074 27.7676 17.1086 27.9744C16.8084 28.1802 16.4902 28.2909 16.1541 28.3063C15.8174 28.3195 15.4821 28.2277 15.148 28.0308L12.3382 26.375L13.0399 25.1843L15.7469 26.7795C15.8825 26.8594 16.0215 26.901 16.1639 26.9041C16.3049 26.9064 16.4365 26.8724 16.5588 26.8021C16.6818 26.7303 16.7833 26.6266 16.8632 26.491C16.944 26.3539 16.9855 26.2149 16.9878 26.0739C16.9901 25.9329 16.9561 25.8013 16.8858 25.6791C16.8141 25.556 16.7104 25.4545 16.5747 25.3746L13.8677 23.7794ZM18.2977 18.0298L22.1693 21.3356L21.4203 22.2128L18.1917 21.8748L18.1724 21.8975L20.2064 23.6343L19.309 24.6854L15.4374 21.3796L16.1993 20.4873L19.4009 20.8415L19.4267 20.8112L17.4002 19.0809L18.2977 18.0298ZM19.9611 17.9391L19.2519 17.0805L22.6635 14.2628L23.3726 15.1214L22.192 16.0965L24.7248 19.1631L23.6745 20.0305L21.1417 16.964L19.9611 17.9391ZM26.2992 17.9286L23.7038 13.5489L24.8928 12.8443L26.9205 16.2659L28.6912 15.2166L29.2589 16.1747L26.2992 17.9286ZM29.7193 15.9551L27.7605 11.2561L31.1471 9.84438L31.5756 10.8723L29.4647 11.7522L29.8014 12.5599L31.7378 11.7526L32.1663 12.7805L30.2298 13.5878L30.5665 14.3954L32.6682 13.5193L33.0967 14.5472L29.7193 15.9551ZM32.6766 10.5071L32.4247 9.4223L36.7348 8.4215L36.9867 9.50627L35.4951 9.85262L36.3947 13.7268L35.0678 14.0349L34.1682 10.1607L32.6766 10.5071ZM42.0948 11.6173C41.8943 11.6186 41.7109 11.5709 41.5445 11.4742C41.3782 11.3758 41.2447 11.2441 41.1442 11.0791C41.0454 10.914 40.9953 10.7312 40.994 10.5307C40.9927 10.3285 41.0403 10.1451 41.1371 9.98036C41.2354 9.814 41.3671 9.68139 41.5322 9.58254C41.6973 9.48203 41.8801 9.43112 42.0806 9.42982C42.2827 9.4285 42.4662 9.47702 42.6309 9.57538C42.7972 9.67208 42.9299 9.80296 43.0287 9.96804C43.1292 10.1315 43.1801 10.3142 43.1814 10.5164C43.1827 10.7169 43.1342 10.9004 43.0359 11.0667C42.9392 11.2331 42.8083 11.3665 42.6432 11.467C42.4798 11.5659 42.297 11.616 42.0948 11.6173ZM46.4615 13.3638L47.5277 8.38582L49.6861 8.84809C50.0653 8.9293 50.3728 9.04854 50.6086 9.20581C50.846 9.36342 51.0104 9.54946 51.1017 9.76392C51.1947 9.97873 51.2141 10.2125 51.1599 10.4653C51.1207 10.6484 51.0445 10.8067 50.9312 10.94C50.8195 11.0737 50.6806 11.1762 50.5145 11.2474C50.3488 11.3169 50.1653 11.3505 49.9642 11.3481L49.9538 11.3967C50.1659 11.4506 50.3488 11.5466 50.5022 11.6845C50.6561 11.8209 50.7661 11.9876 50.8323 12.1848C50.8989 12.3804 50.907 12.5957 50.8567 12.8307C50.7984 13.1029 50.6752 13.3299 50.4872 13.5117C50.3007 13.6937 50.064 13.8176 49.7771 13.8833C49.4902 13.9489 49.1661 13.9431 48.8047 13.8657L46.4615 13.3638ZM48.0441 12.5741L48.6761 12.7094C48.903 12.758 49.0821 12.7523 49.2136 12.6923C49.3454 12.6307 49.4292 12.5165 49.465 12.3496C49.49 12.2329 49.4844 12.1283 49.4483 12.0359C49.4121 11.9434 49.3492 11.8655 49.2593 11.8022C49.1711 11.7392 49.0582 11.693 48.9204 11.6635L48.269 11.524L48.0441 12.5741ZM48.4481 10.6879L49.0023 10.8065C49.1206 10.8319 49.2291 10.8356 49.3278 10.8178C49.4265 10.8 49.5085 10.7616 49.5736 10.7027C49.6408 10.6425 49.6853 10.5613 49.7071 10.4592C49.7401 10.3053 49.7102 10.176 49.6173 10.0714C49.5248 9.96515 49.3943 9.89398 49.2258 9.85789L48.6522 9.73503L48.4481 10.6879ZM52.1884 14.9026L50.8129 14.3259L54.3312 10.2808L56.0735 11.0113L55.6545 16.356L54.2791 15.7793L54.6785 11.9467L54.6419 11.9313L52.1884 14.9026ZM52.7083 12.9427L55.2942 14.027L54.8943 14.9806L52.3084 13.8963L52.7083 12.9427ZM56.0329 16.5798L58.8278 12.3247L60.6645 13.5312C60.9803 13.7386 61.2189 13.9776 61.3802 14.2481C61.5416 14.5187 61.6171 14.8052 61.6067 15.1077C61.5964 15.4102 61.492 15.7124 61.2937 16.0144C61.0935 16.3191 60.8569 16.5315 60.5838 16.6515C60.312 16.7724 60.0192 16.8061 59.7054 16.7526C59.393 16.7001 59.0747 16.5673 58.7506 16.3544L57.6535 15.6339L58.2431 14.7363L59.1074 15.304C59.2432 15.3932 59.3697 15.4525 59.4871 15.4821C59.6068 15.5111 59.7169 15.5051 59.8173 15.464C59.919 15.4237 60.0095 15.3434 60.0886 15.2229C60.1687 15.101 60.2074 14.9847 60.2048 14.8739C60.2045 14.7627 60.1677 14.6572 60.0944 14.5575C60.0234 14.4573 59.9201 14.3627 59.7843 14.2735L59.3771 14.006L57.1881 17.3386L56.0329 16.5798ZM59.8089 16.2645L59.5899 18.9162L58.335 18.0919L58.579 15.4566L59.8089 16.2645ZM64.2543 18.4156C64.3559 18.2841 64.3968 18.1466 64.3771 18.0032C64.3585 17.861 64.2664 17.7147 64.1008 17.5642C63.9953 17.4684 63.8971 17.4027 63.8063 17.3672C63.7178 17.3316 63.6381 17.3207 63.5672 17.3347C63.4963 17.3487 63.4351 17.3827 63.3838 17.4368C63.3401 17.4799 63.3107 17.5283 63.2957 17.5818C63.283 17.6352 63.2841 17.6955 63.2991 17.7629C63.3152 17.829 63.3451 17.9032 63.389 17.9856C63.4328 18.0679 63.4912 18.159 63.564 18.2587L63.8129 18.6058C63.9814 18.8393 64.1069 19.0597 64.1896 19.2669C64.2723 19.4741 64.3163 19.6697 64.3216 19.8536C64.328 20.0363 64.2981 20.2085 64.232 20.37C64.167 20.5327 64.07 20.6863 63.9409 20.831C63.7145 21.0776 63.4621 21.2311 63.1834 21.2914C62.9047 21.3517 62.6106 21.323 62.3011 21.2053C61.9929 21.0887 61.6793 20.8856 61.3603 20.5958C61.0328 20.2983 60.791 19.9902 60.635 19.6716C60.4801 19.3541 60.4266 19.0334 60.4744 18.7097C60.5246 18.3858 60.6922 18.0657 60.9774 17.7494L61.9489 18.6319C61.8503 18.7527 61.791 18.8758 61.7713 19.0011C61.7515 19.1264 61.7698 19.2517 61.8262 19.3769C61.8839 19.5031 61.9778 19.6253 62.1078 19.7434C62.217 19.8426 62.3206 19.9121 62.4187 19.952C62.5168 19.9919 62.6066 20.0052 62.6881 19.9919C62.7696 19.9786 62.8388 19.9418 62.8958 19.8816C62.9469 19.8228 62.9736 19.7553 62.9758 19.6789C62.9803 19.6024 62.9571 19.5097 62.9061 19.4007C62.8562 19.2905 62.7753 19.1565 62.6633 18.9988L62.3615 18.5769C62.0936 18.2014 61.9403 17.8416 61.9014 17.4974C61.865 17.153 61.9811 16.8342 62.2497 16.5409C62.4658 16.3006 62.7196 16.1494 63.011 16.0873C63.3049 16.0251 63.6122 16.0479 63.9329 16.1557C64.2549 16.2646 64.5649 16.4544 64.863 16.7252C65.1672 17.0016 65.3841 17.2915 65.5136 17.595C65.6431 17.8985 65.6839 18.1974 65.6358 18.4919C65.5901 18.7862 65.4559 19.0572 65.2332 19.3048L64.2543 18.4156ZM66.2514 19.687L67.1173 18.9867L69.8998 22.4271L69.0339 23.1274L68.071 21.9368L64.9785 24.4378L64.1219 23.3787L67.2143 20.8776L66.2514 19.687ZM70.6295 28.9624C70.1314 29.233 69.6587 29.3643 69.2113 29.3565C68.7653 29.3479 68.3649 29.2269 68.0099 28.9935C67.6564 28.7593 67.3697 28.4398 67.1498 28.0349C66.9283 27.6272 66.8163 27.2109 66.8138 26.7861C66.8135 26.3619 66.9311 25.9605 67.1667 25.5817C67.4045 25.2036 67.771 24.8801 68.2661 24.6112C68.7641 24.3406 69.2357 24.209 69.6809 24.2161C70.1283 24.2239 70.5284 24.3442 70.8811 24.5769C71.2361 24.8103 71.5243 25.1309 71.7458 25.5387C71.9656 25.9435 72.0769 26.3583 72.0794 26.7831C72.0834 27.2072 71.9669 27.609 71.7299 27.9885C71.4943 28.3673 71.1275 28.6919 70.6295 28.9624ZM69.9508 27.713C70.2188 27.5674 70.4251 27.4092 70.5699 27.2381C70.7168 27.0678 70.8001 26.8877 70.8196 26.698C70.8414 26.5089 70.7977 26.3139 70.6885 26.1129C70.5794 25.9119 70.4392 25.7684 70.2679 25.6822C70.0989 25.5968 69.9025 25.5686 69.6788 25.5977C69.4574 25.6274 69.2127 25.7151 68.9447 25.8606C68.6768 26.0062 68.4693 26.1641 68.3223 26.3345C68.1776 26.5055 68.0944 26.6855 68.0726 26.8746C68.0531 27.0644 68.0979 27.2597 68.2071 27.4607C68.3162 27.6617 68.4553 27.8049 68.6243 27.8904C68.7956 27.9765 68.9919 28.0047 69.2134 27.9749C69.4371 27.9458 69.6829 27.8585 69.9508 27.713ZM72.5113 34.6744C71.9702 34.8428 71.4809 34.8796 71.0436 34.7849C70.6078 34.6896 70.2386 34.493 69.9358 34.1949C69.6347 33.8964 69.4157 33.5272 69.2788 33.0873C69.1409 32.6442 69.1121 32.2141 69.1923 31.7969C69.2745 31.3808 69.4681 31.0099 69.7729 30.6843C70.0797 30.3597 70.5022 30.1137 71.0402 29.9463C71.5813 29.7779 72.0696 29.7405 72.5048 29.8342C72.9422 29.9289 73.3112 30.1248 73.6118 30.4217C73.9146 30.7198 74.1349 31.0903 74.2727 31.5334C74.4096 31.9733 74.4379 32.4018 74.3578 32.819C74.2791 33.2357 74.0867 33.6071 73.7803 33.9333C73.4755 34.259 73.0525 34.506 72.5113 34.6744ZM72.0889 33.3167C72.3801 33.2261 72.6133 33.111 72.7885 32.9715C72.9658 32.833 73.0825 32.6726 73.1386 32.4903C73.1968 32.309 73.1919 32.1092 73.1239 31.8908C73.056 31.6725 72.9464 31.5044 72.7952 31.3866C72.6461 31.2698 72.459 31.2039 72.2339 31.1889C72.0109 31.175 71.7538 31.2134 71.4626 31.304C71.1715 31.3945 70.9372 31.5091 70.7599 31.6476C70.5846 31.7871 70.4679 31.9476 70.4098 32.1288C70.3537 32.3111 70.3596 32.5115 70.4276 32.7298C70.4955 32.9482 70.6041 33.1158 70.7532 33.2325C70.9044 33.3503 71.0915 33.4162 71.3145 33.4301C71.5396 33.4451 71.7977 33.4073 72.0889 33.3167ZM70.2005 36.0068L75.2502 35.3597L75.4258 36.7306L71.4808 37.2362L71.7425 39.2777L70.6379 39.4193L70.2005 36.0068ZM74.0267 44.2418C74.193 44.2391 74.3259 44.1853 74.4256 44.0804C74.5252 43.9771 74.5821 43.8139 74.5963 43.5906C74.6054 43.4484 74.5955 43.3307 74.5666 43.2375C74.5392 43.1461 74.4979 43.077 74.4428 43.0304C74.3876 42.9837 74.3229 42.9571 74.2486 42.9507C74.1876 42.9435 74.1315 42.9507 74.0803 42.9724C74.0307 42.9958 73.9842 43.0343 73.9409 43.088C73.8993 43.1418 73.86 43.2115 73.823 43.2972C73.786 43.3828 73.7512 43.4852 73.7187 43.6044L73.6028 44.0154C73.5253 44.2928 73.4314 44.5284 73.321 44.7223C73.2107 44.9162 73.0853 45.0726 72.9449 45.1915C72.8061 45.3105 72.6529 45.3945 72.4854 45.4436C72.3178 45.4944 72.1372 45.5144 71.9436 45.5037C71.6096 45.4807 71.3321 45.3792 71.1111 45.199C70.8901 45.0189 70.7291 44.7711 70.628 44.4558C70.5268 44.1421 70.4899 43.7703 70.5173 43.3403C70.5455 42.8987 70.6354 42.5176 70.7871 42.1968C70.9386 41.8777 71.1558 41.6358 71.4387 41.4712C71.7231 41.3083 72.0778 41.2396 72.503 41.2651L72.4194 42.5749C72.2634 42.5733 72.1303 42.6038 72.02 42.6665C71.9097 42.7292 71.8233 42.8217 71.7607 42.9439C71.698 43.0678 71.661 43.2173 71.6498 43.3927C71.6404 43.5398 71.6508 43.6642 71.6808 43.7658C71.7109 43.8673 71.7565 43.9458 71.8177 44.0012C71.879 44.0566 71.9509 44.0877 72.0335 44.0946C72.1113 44.098 72.1807 44.0766 72.2418 44.0307C72.3044 43.9866 72.3624 43.9106 72.4158 43.8027C72.4708 43.695 72.525 43.5481 72.5784 43.3622L72.7198 42.8631C72.8461 42.4195 73.0316 42.0752 73.2764 41.8301C73.5228 41.5867 73.8444 41.4786 74.2412 41.5055C74.5638 41.5245 74.8403 41.6285 75.0706 41.8175C75.3026 42.0083 75.4765 42.2627 75.5924 42.5806C75.7081 42.9002 75.7532 43.2609 75.7276 43.6628C75.7014 44.073 75.6101 44.4233 75.4537 44.7139C75.2974 45.0045 75.0892 45.2229 74.8291 45.369C74.5706 45.5169 74.275 45.5811 73.9425 45.5615L74.0267 44.2418ZM70.3659 45.8757L75.3401 46.9598L74.8722 49.1068C74.7917 49.476 74.6484 49.7832 74.4424 50.0283C74.2363 50.2734 73.9845 50.4441 73.6871 50.5404C73.3896 50.6367 73.0644 50.6464 72.7114 50.5695C72.3552 50.4919 72.064 50.3453 71.8379 50.1298C71.6115 49.9159 71.4589 49.6511 71.3801 49.3355C71.301 49.0214 71.3027 48.6749 71.3853 48.296L71.6648 47.0136L72.714 47.2423L72.4938 48.2527C72.4592 48.4114 72.4573 48.5526 72.488 48.6763C72.52 48.802 72.5812 48.9061 72.6718 48.9886C72.762 49.0727 72.8776 49.1301 73.0184 49.1608C73.1609 49.1919 73.2891 49.1876 73.4029 49.1479C73.5179 49.1102 73.6145 49.0405 73.6927 48.9388C73.7721 48.8391 73.8291 48.7099 73.8637 48.5512L73.9674 48.0752L70.0716 47.2261L70.3659 45.8757ZM69.7646 55.833C69.2425 55.6124 68.8451 55.3247 68.5722 54.9701C68.3008 54.6161 68.1456 54.2276 68.1068 53.8045C68.0694 53.3821 68.1404 52.9588 68.3197 52.5344C68.5004 52.107 68.756 51.7599 69.0865 51.4929C69.4179 51.2282 69.8051 51.0698 70.2481 51.0178C70.6919 50.9679 71.1734 51.0526 71.6924 51.272C72.2144 51.4926 72.6115 51.7792 72.8835 52.1316C73.1564 52.4863 73.3118 52.874 73.3499 53.2949C73.3887 53.7179 73.3179 54.1432 73.1372 54.5706C72.9579 54.9949 72.7029 55.3406 72.3724 55.6075C72.0434 55.875 71.6567 56.0345 71.2122 56.0859C70.7692 56.138 70.2866 56.0537 69.7646 55.833ZM70.3182 54.5233C70.599 54.642 70.8514 54.7046 71.0754 54.7111C71.3002 54.7198 71.4929 54.6726 71.6534 54.5695C71.8148 54.4686 71.94 54.3128 72.029 54.1022C72.1181 53.8915 72.1428 53.6924 72.1034 53.5048C72.0648 53.3194 71.9644 53.1483 71.8022 52.9916C71.6408 52.837 71.4197 52.7004 71.1388 52.5817C70.8579 52.463 70.6051 52.3993 70.3803 52.3906C70.1563 52.3841 69.9637 52.4313 69.8023 52.5322C69.6417 52.6353 69.517 52.7922 69.4279 53.0028C69.3389 53.2135 69.3137 53.4115 69.3523 53.5969C69.3917 53.7845 69.4921 53.9556 69.6535 54.1102C69.8157 54.2669 70.0373 54.4046 70.3182 54.5233ZM67.1365 55.3576L71.3809 58.1687L70.1675 60.0007C69.9589 60.3158 69.719 60.5534 69.4478 60.7137C69.1767 60.874 68.8899 60.9484 68.5874 60.9369C68.2849 60.9254 67.9831 60.82 67.6819 60.6205C67.3779 60.4191 67.1665 60.1817 67.0475 59.9081C66.9277 59.6359 66.8951 59.343 66.9497 59.0294C67.0035 58.7171 67.1374 58.3994 67.3515 58.0761L68.0763 56.9818L68.9716 57.5748L68.4006 58.4369C68.3109 58.5723 68.2511 58.6987 68.2211 58.816C68.1916 58.9355 68.1972 59.0456 68.2379 59.1461C68.2778 59.2481 68.3578 59.3388 68.478 59.4184C68.5996 59.499 68.7158 59.5381 68.8265 59.536C68.9378 59.5361 69.0434 59.4997 69.1433 59.4268C69.2438 59.3561 69.3388 59.2531 69.4285 59.1177L69.6976 58.7115L66.3733 56.5098L67.1365 55.3576ZM67.4375 59.1348L64.7866 58.9056L65.6156 57.6538L68.2501 57.9079L67.4375 59.1348ZM67.5602 61.7755L68.3796 62.5297L65.3831 65.7853L64.5637 65.0311L65.6007 63.9044L62.6743 61.2109L63.5969 60.2086L66.5232 62.9022L67.5602 61.7755ZM61.2969 67.092C61.4099 67.2139 61.5387 67.2769 61.6834 67.281C61.8267 67.2861 61.9862 67.2194 62.1619 67.0809C62.2738 66.9927 62.3548 66.9066 62.4048 66.8229C62.4545 66.7414 62.4784 66.6646 62.4763 66.5924C62.4742 66.5201 62.4507 66.4542 62.4058 66.3947C62.3705 66.3445 62.3276 66.3075 62.2773 66.2839C62.2267 66.2626 62.167 66.2538 62.0981 66.2574C62.0303 66.2624 61.9521 66.2797 61.8637 66.3094C61.7752 66.339 61.6758 66.3816 61.5654 66.437L61.1821 66.6253C60.9239 66.7529 60.6859 66.8404 60.4679 66.8878C60.2499 66.9352 60.0497 66.9464 59.8674 66.9213C59.6862 66.8975 59.5213 66.8397 59.3729 66.7478C59.2231 66.657 59.0876 66.536 58.9662 66.3847C58.7602 66.1209 58.6504 65.8465 58.6369 65.5618C58.6233 65.277 58.7001 64.9916 58.8672 64.7058C59.033 64.4209 59.2851 64.1451 59.6234 63.8783C59.9708 63.6043 60.3146 63.4166 60.6546 63.3151C60.9933 63.2147 61.3184 63.2148 61.6298 63.3153C61.941 63.4181 62.2291 63.6363 62.4941 63.9696L61.4635 64.7824C61.3606 64.6652 61.2489 64.5866 61.1286 64.5464C61.0083 64.5062 60.8817 64.5036 60.749 64.5387C60.6149 64.5748 60.4789 64.6472 60.341 64.756C60.2252 64.8473 60.1395 64.9381 60.084 65.0283C60.0285 65.1185 60.0006 65.2049 60.0003 65.2874C60 65.37 60.0248 65.4443 60.0749 65.5104C60.1244 65.5705 60.1866 65.608 60.2616 65.6227C60.3363 65.6398 60.4316 65.6322 60.5475 65.5999C60.6644 65.5688 60.8099 65.5111 60.9839 65.4266L61.4498 65.1985C61.8643 64.9961 62.2445 64.9042 62.5904 64.9226C62.936 64.9434 63.2313 65.1105 63.4763 65.4238C63.6777 65.6765 63.785 65.9517 63.7982 66.2494C63.8112 66.5495 63.738 66.8488 63.5789 67.1474C63.4184 67.4471 63.18 67.7216 62.8639 67.9709C62.5412 68.2254 62.2195 68.3916 61.8988 68.4693C61.5781 68.5471 61.2765 68.538 60.994 68.4421C60.7112 68.3485 60.4661 68.1714 60.2585 67.9109L61.2969 67.092ZM54.9542 68.5854C55.1356 68.5 55.3221 68.4662 55.5137 68.4841C55.706 68.5034 55.8824 68.5669 56.043 68.6745C56.202 68.7828 56.3243 68.9276 56.4097 69.109C56.4958 69.292 56.5296 69.4785 56.511 69.6685C56.4916 69.8608 56.4278 70.0365 56.3195 70.1956C56.2119 70.3561 56.0674 70.4791 55.886 70.5645C55.7031 70.6506 55.5162 70.6837 55.3255 70.6636C55.1339 70.6457 54.9586 70.5826 54.7995 70.4744C54.6397 70.3683 54.5167 70.2238 54.4306 70.0409C54.3451 69.8594 54.3121 69.6726 54.3315 69.4803C54.3494 69.2887 54.4121 69.1126 54.5197 68.9521C54.6264 68.7938 54.7713 68.6715 54.9542 68.5854ZM49.5798 70.5094C49.7742 70.4601 49.9637 70.4624 50.1484 70.5164C50.3335 70.572 50.4946 70.6679 50.6317 70.8041C50.7673 70.9407 50.8597 71.1061 50.909 71.3005C50.9588 71.4965 50.9564 71.686 50.902 71.8691C50.8464 72.0541 50.7503 72.2145 50.6137 72.35C50.4776 72.4871 50.3123 72.5804 50.1179 72.6297C49.922 72.6794 49.7323 72.6763 49.5488 72.6203C49.3641 72.5663 49.204 72.471 49.0684 72.3344C48.9317 72.1998 48.8385 72.0346 48.7887 71.8386C48.7394 71.6443 48.7426 71.4545 48.7982 71.2694C48.8522 71.0848 48.9473 70.9239 49.0834 70.7867C49.2184 70.6516 49.3839 70.5592 49.5798 70.5094ZM43.9292 71.3655C44.1294 71.3549 44.3149 71.394 44.4856 71.4828C44.6563 71.5733 44.7958 71.6987 44.9038 71.8589C45.0103 72.0192 45.0688 72.1995 45.0795 72.3997C45.0902 72.6016 45.0511 72.787 44.9622 72.9561C44.8717 73.1268 44.7463 73.2654 44.586 73.3719C44.4258 73.4799 44.2455 73.5393 44.0453 73.55C43.8434 73.5607 43.6579 73.5208 43.4888 73.4302C43.3181 73.3413 43.1796 73.2168 43.0731 73.0565C42.9651 72.8979 42.9058 72.7177 42.895 72.5158C42.8844 72.3156 42.9243 72.1301 43.0148 71.9593C43.1037 71.7886 43.2282 71.6492 43.3884 71.5412C43.547 71.4348 43.7273 71.3763 43.9292 71.3655ZM38.2347 71.1396C38.4335 71.1659 38.6086 71.2384 38.7601 71.3571C38.9113 71.4774 39.0254 71.6262 39.1022 71.8035C39.1774 71.9806 39.2018 72.1686 39.1755 72.3674C39.149 72.5678 39.0765 72.7429 38.9581 72.8928C38.8378 73.044 38.6891 73.1572 38.5119 73.2324C38.3346 73.3092 38.1466 73.3345 37.9478 73.3082C37.7473 73.2817 37.5723 73.2084 37.4227 73.0883C37.2713 72.9696 37.1579 72.8217 37.0827 72.6446C37.0057 72.4689 36.9804 72.2808 37.0069 72.0804C37.0333 71.8816 37.1066 71.7066 37.2269 71.5554C37.3455 71.4039 37.4935 71.2898 37.6709 71.2129C37.8463 71.1375 38.0343 71.1131 38.2347 71.1396ZM32.6769 69.8412C32.867 69.9049 33.0251 70.0095 33.1512 70.1548C33.2767 70.3018 33.3603 70.4696 33.4019 70.6583C33.442 70.8465 33.4301 71.0357 33.3664 71.2258C33.3022 71.4175 33.1976 71.5756 33.0528 71.7001C32.9058 71.8256 32.7383 71.9084 32.5501 71.9485C32.3614 71.9901 32.1719 71.9791 31.9818 71.9153C31.7901 71.8511 31.6323 71.7458 31.5083 71.5994C31.3822 71.454 31.2992 71.2872 31.2591 71.099C31.217 70.9119 31.228 70.7224 31.2923 70.5307C31.356 70.3406 31.4613 70.1828 31.6082 70.0572C31.7536 69.9312 31.9207 69.8473 32.1094 69.8057C32.296 69.7651 32.4852 69.777 32.6769 69.8412Z" fill="url(#paint5_linear_2_65)"/>
</g>
<g filter="url(#filter4_diin_2_65)">
<path d="M32.8091 56V50.6023L43.1188 42.0739C43.8025 41.5071 44.3873 40.9763 44.8731 40.4815C45.3679 39.9777 45.7457 39.4605 46.0066 38.9297C46.2765 38.3989 46.4114 37.8097 46.4114 37.1619C46.4114 36.4512 46.2585 35.844 45.9526 35.3402C45.6557 34.8364 45.2419 34.4496 44.7111 34.1797C44.1804 33.9008 43.5686 33.7614 42.8759 33.7614C42.1832 33.7614 41.5715 33.9008 41.0407 34.1797C40.5189 34.4586 40.1141 34.8679 39.8262 35.4077C39.5383 35.9474 39.3944 36.6042 39.3944 37.3778H32.2694C32.2694 35.4347 32.7057 33.7614 33.5783 32.358C34.451 30.9545 35.6834 29.875 37.2758 29.1193C38.8681 28.3636 40.7348 27.9858 42.8759 27.9858C45.089 27.9858 47.0052 28.3411 48.6245 29.0518C50.2528 29.7536 51.5078 30.7431 52.3894 32.0206C53.28 33.2981 53.7253 34.7959 53.7253 36.5142C53.7253 37.5758 53.5049 38.6328 53.0641 39.6854C52.6233 40.7289 51.8316 41.8849 50.6891 43.1534C49.5466 44.4219 47.9228 45.9332 45.8177 47.6875L43.2268 49.8466V50.0085H54.0222V56H32.8091Z" fill="url(#paint6_linear_2_65)"/>
<path d="M32.8091 56V50.6023L43.1188 42.0739C43.8025 41.5071 44.3873 40.9763 44.8731 40.4815C45.3679 39.9777 45.7457 39.4605 46.0066 38.9297C46.2765 38.3989 46.4114 37.8097 46.4114 37.1619C46.4114 36.4512 46.2585 35.844 45.9526 35.3402C45.6557 34.8364 45.2419 34.4496 44.7111 34.1797C44.1804 33.9008 43.5686 33.7614 42.8759 33.7614C42.1832 33.7614 41.5715 33.9008 41.0407 34.1797C40.5189 34.4586 40.1141 34.8679 39.8262 35.4077C39.5383 35.9474 39.3944 36.6042 39.3944 37.3778H32.2694C32.2694 35.4347 32.7057 33.7614 33.5783 32.358C34.451 30.9545 35.6834 29.875 37.2758 29.1193C38.8681 28.3636 40.7348 27.9858 42.8759 27.9858C45.089 27.9858 47.0052 28.3411 48.6245 29.0518C50.2528 29.7536 51.5078 30.7431 52.3894 32.0206C53.28 33.2981 53.7253 34.7959 53.7253 36.5142C53.7253 37.5758 53.5049 38.6328 53.0641 39.6854C52.6233 40.7289 51.8316 41.8849 50.6891 43.1534C49.5466 44.4219 47.9228 45.9332 45.8177 47.6875L43.2268 49.8466V50.0085H54.0222V56H32.8091Z" fill="url(#paint7_linear_2_65)"/>
</g>
<mask id="mask1_2_65" style="mask-type:alpha" maskUnits="userSpaceOnUse" x="32" y="27" width="23" height="29">
<path d="M32.8091 56V50.6023L43.1188 42.0739C43.8025 41.5071 44.3873 40.9763 44.8731 40.4815C45.3679 39.9777 45.7457 39.4605 46.0066 38.9297C46.2765 38.3989 46.4114 37.8097 46.4114 37.1619C46.4114 36.4512 46.2585 35.844 45.9526 35.3402C45.6557 34.8364 45.2419 34.4496 44.7111 34.1797C44.1804 33.9008 43.5686 33.7614 42.8759 33.7614C42.1832 33.7614 41.5715 33.9008 41.0407 34.1797C40.5189 34.4586 40.1141 34.8679 39.8262 35.4077C39.5383 35.9474 39.3944 36.6042 39.3944 37.3778H32.2694C32.2694 35.4347 32.7057 33.7614 33.5783 32.358C34.451 30.9545 35.6834 29.875 37.2758 29.1193C38.8681 28.3636 40.7348 27.9858 42.8759 27.9858C45.089 27.9858 47.0052 28.3411 48.6245 29.0518C50.2528 29.7536 51.5078 30.7431 52.3894 32.0206C53.28 33.2981 53.7253 34.7959 53.7253 36.5142C53.7253 37.5758 53.5049 38.6328 53.0641 39.6854C52.6233 40.7289 51.8316 41.8849 50.6891 43.1534C49.5466 44.4219 47.9228 45.9332 45.8177 47.6875L43.2268 49.8466V50.0085H54.0222V56H32.8091Z" fill="url(#paint8_linear_2_65)"/>
</mask>
<g mask="url(#mask1_2_65)">
<g style="mix-blend-mode:plus-lighter">
<circle cx="42.6571" cy="42.1" r="26.5" fill="url(#paint9_linear_2_65)" fill-opacity="0.3"/>
</g>
</g>
<defs>
<filter id="filter0_diin_2_65" x="-3.69549e-06" y="-0.42" width="85.5142" height="86.1" filterUnits="userSpaceOnUse" color-interpolation-filters="sRGB">
<feFlood flood-opacity="0" result="BackgroundImageFix"/>
<feColorMatrix in="SourceAlpha" type="matrix" values="0 0 0 0 0 0 0 0 0 0 0 0 0 0 0 0 0 0 127 0" result="hardAlpha"/>
<feOffset dy="0.84"/>
<feGaussianBlur stdDeviation="0.42"/>
<feComposite in2="hardAlpha" operator="out"/>
<feColorMatrix type="matrix" values="0 0 0 0 0 0 0 0 0 0 0 0 0 0 0 0 0 0 0.25 0"/>
<feBlend mode="normal" in2="BackgroundImageFix" result="effect1_dropShadow_2_65"/>
<feBlend mode="normal" in="SourceGraphic" in2="BackgroundImageFix" result="shape"/>
<feColorMatrix in="SourceAlpha" type="matrix" values="0 0 0 0 0 0 0 0 0 0 0 0 0 0 0 0 0 0 127 0" result="hardAlpha"/>
<feOffset dx="0.21" dy="-0.42"/>
<feGaussianBlur stdDeviation="0.21"/>
<feComposite in2="hardAlpha" operator="arithmetic" k2="-1" k3="1"/>
<feColorMatrix type="matrix" values="0 0 0 0 0 0 0 0 0 0 0 0 0 0 0 0 0 0 0.5 0"/>
<feBlend mode="normal" in2="shape" result="effect2_innerShadow_2_65"/>
<feColorMatrix in="SourceAlpha" type="matrix" values="0 0 0 0 0 0 0 0 0 0 0 0 0 0 0 0 0 0 127 0" result="hardAlpha"/>
<feOffset dx="0.21" dy="0.42"/>
<feGaussianBlur stdDeviation="0.21"/>
<feComposite in2="hardAlpha" operator="arithmetic" k2="-1" k3="1"/>
<feColorMatrix type="matrix" values="0 0 0 0 1 0 0 0 0 1 0 0 0 0 1 0 0 0 1 0"/>
<feBlend mode="normal" in2="effect2_innerShadow_2_65" result="effect3_innerShadow_2_65"/>
<feTurbulence type="fractalNoise" baseFrequency="2.3809523582458496 2.3809523582458496" stitchTiles="stitch" numOctaves="3" result="noise" seed="1528" />
<feComponentTransfer in="noise" result="coloredNoise1">
<feFuncR type="linear" slope="2" intercept="-0.5" />
<feFuncG type="linear" slope="2" intercept="-0.5" />
<feFuncB type="linear" slope="2" intercept="-0.5" />
<feFuncA type="discrete" tableValues="0 0 0 0 0 0 0 1 1 1 1 1 1 1 1 1 1 1 1 1 1 1 1 1 1 1 1 1 1 1 1 1 1 1 1 1 1 1 1 1 1 1 1 0 0 0 0 0 0 0 0 0 0 0 0 0 0 0 0 0 0 0 0 0 0 0 0 0 0 0 0 0 0 0 0 0 0 0 0 0 0 0 0 0 0 0 0 0 0 0 0 0 0 0 0 0 0 0 0 0 "/>
</feComponentTransfer>
<feComposite operator="in" in2="effect3_innerShadow_2_65" in="coloredNoise1" result="noise1Clipped" />
<feComponentTransfer in="noise1Clipped" result="color1">
<feFuncA type="table" tableValues="0 0.15" />
</feComponentTransfer>
<feMerge result="effect4_noise_2_65">
<feMergeNode in="effect3_innerShadow_2_65" />
<feMergeNode in="color1" />
</feMerge>
<feBlend mode="normal" in="effect4_noise_2_65" in2="effect1_dropShadow_2_65" result="effect4_noise_2_65"/>
</filter>
<filter id="filter1_dii_2_65" x="5.91712" y="4.74002" width="73.68" height="74.52" filterUnits="userSpaceOnUse" color-interpolation-filters="sRGB">
<feFlood flood-opacity="0" result="BackgroundImageFix"/>
<feColorMatrix in="SourceAlpha" type="matrix" values="0 0 0 0 0 0 0 0 0 0 0 0 0 0 0 0 0 0 127 0" result="hardAlpha"/>
<feOffset dy="-0.42"/>
<feGaussianBlur stdDeviation="0.21"/>
<feComposite in2="hardAlpha" operator="out"/>
<feColorMatrix type="matrix" values="0 0 0 0 0 0 0 0 0 0 0 0 0 0 0 0 0 0 0.25 0"/>
<feBlend mode="normal" in2="BackgroundImageFix" result="effect1_dropShadow_2_65"/>
<feBlend mode="normal" in="SourceGraphic" in2="effect1_dropShadow_2_65" result="shape"/>
<feColorMatrix in="SourceAlpha" type="matrix" values="0 0 0 0 0 0 0 0 0 0 0 0 0 0 0 0 0 0 127 0" result="hardAlpha"/>
<feOffset dy="0.84"/>
<feGaussianBlur stdDeviation="0.42"/>
<feComposite in2="hardAlpha" operator="arithmetic" k2="-1" k3="1"/>
<feColorMatrix type="matrix" values="0 0 0 0 1 0 0 0 0 1 0 0 0 0 1 0 0 0 1 0"/>
<feBlend mode="normal" in2="shape" result="effect2_innerShadow_2_65"/>
<feColorMatrix in="SourceAlpha" type="matrix" values="0 0 0 0 0 0 0 0 0 0 0 0 0 0 0 0 0 0 127 0" result="hardAlpha"/>
<feOffset dy="-0.84"/>
<feGaussianBlur stdDeviation="0.42"/>
<feComposite in2="hardAlpha" operator="arithmetic" k2="-1" k3="1"/>
<feColorMatrix type="matrix" values="0 0 0 0 0 0 0 0 0 0 0 0 0 0 0 0 0 0 0.5 0"/>
<feBlend mode="normal" in2="effect2_innerShadow_2_65" result="effect3_innerShadow_2_65"/>
</filter>
<filter id="filter2_dii_2_65" x="14.9171" y="13.74" width="54.68" height="55.52" filterUnits="userSpaceOnUse" color-interpolation-filters="sRGB">
<feFlood flood-opacity="0" result="BackgroundImageFix"/>
<feColorMatrix in="SourceAlpha" type="matrix" values="0 0 0 0 0 0 0 0 0 0 0 0 0 0 0 0 0 0 127 0" result="hardAlpha"/>
<feOffset dy="-0.42"/>
<feGaussianBlur stdDeviation="0.21"/>
<feComposite in2="hardAlpha" operator="out"/>
<feColorMatrix type="matrix" values="0 0 0 0 0 0 0 0 0 0 0 0 0 0 0 0 0 0 0.25 0"/>
<feBlend mode="normal" in2="BackgroundImageFix" result="effect1_dropShadow_2_65"/>
<feBlend mode="normal" in="SourceGraphic" in2="effect1_dropShadow_2_65" result="shape"/>
<feColorMatrix in="SourceAlpha" type="matrix" values="0 0 0 0 0 0 0 0 0 0 0 0 0 0 0 0 0 0 127 0" result="hardAlpha"/>
<feOffset dy="0.84"/>
<feGaussianBlur stdDeviation="0.42"/>
<feComposite in2="hardAlpha" operator="arithmetic" k2="-1" k3="1"/>
<feColorMatrix type="matrix" values="0 0 0 0 1 0 0 0 0 1 0 0 0 0 1 0 0 0 1 0"/>
<feBlend mode="normal" in2="shape" result="effect2_innerShadow_2_65"/>
<feColorMatrix in="SourceAlpha" type="matrix" values="0 0 0 0 0 0 0 0 0 0 0 0 0 0 0 0 0 0 127 0" result="hardAlpha"/>
<feOffset dy="-0.84"/>
<feGaussianBlur stdDeviation="0.42"/>
<feComposite in2="hardAlpha" operator="arithmetic" k2="-1" k3="1"/>
<feColorMatrix type="matrix" values="0 0 0 0 0 0 0 0 0 0 0 0 0 0 0 0 0 0 0.5 0"/>
<feBlend mode="normal" in2="effect2_innerShadow_2_65" result="effect3_innerShadow_2_65"/>
</filter>
<filter id="filter3_dii_2_65" x="8.50558" y="7.5975" width="67.5613" height="66.3685" filterUnits="userSpaceOnUse" color-interpolation-filters="sRGB">
<feFlood flood-opacity="0" result="BackgroundImageFix"/>
<feColorMatrix in="SourceAlpha" type="matrix" values="0 0 0 0 0 0 0 0 0 0 0 0 0 0 0 0 0 0 127 0" result="hardAlpha"/>
<feOffset dy="-0.2"/>
<feGaussianBlur stdDeviation="0.1"/>
<feComposite in2="hardAlpha" operator="out"/>
<feColorMatrix type="matrix" values="0 0 0 0 0 0 0 0 0 0 0 0 0 0 0 0 0 0 0.25 0"/>
<feBlend mode="normal" in2="BackgroundImageFix" result="effect1_dropShadow_2_65"/>
<feBlend mode="normal" in="SourceGraphic" in2="effect1_dropShadow_2_65" result="shape"/>
<feColorMatrix in="SourceAlpha" type="matrix" values="0 0 0 0 0 0 0 0 0 0 0 0 0 0 0 0 0 0 127 0" result="hardAlpha"/>
<feOffset dy="0.3"/>
<feGaussianBlur stdDeviation="0.1"/>
<feComposite in2="hardAlpha" operator="arithmetic" k2="-1" k3="1"/>
<feColorMatrix type="matrix" values="0 0 0 0 1 0 0 0 0 1 0 0 0 0 1 0 0 0 1 0"/>
<feBlend mode="normal" in2="shape" result="effect2_innerShadow_2_65"/>
<feColorMatrix in="SourceAlpha" type="matrix" values="0 0 0 0 0 0 0 0 0 0 0 0 0 0 0 0 0 0 127 0" result="hardAlpha"/>
<feOffset dy="-0.3"/>
<feGaussianBlur stdDeviation="0.1"/>
<feComposite in2="hardAlpha" operator="arithmetic" k2="-1" k3="1"/>
<feColorMatrix type="matrix" values="0 0 0 0 0 0 0 0 0 0 0 0 0 0 0 0 0 0 0.5 0"/>
<feBlend mode="normal" in2="effect2_innerShadow_2_65" result="effect3_innerShadow_2_65"/>
</filter>
<filter id="filter4_diin_2_65" x="31.5694" y="27.5658" width="23.1528" height="29.4142" filterUnits="userSpaceOnUse" color-interpolation-filters="sRGB">
<feFlood flood-opacity="0" result="BackgroundImageFix"/>
<feColorMatrix in="SourceAlpha" type="matrix" values="0 0 0 0 0 0 0 0 0 0 0 0 0 0 0 0 0 0 127 0" result="hardAlpha"/>
<feOffset dy="0.28"/>
<feGaussianBlur stdDeviation="0.35"/>
<feComposite in2="hardAlpha" operator="out"/>
<feColorMatrix type="matrix" values="0 0 0 0 0 0 0 0 0 0 0 0 0 0 0 0 0 0 0.5 0"/>
<feBlend mode="normal" in2="BackgroundImageFix" result="effect1_dropShadow_2_65"/>
<feBlend mode="normal" in="SourceGraphic" in2="BackgroundImageFix" result="shape"/>
<feColorMatrix in="SourceAlpha" type="matrix" values="0 0 0 0 0 0 0 0 0 0 0 0 0 0 0 0 0 0 127 0" result="hardAlpha"/>
<feOffset dy="-0.14"/>
<feGaussianBlur stdDeviation="0.07"/>
<feComposite in2="hardAlpha" operator="arithmetic" k2="-1" k3="1"/>
<feColorMatrix type="matrix" values="0 0 0 0 0 0 0 0 0 0 0 0 0 0 0 0 0 0 0.6 0"/>
<feBlend mode="normal" in2="shape" result="effect2_innerShadow_2_65"/>
<feColorMatrix in="SourceAlpha" type="matrix" values="0 0 0 0 0 0 0 0 0 0 0 0 0 0 0 0 0 0 127 0" result="hardAlpha"/>
<feOffset dy="0.14"/>
<feGaussianBlur stdDeviation="0.07"/>
<feComposite in2="hardAlpha" operator="arithmetic" k2="-1" k3="1"/>
<feColorMatrix type="matrix" values="0 0 0 0 0.899374 0 0 0 0 0.830286 0 0 0 0 0.678293 0 0 0 0.6 0"/>
<feBlend mode="normal" in2="effect2_innerShadow_2_65" result="effect3_innerShadow_2_65"/>
<feTurbulence type="fractalNoise" baseFrequency="2.3809523582458496 2.3809523582458496" stitchTiles="stitch" numOctaves="3" result="noise" seed="1528" />
<feComponentTransfer in="noise" result="coloredNoise1">
<feFuncR type="linear" slope="2" intercept="-0.5" />
<feFuncG type="linear" slope="2" intercept="-0.5" />
<feFuncB type="linear" slope="2" intercept="-0.5" />
<feFuncA type="discrete" tableValues="0 0 0 0 0 0 0 1 1 1 1 1 1 1 1 1 1 1 1 1 1 1 1 1 1 1 1 1 1 1 1 1 1 1 1 1 1 1 1 1 1 1 1 0 0 0 0 0 0 0 0 0 0 0 0 0 0 0 0 0 0 0 0 0 0 0 0 0 0 0 0 0 0 0 0 0 0 0 0 0 0 0 0 0 0 0 0 0 0 0 0 0 0 0 0 0 0 0 0 0 "/>
</feComponentTransfer>
<feComposite operator="in" in2="effect3_innerShadow_2_65" in="coloredNoise1" result="noise1Clipped" />
<feComponentTransfer in="noise1Clipped" result="color1">
<feFuncA type="table" tableValues="0 0.15" />
</feComponentTransfer>
<feMerge result="effect4_noise_2_65">
<feMergeNode in="effect3_innerShadow_2_65" />
<feMergeNode in="color1" />
</feMerge>
<feBlend mode="normal" in="effect4_noise_2_65" in2="effect1_dropShadow_2_65" result="effect4_noise_2_65"/>
</filter>
<linearGradient id="paint0_linear_2_65" x1="42.7571" y1="0" x2="42.7571" y2="84" gradientUnits="userSpaceOnUse">
<stop stop-color="#C8C8C8"/>
<stop offset="1" stop-color="#777777"/>
</linearGradient>
<linearGradient id="paint1_linear_2_65" x1="42.7571" y1="0" x2="42.7571" y2="84" gradientUnits="userSpaceOnUse">
<stop stop-color="#BFA46A"/>
<stop offset="1" stop-color="#594C31"/>
</linearGradient>
<linearGradient id="paint2_linear_2_65" x1="23.1571" y1="-17.5" x2="47.6571" y2="46.9" gradientUnits="userSpaceOnUse">
<stop stop-color="white"/>
<stop offset="1" stop-color="white" stop-opacity="0"/>
</linearGradient>
<linearGradient id="paint3_linear_2_65" x1="42.7571" y1="6" x2="42.7571" y2="78" gradientUnits="userSpaceOnUse">
<stop stop-color="#777777"/>
<stop offset="1" stop-color="#C8C8C8"/>
</linearGradient>
<linearGradient id="paint4_linear_2_65" x1="42.2571" y1="15" x2="42.2571" y2="68" gradientUnits="userSpaceOnUse">
<stop stop-color="#777777"/>
<stop offset="1" stop-color="#C8C8C8"/>
</linearGradient>
<linearGradient id="paint5_linear_2_65" x1="42.2571" y1="13" x2="42.2571" y2="70" gradientUnits="userSpaceOnUse">
<stop stop-color="#777777"/>
<stop offset="1" stop-color="#C8C8C8"/>
</linearGradient>
<linearGradient id="paint6_linear_2_65" x1="41.8682" y1="35.2917" x2="37.9214" y2="82.9582" gradientUnits="userSpaceOnUse">
<stop stop-color="#BFA46A"/>
<stop offset="1" stop-color="#594C31"/>
</linearGradient>
<linearGradient id="paint7_linear_2_65" x1="41.8682" y1="35.2917" x2="37.9214" y2="82.9582" gradientUnits="userSpaceOnUse">
<stop stop-color="#C8C8C8"/>
<stop offset="1" stop-color="#777777"/>
</linearGradient>
<linearGradient id="paint8_linear_2_65" x1="41.8682" y1="35.2917" x2="37.9214" y2="82.9582" gradientUnits="userSpaceOnUse">
<stop stop-color="#BFA46A"/>
<stop offset="1" stop-color="#594C31"/>
</linearGradient>
<linearGradient id="paint9_linear_2_65" x1="31.1571" y1="19.6" x2="47.6571" y2="57.1" gradientUnits="userSpaceOnUse">
<stop stop-color="white"/>
<stop offset="1" stop-color="white" stop-opacity="0"/>
</linearGradient>
</defs>
</svg>
